<svg width="412" height="750" viewBox="0 0 412 750" fill="none" xmlns="http://www.w3.org/2000/svg">
<g clip-path="url(#clip0_1996_69)">
<path fill-rule="evenodd" clip-rule="evenodd" d="M-210.286 292.598C-196.291 268.714 -182.091 244.949 -167.689 221.308C-173.879 234.553 -180.033 247.94 -186.259 261.488C-194.354 271.763 -202.365 282.076 -210.286 292.598ZM-220 305.063C-200.222 271.064 -180.033 237.305 -159.436 203.795C-144.232 171.831 -128.54 140.657 -110.823 109.997C-106.799 101.86 -102.564 93.8279 -98.1228 85.9104C-95.3054 80.0591 -92.3215 74.2894 -89.1748 68.6084C-86.8031 63.5394 -84.2624 58.5512 -81.5569 53.6523C-79.4332 48.9936 -77.1273 44.4201 -74.6448 39.9423C-74.3798 39.3493 -74.1118 38.7593 -73.8418 38.1723C-72.1014 34.3796 -70.2103 30.658 -68.1729 27.0163C-66.2699 22.6633 -64.215 18.5233 -61.991 14.6103C-60.171 10.3543 -58.1849 6.33932 -56.0149 2.57832C-54.2599 -1.61868 -52.3229 -5.54865 -50.1819 -9.19365C-48.4839 -13.3516 -46.5839 -17.2117 -44.4619 -20.7557C-42.8119 -24.8957 -40.94 -28.7057 -38.824 -32.1647C-37.218 -36.2977 -35.37 -40.0686 -33.252 -43.4496C-29.408 -53.6176 -23.9589 -61.3747 -16.4819 -66.2687C-7.31493 -72.2667 4.70203 -73.8326 20.082 -70.5586C30.9213 -68.2437 41.7038 -65.6704 52.4202 -62.8407C54.7987 -64.4439 57.1847 -66.0359 59.5781 -67.6167C77.975 -81.2032 96.8961 -94.0649 116.298 -106.173C179.685 -145.723 244.274 -174.578 289.488 -180.549C291.242 -180.857 292.971 -181.129 294.671 -181.365C297.325 -181.893 299.918 -182.332 302.446 -182.681C305.534 -183.34 308.536 -183.867 311.449 -184.258C314.654 -184.984 317.891 -185.562 321.149 -185.991C324.654 -186.81 328.042 -187.425 331.3 -187.828C334.92 -188.703 338.412 -189.344 341.762 -189.737C345.47 -190.662 349.038 -191.322 352.449 -191.699C356.223 -192.669 359.847 -193.342 363.299 -193.699C365.253 -194.219 367.227 -194.661 369.216 -195.024C370.259 -195.543 371.308 -196.049 372.364 -196.542C382.369 -202.728 391.718 -207.299 400.171 -210.033C412.861 -214.138 423.729 -214.158 431.725 -208.998L430.585 -207.232C423.365 -211.892 413.255 -212.056 400.818 -208.033C396.256 -206.558 391.408 -204.527 386.315 -201.974C398.468 -205.652 408.964 -205.728 416.938 -201.31L415.92 -199.471C408.378 -203.651 398.064 -203.563 385.548 -199.532C383.678 -198.927 381.827 -198.264 379.998 -197.544C388.991 -199.257 396.904 -198.793 403.358 -195.763L402.465 -193.86C397.008 -196.422 390.278 -197.043 382.465 -195.837C385.805 -195.568 388.921 -194.889 391.782 -193.77L391.017 -191.813C386.316 -193.65 380.787 -194.239 374.535 -193.644C376.625 -193.37 378.622 -192.934 380.521 -192.331L379.884 -190.328C376.594 -191.373 372.947 -191.89 368.978 -191.898C368.624 -191.666 368.268 -191.432 367.912 -191.196C368.366 -191.101 368.815 -190.998 369.259 -190.888L368.751 -188.848C367.667 -189.118 366.551 -189.339 365.401 -189.511C362.908 -187.814 360.445 -186.075 358.011 -184.294C340.391 -171.408 321.196 -154.284 301.539 -133.882C305.275 -134.958 308.956 -136.007 312.579 -137.028L313.149 -135.006C308.309 -133.64 303.474 -132.258 298.644 -130.858C293.22 -125.149 287.897 -119.346 282.676 -113.451C295.58 -117.347 308.091 -121.188 320.102 -124.99L320.737 -122.986C307.705 -118.861 294.095 -114.693 280.041 -110.461C275.191 -104.923 270.423 -99.3151 265.738 -93.6377C287.147 -99.6687 307.885 -106.029 327.653 -112.937L328.346 -110.952C307.642 -103.718 285.879 -97.0837 263.407 -90.8017C259.3 -85.7778 255.255 -80.7038 251.272 -75.5807C280.171 -82.4737 308.282 -90.6167 335.219 -100.876L335.967 -98.9117C308.141 -88.3147 279.082 -79.9717 249.223 -72.9347C245.857 -68.5681 242.534 -64.1678 239.256 -59.7347C274.625 -66.0397 309.172 -74.9947 342.796 -88.8107L343.594 -86.8656C309.111 -72.6976 273.683 -63.6237 237.448 -57.2817C234.76 -53.6193 232.102 -49.9352 229.473 -46.2297C270.425 -50.5097 310.467 -59.1967 350.38 -76.7417L351.226 -74.8177C310.469 -56.9017 269.602 -48.1777 227.862 -43.9507C225.776 -40.989 223.71 -38.0139 221.662 -35.0257C267.481 -35.9487 312.1 -43.2457 357.97 -64.6707L358.86 -62.7666C312.15 -40.9486 266.75 -33.6937 220.207 -32.8967C218.649 -30.6072 217.101 -28.3102 215.565 -26.0057C265.705 -22.3737 314.018 -27.1637 365.565 -52.5987L366.495 -50.7137C314.108 -24.8637 265.04 -20.1856 214.23 -23.9966C213.132 -22.3382 212.039 -20.676 210.952 -19.0097C265.02 -9.77369 316.184 -10.9697 373.162 -40.5247L374.131 -38.6597C316.306 -8.66471 264.391 -7.63972 209.705 -17.0917C209.009 -16.0177 208.315 -14.9407 207.621 -13.8617C209.163 -13.4417 210.701 -13.0297 212.237 -12.6277C268.202 2.04027 320.235 4.41427 380.764 -28.4507L381.767 -26.6037C320.622 6.59632 267.999 4.16033 211.704 -10.5937C209.951 -11.0537 208.194 -11.5236 206.434 -12.0066C156.114 66.8504 116.203 158.608 110.096 242.825C106.103 297.887 91.212 332.543 69.447 352.117C48.498 370.957 21.3771 375.653 -7.96289 371.387C-6.63289 402.422 -6.24286 433.846 -7.27686 465.203L-9.37695 465.134C-8.34095 433.686 -8.73686 402.179 -10.0789 371.064C-14.5138 370.35 -18.9197 369.466 -23.2869 368.414C-22.6439 396.28 -22.801 424.452 -24.136 452.579L-26.2358 452.479C-24.8938 424.205 -24.7439 395.893 -25.4009 367.895C-29.9096 366.755 -34.38 365.469 -38.8049 364.037C-38.7509 389.187 -39.3789 414.587 -40.9949 439.957L-43.0918 439.824C-41.4648 414.259 -40.84 388.674 -40.907 363.348C-45.407 361.852 -49.9259 360.2 -54.4539 358.41C-54.9159 381.252 -55.9658 404.303 -57.8508 427.34L-59.9458 427.168C-58.0418 403.901 -56.9909 380.628 -56.5369 357.576C-61.1292 355.716 -65.6765 353.746 -70.1748 351.668C-71.1058 372.568 -72.5468 393.648 -74.7048 414.725L-76.7959 414.511C-74.6109 393.173 -73.1629 371.845 -72.2339 350.709C-76.8378 348.546 -81.396 346.287 -85.9058 343.933C-87.2838 363.21 -89.1059 382.655 -91.5559 402.116L-93.6409 401.854C-91.1629 382.156 -89.3258 362.472 -87.9438 342.957C-92.5889 341.04 -97.1924 339.024 -101.751 336.909C-103.545 354.339 -105.713 371.913 -108.402 389.513L-110.48 389.196C-107.759 371.389 -105.573 353.606 -103.767 335.968C-108.417 333.779 -113.025 331.502 -117.589 329.138C-119.786 344.967 -122.296 360.926 -125.241 376.92L-127.308 376.54C-124.323 360.33 -121.786 344.153 -119.568 328.106C-121.733 326.972 -123.889 325.82 -126.036 324.65C-128.53 323.584 -131.013 322.494 -133.486 321.38C-136.06 335.61 -138.888 349.952 -142.069 364.339L-144.121 363.885C-140.908 349.353 -138.055 334.863 -135.461 320.485C-140.173 318.333 -144.85 316.104 -149.489 313.797C-152.396 326.376 -155.501 339.051 -158.875 351.777L-160.907 351.238C-157.495 338.37 -154.359 325.552 -151.423 312.831C-156.112 310.475 -160.766 308.05 -165.385 305.557C-168.663 316.83 -172.082 328.061 -175.639 339.249L-177.642 338.611C-173.999 327.184 -170.563 315.815 -167.275 304.532C-169.347 303.405 -171.413 302.265 -173.471 301.112C-176.108 299.981 -178.738 298.833 -181.361 297.668C-184.927 307.406 -188.572 317.115 -192.296 326.794L-194.257 326.038C-190.477 316.23 -186.833 306.484 -183.285 296.811L-184.549 296.245C-186.327 295.705 -188.084 295.168 -189.819 294.635L-190.276 294.567L-190.38 294.552C-191.88 294.332 -193.363 294.113 -194.83 293.899C-196.216 293.943 -197.587 293.989 -198.945 294.041C-202.122 300.9 -205.317 307.75 -208.532 314.591L-210.434 313.697C-207.433 307.311 -204.449 300.918 -201.482 294.516C-202.362 294.728 -203.236 294.942 -204.105 295.158C-205.539 295.831 -206.969 296.513 -208.394 297.205C-209.761 298.207 -211.121 299.217 -212.475 300.236C-213.125 300.905 -213.773 301.575 -214.42 302.247L-214.68 301.997L-216.288 304.177L-216.823 303.784L-218.183 306.12L-220 305.063ZM-23.3398 366.24C-18.9869 367.302 -14.5946 368.196 -10.1729 368.92C-10.2969 366.146 -10.4279 363.376 -10.5659 360.608C-14.8219 360.635 -19.1399 360.446 -23.5039 360.06C-23.4439 362.118 -23.3908 364.178 -23.3398 366.24ZM-25.6099 359.859C-25.5539 361.809 -25.5019 363.76 -25.4529 365.713C-29.9469 364.563 -34.4021 363.266 -38.8118 361.825C-38.8168 360.535 -38.8218 359.245 -38.8318 357.955C-34.3858 358.772 -29.9739 359.412 -25.6099 359.859ZM-23.5659 357.944C-19.2099 358.337 -14.9079 358.53 -10.6719 358.507C-10.9057 353.945 -11.1584 349.384 -11.4299 344.824C-15.5359 345.6 -19.7158 346.144 -23.9548 346.474C-23.8108 350.29 -23.6819 354.114 -23.5659 357.944ZM-26.0508 346.62C-25.9118 350.32 -25.7858 354.026 -25.6738 357.74C-30.0198 357.286 -34.4159 356.639 -38.8469 355.816C-38.871 352.808 -38.9042 349.799 -38.9468 346.79C-34.6478 346.936 -30.3444 346.879 -26.0508 346.62ZM-24.0349 344.373C-19.8059 344.04 -15.6429 343.492 -11.5569 342.709C-11.9589 336.096 -12.3969 329.508 -12.8669 322.949C-16.774 324.423 -20.763 325.669 -24.814 326.681C-24.525 332.557 -24.2649 338.456 -24.0349 344.373ZM-26.8928 327.183C-26.6098 332.941 -26.3549 338.722 -26.1309 344.52C-30.4078 344.779 -34.6946 344.835 -38.9768 344.686C-39.0568 339.568 -39.1599 334.463 -39.2869 329.374C-35.0999 328.848 -30.9638 328.125 -26.8928 327.183ZM-24.9209 324.54C-20.8846 323.516 -16.9123 322.254 -13.0249 320.76C-13.5799 313.152 -14.1769 305.548 -14.8159 297.946C-18.4581 300.091 -22.2197 302.026 -26.0828 303.741C-25.6608 310.639 -25.2719 317.573 -24.9209 324.541V324.54ZM-28.1338 304.629C-27.7218 311.402 -27.3408 318.209 -26.9978 325.049C-31.0478 325.999 -35.1678 326.732 -39.3408 327.262C-39.5022 321.13 -39.695 314.999 -39.9189 308.869C-35.9188 307.664 -31.9848 306.249 -28.1338 304.629ZM-26.2209 301.499C-22.3738 299.758 -18.6314 297.793 -15.0129 295.616C-15.7349 287.136 -16.5005 278.659 -17.3098 270.186C-20.6709 272.966 -24.1757 275.567 -27.8098 277.979C-27.2458 285.763 -26.7129 293.606 -26.2209 301.499ZM-29.823 279.286C-29.271 286.939 -28.7498 294.646 -28.2698 302.403C-32.1 304.044 -36.0159 305.477 -40 306.697C-40.265 299.613 -40.5679 292.567 -40.9009 285.566C-37.1045 283.661 -33.4073 281.565 -29.823 279.286ZM-27.9868 275.566C-24.4288 273.156 -20.947 270.522 -17.553 267.649C-18.4542 258.314 -19.3967 248.983 -20.3809 239.656C-23.4572 243.001 -26.6832 246.205 -30.0488 249.258C-29.3298 257.942 -28.6388 266.715 -27.9868 275.566ZM-32.0139 251.008C-31.3099 259.557 -30.6338 268.191 -29.9958 276.899C-33.556 279.209 -37.233 281.335 -41.012 283.266C-41.405 275.184 -41.8359 267.164 -42.2959 259.216C-38.747 256.636 -35.3163 253.897 -32.0139 251.008ZM-30.2698 246.608C-26.9252 243.506 -23.7242 240.252 -20.6768 236.857C-21.7529 226.735 -22.8617 216.617 -24.0029 206.502C-26.8011 210.296 -29.7371 213.987 -32.8049 217.566C-31.9409 227.118 -31.0888 236.804 -30.2698 246.608ZM-34.7178 219.763C-33.8678 229.183 -33.033 238.733 -32.23 248.393C-35.505 251.322 -38.9122 254.098 -42.4409 256.715C-42.9727 247.688 -43.5378 238.663 -44.136 229.64C-40.938 226.529 -37.7958 223.241 -34.7178 219.763ZM-33.0718 214.631C-30.0287 211 -27.1201 207.258 -24.3518 203.413C-25.5918 192.438 -26.8369 181.653 -28.0579 171.083C-30.5952 175.156 -33.2452 179.156 -36.0049 183.081C-35.0109 193.596 -34.0331 204.113 -33.0718 214.631ZM-37.8718 185.698C-36.89 196.087 -35.9262 206.478 -34.98 216.87C-37.9664 220.321 -41.0818 223.658 -44.3198 226.873C-44.9908 216.847 -45.6815 206.823 -46.3918 196.799C-43.4456 193.182 -40.6044 189.48 -37.8718 185.698ZM-36.3098 179.84C-33.6368 175.96 -31.014 171.92 -28.448 167.71C-29.7517 156.476 -31.0355 145.24 -32.2998 134.001C-34.6023 138.119 -36.985 142.192 -39.4468 146.216C-38.4908 156.699 -37.4778 167.446 -36.4438 178.428L-36.3098 179.84ZM-41.2869 149.19C-40.4019 158.843 -39.4719 168.713 -38.5239 178.777L-38.1719 182.506C-40.8752 186.325 -43.6888 190.065 -46.6089 193.721L-47.1018 186.757C-47.7238 177.97 -48.3359 169.33 -48.9189 160.854C-46.2958 157.019 -43.7512 153.13 -41.2869 149.19ZM-39.7668 142.7C-37.332 138.646 -34.9766 134.545 -32.7019 130.398C-34.0129 118.603 -35.2358 107.163 -36.3218 96.1223C-38.4142 100.003 -40.5539 103.859 -42.74 107.687C-41.865 118.966 -40.8568 130.653 -39.7668 142.7ZM-44.5969 110.912C-43.7069 122.143 -42.6928 133.762 -41.6038 145.724C-44.0394 149.689 -46.5557 153.603 -49.1509 157.464C-49.9749 145.374 -50.7328 133.623 -51.3718 122.263C-49.0988 118.563 -46.8399 114.78 -44.5959 110.913L-44.5969 110.912ZM-43.0269 103.936C-40.8677 100.102 -38.755 96.2416 -36.689 92.3563C-36.959 89.5463 -37.2209 86.7614 -37.4719 84.0044C-38.2516 75.5191 -38.9387 67.0256 -39.533 58.5254C-41.4168 61.8509 -43.3183 65.1662 -45.2378 68.4713C-44.9108 75.5683 -44.4888 82.8943 -43.9878 90.4333C-43.6938 94.8633 -43.3719 99.3654 -43.0269 103.936ZM-47.1829 71.8064C-46.8809 77.9084 -46.511 84.1663 -46.085 90.5733C-45.724 96.0133 -45.3208 101.561 -44.8848 107.209C-47.0677 111.024 -49.2983 114.811 -51.5759 118.569C-51.9749 111.225 -52.3199 104.049 -52.5959 97.0564C-52.8009 91.8584 -52.9688 86.7614 -53.0908 81.7704C-51.1238 78.4934 -49.1539 75.1724 -47.1829 71.8064ZM-45.408 64.5693C-43.537 61.3233 -41.6638 58.0353 -39.7878 54.7033C-40.4538 44.4273 -40.9028 34.6403 -41.0808 25.3933C-42.7186 27.256 -44.3397 29.1335 -45.9438 31.0253C-46.1068 41.4923 -45.9 52.6993 -45.408 64.5693ZM-48.0779 33.5643C-48.1839 44.3243 -47.916 55.8143 -47.366 67.9503C-49.306 71.2863 -51.2439 74.5773 -53.1799 77.8253C-53.4479 64.5353 -53.382 52.0333 -52.866 40.4233L-49.4968 35.2763C-49.0268 34.7063 -48.5529 34.1353 -48.0779 33.5643ZM-45.8789 27.7113C-44.3113 25.8862 -42.7282 24.0745 -41.1299 22.2763C-41.1655 19.5488 -41.1746 16.821 -41.157 14.0933C-42.6286 15.5105 -44.0909 16.9372 -45.5439 18.3734C-45.6939 21.4134 -45.8039 24.5263 -45.8789 27.7113ZM-47.7488 20.5664C-47.8844 23.7897 -47.9795 27.0146 -48.0339 30.2403C-49.0824 31.4818 -50.1229 32.7298 -51.1558 33.9843L-51.1929 34.0293L-51.2239 34.0773L-52.6599 36.2694C-52.4479 32.4244 -52.1829 28.6823 -51.8599 25.0473L-51.3828 24.4243L-50.7539 23.6073C-49.757 22.5886 -48.7558 21.575 -47.7488 20.5664ZM-45.0239 10.0764C-43.7114 8.81586 -42.3826 7.57232 -41.0378 6.34627L-41.0229 6.33333L-41.0178 6.17134L-41.0139 6.04634C-42.3577 7.19124 -43.6809 8.36008 -44.9829 9.55232L-45.0239 10.0764ZM-47.2478 11.6704C-47.2628 11.8754 -47.2778 12.0803 -47.2908 12.2873C-48.5095 13.4927 -49.7137 14.7128 -50.9028 15.9473L-50.8069 15.1814C-49.6399 13.9914 -48.4538 12.8204 -47.2478 11.6704ZM-44.7219 6.48628C-43.4725 5.37622 -42.2047 4.2871 -40.9189 3.21931L-40.8589 1.74129C-42.1189 2.76631 -43.3568 3.81825 -44.5718 4.89632C-44.6238 5.42432 -44.6729 5.95328 -44.7219 6.48628ZM-46.8779 6.99934C-46.9229 7.51734 -46.968 8.03933 -47.011 8.56233C-48.1389 9.60689 -49.2509 10.6683 -50.3469 11.7463C-50.2709 11.2113 -50.194 10.6803 -50.115 10.1513C-49.055 9.07832 -47.9749 8.02834 -46.8779 6.99934ZM-44.252 1.83235C-43.096 0.846352 -41.9199 -0.11764 -40.7229 -1.05864C-40.6819 -1.83264 -40.6378 -2.60069 -40.5908 -3.36369C-41.745 -2.42892 -42.8764 -1.46634 -43.9839 -0.47673C-44.0773 0.292459 -44.1667 1.06222 -44.252 1.83235ZM-46.3528 1.71736C-46.4328 2.43036 -46.5088 3.14937 -46.5818 3.87337C-47.5903 4.7812 -48.5832 5.70623 -49.5598 6.64827C-49.4418 5.94627 -49.322 5.2503 -49.198 4.5583C-48.268 3.5893 -47.3188 2.64236 -46.3528 1.71736ZM-43.575 -3.61967C-42.5353 -4.50248 -41.4763 -5.36234 -40.3989 -6.19865C-40.3289 -7.14465 -40.2548 -8.08167 -40.1758 -9.01067C-41.1995 -8.14795 -42.2007 -7.25865 -43.178 -6.34367C-43.316 -5.44567 -43.448 -4.53767 -43.575 -3.61967ZM-45.6538 -3.92265C-45.7638 -3.12665 -45.8699 -2.32369 -45.9719 -1.51469C-46.8274 -0.736461 -47.6688 0.0570039 -48.4958 0.865311C-48.3418 0.103311 -48.1859 -0.650629 -48.0229 -1.39763C-47.2508 -2.25592 -46.4615 -3.09779 -45.6538 -3.92265ZM-42.6348 -9.66972C-41.7422 -10.4511 -40.832 -11.2119 -39.9048 -11.9517C-39.8028 -12.9657 -39.6968 -13.9677 -39.5818 -14.9587C-40.4474 -14.1657 -41.2923 -13.3501 -42.115 -12.5127C-42.295 -11.5767 -42.4688 -10.6287 -42.6348 -9.66972ZM-44.7698 -9.65373C-44.8988 -8.90273 -45.0228 -8.14371 -45.1438 -7.37871C-45.8003 -6.75277 -46.4464 -6.11598 -47.0818 -5.46867C-46.9098 -6.16667 -46.733 -6.85872 -46.553 -7.54472C-45.9718 -8.25878 -45.3772 -8.96191 -44.7698 -9.65373ZM-41.3599 -16.1807C-40.652 -16.8387 -39.9301 -17.4815 -39.1948 -18.1087C-39.0668 -19.0697 -38.933 -20.0197 -38.793 -20.9587C-39.4622 -20.2596 -40.1148 -19.5448 -40.75 -18.8147C-40.96 -17.9487 -41.1629 -17.0707 -41.3599 -16.1807ZM-43.7358 -15.1177C-43.8458 -14.5917 -43.9529 -14.0627 -44.0579 -13.5297C-44.4389 -13.1347 -44.8179 -12.7337 -45.1909 -12.3277C-45.0459 -12.7987 -44.8988 -13.2666 -44.7488 -13.7306C-44.4158 -14.1996 -44.0778 -14.6617 -43.7358 -15.1177ZM-39.6199 -23.1216C-39.1599 -23.5856 -38.6949 -24.0417 -38.2229 -24.4887C-38.0959 -25.2227 -37.9629 -25.9487 -37.8269 -26.6687C-38.2369 -26.1557 -38.6408 -25.6317 -39.0388 -25.0987L-39.0598 -25.0287C-39.2508 -24.4007 -39.4379 -23.7646 -39.6199 -23.1216ZM-37.1199 -30.7377L-36.9419 -30.9327L-36.8418 -31.3766L-36.9329 -31.2267C-36.9959 -31.0647 -37.0589 -30.9017 -37.1199 -30.7377ZM-31.3608 -42.5097C-31.4948 -42.1497 -31.6278 -41.7877 -31.7588 -41.4227C-30.2381 -43.0111 -28.6039 -44.4867 -26.8689 -45.8377C-17.9319 -52.7827 -6.5239 -56.0717 7.8291 -55.2787H7.84521L7.86108 -55.2767C17.5971 -54.4292 27.3176 -53.4117 37.0181 -52.2247C38.7683 -53.4584 40.5231 -54.6857 42.2822 -55.9067C32.7759 -57.7352 23.2349 -59.3798 13.665 -60.8396C-0.821961 -62.8216 -11.9528 -60.4247 -20.4548 -54.3437C-24.6818 -51.3197 -28.2968 -47.3597 -31.3608 -42.5097ZM46.4841 -55.0896C44.9867 -53.9326 43.4934 -52.7703 42.0042 -51.6027C42.9112 -51.4877 43.814 -51.3727 44.717 -51.2547C46.435 -52.3107 48.1592 -53.3627 49.8892 -54.4107C48.7546 -54.6393 47.6196 -54.8656 46.4841 -55.0896ZM52.5481 -56.0166C51.2681 -56.2776 49.9852 -56.5367 48.6982 -56.7937C50.2719 -58.0014 51.8498 -59.2033 53.4321 -60.3997C54.9211 -60.0037 56.4041 -59.6057 57.8801 -59.2037C56.0981 -58.1457 54.3201 -57.0836 52.5481 -56.0166ZM52.9302 -53.7926C51.2912 -52.8046 49.6571 -51.8126 48.0291 -50.8186C49.7021 -50.5956 51.369 -50.3687 53.031 -50.1387C54.687 -51.0077 56.3472 -51.8726 58.0112 -52.7356C56.3186 -53.0928 54.6248 -53.4451 52.9302 -53.7926ZM60.9602 -54.2587C59.171 -54.6414 57.3806 -55.0187 55.5891 -55.3907C57.2901 -56.4091 58.9941 -57.4225 60.7012 -58.4307C62.4492 -57.9487 64.1882 -57.4627 65.9192 -56.9727L65.729 -56.8157L65.519 -56.6397L65.3672 -56.5137C63.8952 -55.7637 62.4272 -55.0137 60.9602 -54.2587ZM62.884 -51.6947C61.887 -50.8547 60.8921 -50.0126 59.9001 -49.1676L61.4871 -48.9377C63.0521 -49.6177 64.6202 -50.2977 66.1902 -50.9737C65.0902 -51.2147 63.989 -51.4557 62.884 -51.6947ZM69.499 -52.3937C67.978 -52.7327 66.4512 -53.0697 64.9192 -53.4037C65.4562 -53.8517 65.993 -54.3007 66.531 -54.7477C67.391 -55.1867 68.2542 -55.6247 69.1172 -56.0607C70.9072 -55.5467 72.6901 -55.0276 74.4631 -54.5066C72.8061 -53.8046 71.151 -53.1007 69.499 -52.3937ZM69.7021 -50.1936C68.2761 -49.5836 66.8522 -48.9707 65.4302 -48.3567C66.9522 -48.1297 68.4701 -47.9007 69.9841 -47.6687C71.4209 -48.1665 72.8582 -48.6624 74.2961 -49.1567C72.7701 -49.5047 71.2391 -49.8507 69.7021 -50.1947V-50.1936ZM77.6472 -50.5437C76.1062 -50.9007 74.5591 -51.2536 73.0071 -51.6056C74.5491 -52.2606 76.0932 -52.9157 77.6392 -53.5657C78.4802 -53.3157 79.319 -53.0657 80.156 -52.8127C79.318 -52.0587 78.4812 -51.3027 77.6462 -50.5447L77.6472 -50.5437ZM78.2461 -48.2487L76.5051 -46.6587L78.4832 -46.3457L82.2432 -47.3157C80.9152 -47.6277 79.5831 -47.9387 78.2461 -48.2487ZM86.6262 -48.4367C85.0682 -48.8087 83.506 -49.1787 81.936 -49.5467C83.349 -50.0267 84.762 -50.5037 86.176 -50.9797C87.751 -50.4957 89.3201 -50.0097 90.8821 -49.5197C89.4621 -49.1597 88.0442 -48.7997 86.6262 -48.4367ZM86.6431 -46.2717L83.6802 -45.5137L86.968 -44.9787L89.926 -45.4837C88.834 -45.7477 87.7401 -46.0107 86.6431 -46.2717ZM92.2131 -47.0927L91.01 -47.3847L93.04 -47.8987L92.2131 -47.0927ZM95.1631 -46.3747L94.623 -46.5066L96.0532 -47.8897C96.9872 -47.5927 97.9191 -47.2957 98.8481 -46.9977L95.1631 -46.3747ZM95.0862 -44.2287L93.3232 -43.9297L95.4302 -43.5777L97.1482 -43.7227C96.4622 -43.8917 95.7752 -44.0607 95.0862 -44.2287ZM103.67 -44.2707C102.548 -44.5507 101.424 -44.8307 100.296 -45.1097L103.19 -45.5977C104.306 -45.2357 105.42 -44.8727 106.53 -44.5107L105.776 -44.4477L105.756 -44.4457L103.67 -44.2707ZM112.138 -42.1387L109.965 -42.6886L111.641 -42.8287C112.34 -42.5987 113.037 -42.3686 113.732 -42.1366L112.138 -42.1387ZM158.883 -30.2437C157.013 -30.7057 155.136 -31.1737 153.253 -31.6447C155.253 -31.3227 157.247 -31.0067 159.236 -30.6947L158.883 -30.2437ZM133.769 -34.4327C137.394 -33.5027 140.994 -32.5797 144.571 -31.6697C95.777 28.2573 54.5072 97.4933 38.0212 162.163L38.0161 162.181L38.0122 162.199C28.7702 204.723 13.681 234.575 -4.87598 255.299C-8.24036 259.062 -11.8229 262.623 -15.605 265.965C-16.524 256.493 -17.4849 247.025 -18.4878 237.561C0.591208 216.064 16.5662 186.149 27.2822 144.454C45.5032 84.7843 86.128 21.0933 133.769 -34.4327ZM128.501 -35.7857L129.597 -35.5047L131.5 -35.0147C84.01 20.4863 43.5042 84.1154 25.2642 143.863L25.2581 143.885L25.2522 143.908C14.8552 184.374 -0.496796 213.583 -18.7898 234.717C-19.8845 224.468 -21.0113 214.221 -22.1699 203.978C-7.75992 183.808 4.78505 158.438 14.498 126.248C34.294 71.6464 73.8911 13.7184 119.954 -37.2566C122.815 -36.7636 125.664 -36.2717 128.501 -35.7857ZM169.669 -25.4657L170.245 -25.3277L170.213 -25.2857L169.669 -25.4657ZM171.618 -27.1637C168.138 -27.9837 164.64 -28.8287 161.121 -29.6927L161.618 -30.3257C165.345 -29.7507 169.054 -29.1956 172.748 -28.6676L171.618 -27.1637ZM172.476 -24.8027L172.319 -24.5927C175.622 -23.5117 178.903 -22.4516 182.164 -21.4176L182.886 -22.4277C179.411 -23.1979 175.941 -23.9895 172.476 -24.8027ZM184.219 -24.2857C180.759 -25.0483 177.303 -25.833 173.852 -26.6397C174.276 -27.2037 174.702 -27.7676 175.127 -28.3296C178.795 -27.8156 182.447 -27.3267 186.087 -26.8687C185.463 -26.0087 184.84 -25.1487 184.219 -24.2857ZM185.119 -21.9357L184.272 -20.7527C187.44 -19.7568 190.614 -18.7817 193.794 -17.8277C194.246 -18.4947 194.698 -19.1607 195.152 -19.8267C191.802 -20.5039 188.458 -21.2062 185.119 -21.9357ZM196.439 -21.7107C193.126 -22.3757 189.799 -23.0707 186.457 -23.7967C187.127 -24.7237 187.797 -25.6497 188.47 -26.5727C191.966 -26.1449 195.465 -25.7466 198.967 -25.3777C198.121 -24.1578 197.278 -22.9355 196.439 -21.7107ZM197.39 -19.3787C196.895 -18.6537 196.4 -17.9267 195.906 -17.1987C199.119 -16.2477 202.316 -15.3287 205.499 -14.4457C206.149 -15.4607 206.802 -16.4746 207.456 -17.4856C204.095 -18.0834 200.739 -18.7145 197.39 -19.3787ZM208.698 -19.4007C205.354 -19.9883 202.015 -20.6103 198.683 -21.2666C199.572 -22.5586 200.463 -23.8466 201.356 -25.1316C204.858 -24.7796 208.35 -24.4617 211.833 -24.1817C210.783 -22.5915 209.738 -20.9979 208.698 -19.4007ZM44.7012 -57.5807C34.4966 -59.571 24.252 -61.351 13.9741 -62.9197H13.9661L13.9592 -62.9217C-0.910771 -64.9577 -12.6258 -62.5276 -21.6768 -56.0536C-23.7675 -54.5531 -25.7089 -52.8546 -27.4739 -50.9817C-24.2239 -56.7847 -20.2078 -61.3177 -15.3298 -64.5097C-6.78483 -70.1017 4.60604 -71.7036 19.644 -68.5016C29.8507 -66.323 40.0066 -63.9134 50.104 -61.2747C48.2986 -60.0498 46.4977 -58.8185 44.7012 -57.5807ZM-50.5488 -2.18364C-50.2828 -2.57264 -50.0149 -2.95767 -49.7449 -3.33867C-49.8169 -3.02267 -49.8878 -2.70564 -49.9578 -2.38664C-50.2418 -2.06664 -50.5239 -1.74375 -50.8049 -1.41875C-50.7199 -1.67475 -50.6358 -1.92864 -50.5488 -2.18364ZM-52.449 3.93636C-51.9229 3.24962 -51.3866 2.57056 -50.8408 1.89937C-50.9468 2.44937 -51.0508 3.00433 -51.1528 3.56233C-51.7278 4.16833 -52.2959 4.78225 -52.8569 5.40425C-52.7219 4.91225 -52.588 4.42236 -52.449 3.93636ZM-54.0239 9.96333C-53.2979 9.08933 -52.5608 8.23126 -51.8108 7.38826C-51.9058 7.97526 -51.9988 8.56633 -52.0898 9.16133C-52.8728 9.96133 -53.645 10.7743 -54.408 11.5983C-54.282 11.0503 -54.1539 10.5043 -54.0239 9.96333ZM-55.3079 15.7453C-54.4242 14.732 -53.5242 13.7332 -52.6079 12.7493C-52.6739 13.2363 -52.7378 13.7243 -52.8018 14.2153C-53.7448 15.1853 -54.6748 16.1663 -55.5918 17.1613C-55.4988 16.6863 -55.4039 16.2153 -55.3079 15.7453ZM-56.3308 21.1123C-55.3131 19.9616 -54.2786 18.8258 -53.2278 17.7053C-53.2468 17.8633 -53.265 18.0224 -53.282 18.1814L-53.3179 18.4963C-54.3849 19.6413 -55.438 20.7964 -56.48 21.9624L-56.3308 21.1123ZM-58.1748 33.4063C-56.8673 31.6491 -55.5519 29.8977 -54.2288 28.1523C-54.5218 31.9153 -54.7579 35.7843 -54.9399 39.7543C-56.4909 42.1253 -58.0319 44.4843 -59.5649 46.8303C-59.1789 42.2103 -58.7178 37.7333 -58.1748 33.4063ZM-59.9048 51.1964C-58.3158 48.7614 -56.7169 46.3134 -55.1079 43.8524C-55.5309 55.5104 -55.5248 68.0004 -55.2078 81.2124C-57.2021 84.5302 -59.2148 87.8368 -61.2458 91.1323C-61.1988 76.9313 -60.7998 63.5774 -59.9048 51.1964ZM-61.25 95.1323C-59.204 91.8363 -57.156 88.4973 -55.106 85.1123C-54.995 89.0593 -54.8568 93.0704 -54.6958 97.1394C-54.3818 105.112 -53.9778 113.316 -53.5078 121.729C-55.8187 125.482 -58.1781 129.205 -60.585 132.896C-60.892 122.851 -61.1109 113.103 -61.2029 103.684C-61.2307 100.834 -61.2465 97.983 -61.25 95.1323ZM-60.47 136.543C-58.0319 132.853 -55.6416 129.131 -53.2998 125.378C-52.6498 136.661 -51.8879 148.311 -51.0669 160.283C-53.6722 164.075 -56.3571 167.812 -59.1199 171.491C-59.6369 159.511 -60.105 147.846 -60.47 136.543ZM-58.9778 174.77C-56.1861 171.113 -53.4716 167.398 -50.8359 163.627C-50.3059 171.317 -49.751 179.136 -49.189 187.071L-48.5488 196.117C-51.4513 199.655 -54.4581 203.106 -57.5649 206.465L-58.0889 194.755L-58.0898 194.727L-58.0918 194.681C-58.3938 187.958 -58.6918 181.317 -58.9778 174.77ZM-57.4338 209.406C-54.3578 206.14 -51.324 202.726 -48.335 199.153C-47.6356 209.037 -46.9565 218.922 -46.2979 228.808C-49.4983 231.888 -52.8139 234.846 -56.2378 237.675C-56.6168 228.123 -57.0228 218.693 -57.4338 209.406ZM-56.1338 240.307C-52.7438 237.557 -49.4029 234.639 -46.1179 231.54C-45.5419 240.32 -44.9839 249.208 -44.4609 258.185C-48.0009 260.715 -51.601 263.045 -55.251 265.193C-55.515 256.817 -55.8128 248.517 -56.1338 240.307ZM-55.1768 267.582C-51.4574 265.434 -47.8341 263.124 -44.3169 260.659C-43.8636 268.535 -43.4463 276.413 -43.0649 284.293C-46.8549 286.145 -50.7069 287.793 -54.6089 289.254C-54.7659 281.98 -54.9588 274.754 -55.1768 267.582ZM-54.563 291.479C-50.6192 290.029 -46.746 288.392 -42.9568 286.575C-42.6318 293.448 -42.3369 300.363 -42.0779 307.315C-46.0925 308.466 -50.1601 309.424 -54.2668 310.183C-54.3348 303.918 -54.436 297.682 -54.563 291.479ZM-54.2449 312.316C-50.1149 311.559 -46.0288 310.619 -41.9988 309.478C-41.7818 315.463 -41.5928 321.476 -41.4358 327.512C-43.6728 327.759 -45.9259 327.95 -48.1929 328.088C-50.1729 328.209 -52.1638 328.288 -54.1628 328.328C-54.1648 322.973 -54.1929 317.634 -54.2449 312.316ZM-48.0649 330.186C-45.8249 330.05 -43.5968 329.862 -41.3818 329.62C-41.2578 334.6 -41.1559 339.594 -41.0789 344.602C-45.477 344.39 -49.8649 344.002 -54.2319 343.439C-54.1899 339.093 -54.1678 334.757 -54.1638 330.431C-52.1218 330.391 -50.0889 330.31 -48.0649 330.186ZM-54.2529 345.554C-49.8169 346.115 -45.4109 346.506 -41.0479 346.707C-41.0069 349.605 -40.974 352.507 -40.95 355.412C-45.4481 354.518 -49.9148 353.473 -54.3428 352.278C-54.3078 350.034 -54.2779 347.793 -54.2529 345.554ZM-54.3789 354.444C-49.8739 355.643 -45.3878 356.686 -40.9338 357.557C-40.9258 358.747 -40.9188 359.938 -40.9138 361.13C-45.4573 359.6 -49.9578 357.944 -54.4099 356.165L-54.3938 355.297L-54.3789 354.444ZM-33.5718 -35.7017C-33.5138 -35.9107 -33.4548 -36.1187 -33.3948 -36.3257C-31.0418 -39.3297 -28.4429 -41.9517 -25.5789 -44.1777C-17.1209 -50.7507 -6.24476 -53.9477 7.69824 -53.1807C16.7832 -52.3947 25.6992 -51.4607 34.4622 -50.4147C32.7619 -49.2071 31.0661 -47.993 29.375 -46.7726C20.295 -47.1826 11.0891 -47.4817 1.74512 -47.6287H1.69312C-12.1339 -47.1747 -23.2329 -43.0327 -32.0559 -35.6197C-32.7459 -35.0396 -33.4204 -34.4415 -34.0789 -33.8257C-33.9139 -34.4587 -33.7458 -35.0847 -33.5718 -35.7017ZM35.5332 -46.4767C36.9132 -47.5814 38.2967 -48.6813 39.6841 -49.7767C40.4151 -49.6867 41.146 -49.5937 41.874 -49.5007C40.2164 -48.4743 38.5622 -47.4426 36.9111 -46.4057C36.4521 -46.4297 35.9932 -46.4536 35.5332 -46.4756V-46.4767ZM40.5601 -46.2096C42.0988 -47.1685 43.6401 -48.1232 45.1841 -49.0737C46.7381 -48.8707 48.288 -48.6637 49.832 -48.4557C48.256 -47.6217 46.6842 -46.7857 45.1172 -45.9487C43.6012 -46.0387 42.0831 -46.1256 40.5601 -46.2096ZM49.1301 -45.7046C50.5531 -46.4596 51.9802 -47.2136 53.4102 -47.9646L55.0032 -47.7427C54.1362 -46.9947 53.2712 -46.2457 52.4082 -45.4957C51.3172 -45.5667 50.2251 -45.6356 49.1301 -45.7046ZM56.9341 -49.5927L57.1272 -49.5647L58.155 -50.4417C57.864 -50.2917 57.5732 -50.1397 57.2832 -49.9887L56.6101 -49.6387L56.9341 -49.5927ZM57.6882 -47.2776L57.7722 -47.3497L57.832 -47.3417L57.6882 -47.2776ZM58.0061 -45.1216C59.2601 -45.6726 60.5171 -46.2227 61.7761 -46.7717C63.0961 -46.5777 64.4111 -46.3837 65.7231 -46.1877C64.4491 -45.7427 63.176 -45.2957 61.905 -44.8487C60.608 -44.9417 59.3091 -45.0326 58.0061 -45.1216ZM71.8762 -45.2516L70.1782 -45.5137C69.1732 -45.1647 68.168 -44.8157 67.165 -44.4657C68.223 -44.3867 69.2802 -44.3066 70.3352 -44.2256L70.9441 -44.3857L71.8772 -45.2527L71.8762 -45.2516ZM80.5881 -43.8816L78.5852 -44.2017L76.7522 -43.7267L78.7622 -43.5667L80.5881 -43.8816ZM137.221 -36.4317C140.535 -35.8697 143.832 -35.3167 147.113 -34.7757L147.823 -35.6366C144.246 -35.9086 140.655 -36.1937 137.051 -36.4887L137.221 -36.4317ZM117.504 -37.6786L111.992 -38.6287L110.157 -38.7887L110.136 -38.7907L110.08 -38.7947L104.915 -39.2457C60.905 6.93635 22.7862 58.8084 1.71118 108.046C-6.47582 131.257 -15.9179 151.094 -26.2749 168.184L-26.0969 169.732L-26.0959 169.741V169.747L-26.094 169.75V169.753L-26.0928 169.763V169.769L-26.0918 169.773V169.776L-26.0908 169.782C-24.9178 179.938 -23.7209 190.298 -22.5259 200.837C-8.81488 181.165 3.15114 156.585 12.4941 125.613L12.5032 125.586L12.5132 125.558C32.2932 70.9813 71.6832 13.2084 117.504 -37.6786ZM149.513 -34.3816C153.27 -33.7666 157.007 -33.1687 160.726 -32.5907C161.257 -33.2637 161.789 -33.9357 162.321 -34.6067C158.36 -34.8657 154.384 -35.1456 150.391 -35.4436L149.513 -34.3816ZM163.113 -32.2217C166.825 -31.6527 170.519 -31.1057 174.197 -30.5837C175.004 -31.6477 175.813 -32.7098 176.625 -33.7697C172.723 -33.9687 168.807 -34.1947 164.877 -34.4417C164.288 -33.7037 163.7 -32.9637 163.113 -32.2217ZM176.582 -30.2487C180.236 -29.7407 183.875 -29.2597 187.5 -28.8107C188.565 -30.2682 189.635 -31.7222 190.709 -33.1727C189.823 -33.2027 188.936 -33.2327 188.049 -33.2657C185.099 -33.3747 182.142 -33.5007 179.179 -33.6427C178.31 -32.5139 177.445 -31.3825 176.582 -30.2487ZM196.161 -27.7937C197.555 -27.6397 198.948 -27.4907 200.338 -27.3477C201.625 -29.1916 202.919 -31.0303 204.22 -32.8637C200.569 -32.9088 196.917 -32.9855 193.267 -33.0937C192.136 -31.5723 191.01 -30.047 189.89 -28.5177C191.985 -28.2657 194.076 -28.0237 196.161 -27.7937ZM202.734 -27.1067C206.219 -26.7637 209.694 -26.4547 213.16 -26.1867C214.643 -28.4178 216.136 -30.6418 217.64 -32.8587C214.028 -32.8157 210.409 -32.8087 206.781 -32.8377C205.424 -30.9334 204.075 -29.0224 202.734 -27.1067ZM-56.47 353.876L-56.4949 355.325C-60.3003 353.771 -64.0745 352.142 -67.8149 350.437C-64.0614 351.675 -60.2787 352.822 -56.47 353.877V353.876ZM-56.3499 345.276C-56.3739 347.418 -56.4018 349.56 -56.4348 351.706C-60.994 350.43 -65.5159 349.024 -69.9949 347.489C-69.9319 345.971 -69.871 344.453 -69.814 342.937C-65.3536 343.869 -60.8629 344.648 -56.3499 345.276ZM-56.2629 330.458C-56.2679 334.682 -56.2889 338.915 -56.3289 343.158C-60.7729 342.538 -65.2449 341.748 -69.7339 340.808C-69.6029 337.208 -69.4849 333.614 -69.3799 330.028C-64.9809 330.337 -60.6049 330.487 -56.2629 330.458ZM-56.3408 312.684C-56.2908 317.89 -56.2639 323.115 -56.2629 328.357C-60.5829 328.386 -64.9398 328.235 -69.3208 327.926C-69.1938 323.356 -69.088 318.799 -69.001 314.256C-64.7611 313.907 -60.5373 313.383 -56.3408 312.684ZM-56.6479 292.228C-56.5259 298.308 -56.4278 304.418 -56.3628 310.556C-60.5382 311.261 -64.7413 311.791 -68.9609 312.144C-68.8629 306.701 -68.791 301.279 -68.741 295.881L-68.2739 295.761C-64.3513 294.745 -60.4726 293.567 -56.6479 292.228ZM-57.2439 268.755C-57.0319 275.792 -56.8458 282.882 -56.6938 290.015C-60.6481 291.42 -64.6619 292.652 -68.7239 293.705C-68.6719 287.266 -68.6508 280.863 -68.6538 274.5C-64.7729 272.743 -60.9664 270.827 -57.2439 268.755ZM-58.1748 241.938C-57.8628 250.008 -57.5719 258.16 -57.3169 266.385C-61.0139 268.478 -64.7973 270.415 -68.657 272.19C-68.6701 264.685 -68.7118 257.181 -68.782 249.676C-65.1534 247.227 -61.6152 244.646 -58.1748 241.938ZM-59.4468 211.516C-59.0428 220.661 -58.6469 229.94 -58.2769 239.335C-61.6892 242.069 -65.2016 244.676 -68.8069 247.149C-68.8929 238.32 -69.0099 229.59 -69.1389 220.976C-65.8157 217.919 -62.5835 214.765 -59.4468 211.516ZM-60.1868 194.958L-60.1838 195.008V195.032L-60.1809 195.081C-59.9799 199.555 -59.7769 204.067 -59.5759 208.611C-62.6823 211.885 -65.8854 215.066 -69.1809 218.149C-69.2609 212.856 -69.3459 207.609 -69.4299 202.409V202.328C-69.5079 197.515 -69.585 192.744 -69.657 188.018C-66.6857 184.526 -63.7896 180.971 -60.9709 177.354C-60.7169 183.154 -60.4538 189.024 -60.1868 194.958ZM-62.4749 139.554C-62.0989 150.75 -61.6268 162.286 -61.1128 174.115C-63.8996 177.748 -66.7643 181.321 -69.7048 184.83C-69.8808 173.117 -70.025 161.684 -70.085 150.578C-67.4995 146.938 -64.9625 143.263 -62.4749 139.554ZM-63.3428 98.4873C-63.3338 100.215 -63.322 101.954 -63.304 103.704C-63.204 114.079 -62.949 124.844 -62.594 135.952C-65.0477 139.657 -67.5504 143.328 -70.1018 146.966C-70.1498 134.286 -70.0789 122.046 -69.8069 110.316C-69.7949 109.748 -69.7808 109.182 -69.7668 108.616C-67.6268 105.286 -65.4868 101.911 -63.3428 98.4873ZM-62.2559 54.8014C-63.0429 67.1904 -63.3598 80.4784 -63.3528 94.5354C-65.4558 97.9184 -67.558 101.255 -69.657 104.547C-69.214 89.4893 -68.4108 75.3214 -67.0708 62.1924C-65.4758 59.7424 -63.8709 57.2774 -62.2559 54.8014ZM-60.698 36.8164C-61.198 41.2374 -61.6159 45.8013 -61.9619 50.5023C-63.5079 52.8723 -65.0448 55.2293 -66.5718 57.5743C-65.9811 52.3373 -65.2613 47.1157 -64.4128 41.9143C-63.1848 40.2143 -61.947 38.5144 -60.698 36.8164ZM-59.6938 28.8973L-59.7068 28.9903C-60.7252 30.2395 -61.7353 31.4955 -62.7368 32.7583L-62.6968 32.5693C-61.7084 31.335 -60.7075 30.1109 -59.6938 28.8973ZM-58.981 24.1843C-59.023 24.4403 -59.0638 24.6973 -59.1038 24.9543C-59.9871 25.9794 -60.8612 27.0124 -61.7258 28.0533L-61.5598 27.3264C-60.7118 26.2664 -59.853 25.2193 -58.981 24.1843ZM-58.0928 19.0493C-58.1618 19.4193 -58.2289 19.7903 -58.2969 20.1633C-59.0089 20.9743 -59.7148 21.7933 -60.4128 22.6213L-60.1599 21.6513C-59.4799 20.7733 -58.7918 19.9053 -58.0928 19.0493ZM-57.0398 13.7644L-57.2549 14.7803C-57.7449 15.3483 -58.2318 15.9203 -58.7148 16.4973L-58.4729 15.6964C-57.9999 15.0454 -57.5228 14.4014 -57.0398 13.7644ZM-55.887 8.72835L-55.9048 8.80232L-55.9519 8.99727C-56.1309 9.21327 -56.3088 9.43137 -56.4858 9.64937L-56.469 9.60335C-56.276 9.31035 -56.082 9.01835 -55.887 8.72835ZM-35.0149 -29.9197C-35.2462 -28.8726 -35.4639 -27.8225 -35.668 -26.7697C-27.24 -33.8597 -16.9508 -38.3667 -4.4458 -39.9657L-4.41089 -39.9707L-4.37598 -39.9727C4.33808 -40.5011 13.0586 -40.9198 21.7832 -41.2287C23.3972 -42.4213 25.0155 -43.608 26.6382 -44.7887C18.3412 -45.1462 10.0397 -45.3918 1.73608 -45.5257C-11.6699 -45.0817 -22.2909 -41.0787 -30.7039 -34.0107C-32.2207 -32.7337 -33.6603 -31.3677 -35.0149 -29.9197ZM33.0691 -44.4947C32.0791 -43.6967 31.0941 -42.8967 30.1111 -42.0947C31.3441 -42.8847 32.581 -43.6727 33.822 -44.4577L33.0691 -44.4947ZM37.4651 -44.2717C36.047 -43.3798 34.6313 -42.4841 33.218 -41.5846C34.555 -41.6196 35.8901 -41.6537 37.2231 -41.6847C38.6701 -42.4747 40.1221 -43.2617 41.5771 -44.0477C40.2066 -44.1248 38.8359 -44.1995 37.4651 -44.2717ZM45.5852 -43.8147C44.3252 -43.1407 43.0682 -42.4647 41.8142 -41.7857C43.0422 -41.8117 44.2691 -41.8357 45.4941 -41.8577C46.7769 -42.4353 48.0607 -43.0109 49.3452 -43.5846C48.0952 -43.6626 46.8402 -43.7397 45.5852 -43.8147ZM53.863 -43.2947L52.27 -42.5877L51.9402 -42.2977L51.5471 -41.9546L53.832 -41.9856C54.862 -42.3546 55.894 -42.7217 56.927 -43.0887C55.907 -43.1587 54.886 -43.2267 53.863 -43.2947ZM62.187 -42.7217L60.3091 -42.0586L61.062 -42.0657L62.1892 -42.0757C62.5062 -42.1607 62.8231 -42.2457 63.1411 -42.3287L63.739 -42.4877L64.0991 -42.5827L62.187 -42.7217ZM134.749 -38.7867C132.782 -38.9497 130.809 -39.1156 128.833 -39.2826L128.267 -39.4747L126.62 -40.0317C129.705 -40.0357 132.782 -40.0437 135.852 -40.0557C135.484 -39.6337 135.116 -39.2107 134.749 -38.7867ZM95.4702 -40.0636C97.7257 -39.8705 99.9809 -39.6759 102.236 -39.4797C58.5771 6.54034 20.7741 58.1513 -0.233887 107.25L-0.247803 107.282L-0.258789 107.314C-8.02979 129.35 -16.9319 148.314 -26.6709 164.755C-28.0109 153.155 -29.3128 141.83 -30.5388 130.817C-23.7118 118.327 -17.1998 104.725 -11.0808 89.8474C10.8132 46.3844 46.805 0.967251 88.071 -40.0697C90.5377 -40.0699 93.0036 -40.0678 95.4702 -40.0636ZM149.466 -37.6197C145.444 -37.9227 141.406 -38.2417 137.348 -38.5737C137.783 -39.0737 138.218 -39.5717 138.654 -40.0697C142.984 -40.0937 147.301 -40.1297 151.604 -40.1807C150.89 -39.3307 150.177 -38.4747 149.466 -37.6197ZM163.917 -36.6097C159.974 -36.8617 156.017 -37.1366 152.042 -37.4286C152.819 -38.3606 153.599 -39.2907 154.38 -40.2177C158.601 -40.2757 162.81 -40.3516 167.007 -40.4496C165.973 -39.1727 164.943 -37.8927 163.917 -36.6097ZM178.184 -35.7957C174.296 -35.9877 170.396 -36.2057 166.481 -36.4477C167.573 -37.8078 168.668 -39.1641 169.769 -40.5166C173.9 -40.6213 178.03 -40.7504 182.159 -40.9037C180.827 -39.2065 179.502 -37.5038 178.184 -35.7957ZM192.235 -35.2267C188.404 -35.3469 184.574 -35.4955 180.745 -35.6727C182.128 -37.4584 183.518 -39.238 184.916 -41.0116C188.962 -41.1746 192.998 -41.3646 197.024 -41.5846C195.417 -39.4732 193.821 -37.354 192.235 -35.2267ZM205.705 -34.9496C202.071 -34.9856 198.437 -35.0533 194.803 -35.1526C196.453 -37.3571 198.114 -39.5532 199.786 -41.7406C203.586 -41.9616 207.376 -42.2106 211.16 -42.4906C209.328 -39.9873 207.509 -37.4735 205.705 -34.9496ZM219.085 -34.9797C215.49 -34.9267 211.888 -34.9107 208.277 -34.9297C210.143 -37.5313 212.025 -40.122 213.921 -42.7017C217.651 -42.9934 221.377 -43.3187 225.101 -43.6777C223.077 -40.7914 221.072 -37.8923 219.084 -34.9806L219.085 -34.9797ZM-64.679 27.8343C-64.262 27.2303 -63.842 26.6313 -63.417 26.0363L-63.5 26.3863C-63.9055 26.8964 -64.308 27.4087 -64.7078 27.9233L-64.679 27.8343ZM-66.4988 33.8023C-65.8593 32.9232 -65.2121 32.0498 -64.5569 31.1823L-64.6448 31.6024L-64.6548 31.6523C-65.3028 32.4653 -65.947 33.2833 -66.585 34.1063L-66.5388 33.9453L-66.4988 33.8023ZM-68.0408 39.5023C-67.2178 38.3923 -66.3859 37.2923 -65.5459 36.1993L-65.5828 36.3963C-66.423 37.4845 -67.2572 38.5776 -68.085 39.6754L-68.0408 39.5023ZM-66.4058 41.0843L-66.375 40.8994C-67.3744 42.2239 -68.3647 43.5552 -69.3459 44.8933L-69.4458 45.3313C-68.4373 43.9121 -67.424 42.4965 -66.4058 41.0843ZM-69.1099 61.4724C-68.5714 56.2041 -67.9134 50.9487 -67.136 45.7103C-68.2921 47.332 -69.4418 48.9584 -70.585 50.5893C-71.767 56.3373 -72.805 62.3323 -73.719 68.5593C-72.192 66.2093 -70.6549 63.8464 -69.1099 61.4724ZM-74.4099 73.4834C-72.7924 70.9913 -71.1738 68.4999 -69.554 66.0094C-70.764 79.0994 -71.4738 93.1393 -71.8538 107.979C-74.0648 111.419 -76.274 114.81 -78.481 118.156L-78.4629 117.846L-78.4099 116.955C-77.4889 101.538 -76.2189 86.9954 -74.4099 73.4834ZM-78.7139 122.313C-76.4384 118.888 -74.1826 115.45 -71.9468 111.998C-72.2068 124.144 -72.2599 136.811 -72.1929 149.924C-74.8117 153.601 -77.4798 157.243 -80.1968 160.847C-79.8428 147.532 -79.3809 134.661 -78.7139 122.313ZM-80.2898 164.438C-77.5345 160.827 -74.8284 157.178 -72.1719 153.493C-72.0989 164.463 -71.9489 175.738 -71.7739 187.273C-74.7602 190.764 -77.8214 194.19 -80.9558 197.548C-80.7648 186.256 -80.5588 175.205 -80.2898 164.438ZM-81.0078 200.662C-77.8405 197.316 -74.7455 193.902 -71.7249 190.423C-71.6619 194.465 -71.5968 198.539 -71.5308 202.643L-71.5298 202.681C-71.4378 208.42 -71.3439 214.216 -71.2559 220.066C-74.5766 223.096 -77.9854 226.027 -81.4778 228.856C-81.3638 222.438 -81.26 216.082 -81.158 209.795V209.789L-81.1558 209.673L-81.0078 200.662ZM-81.5259 231.592C-78.0569 228.824 -74.6178 225.918 -71.2148 222.862C-71.0898 231.326 -70.9768 239.897 -70.8948 248.562C-74.5191 250.975 -78.2276 253.259 -82.0129 255.41C-81.9769 253.855 -81.941 252.304 -81.907 250.756C-81.765 244.313 -81.6399 237.923 -81.5269 231.593L-81.5259 231.592ZM-82.0718 257.856C-78.2607 255.724 -74.5251 253.459 -70.8718 251.066C-70.8078 258.362 -70.7658 265.722 -70.7568 273.138C-73.5107 274.357 -76.2979 275.5 -79.115 276.564C-80.282 277.005 -81.453 277.434 -82.625 277.848C-82.413 271.137 -82.2308 264.471 -82.0718 257.856ZM-78.3708 278.529C-75.8069 277.561 -73.2675 276.528 -70.7549 275.433C-70.7529 281.664 -70.7749 287.934 -70.8269 294.237C-74.9524 295.246 -79.1155 296.093 -83.3069 296.778C-83.0799 291.192 -82.878 285.631 -82.698 280.1C-81.2488 279.596 -79.8061 279.072 -78.3708 278.529ZM-83.3948 298.921C-79.1858 298.241 -74.9989 297.408 -70.8469 296.405C-70.8969 301.685 -70.967 306.985 -71.064 312.308C-75.36 312.614 -79.6858 312.754 -84.0278 312.745C-83.7978 308.122 -83.5878 303.513 -83.3948 298.921ZM-84.1338 314.845C-79.7708 314.856 -75.4228 314.72 -71.1038 314.417C-71.1888 318.854 -71.2928 323.304 -71.4158 327.766C-75.8458 327.402 -80.2959 326.879 -84.7559 326.215C-84.5339 322.416 -84.3268 318.625 -84.1338 314.845ZM-84.8809 328.32C-80.4009 328.983 -75.9278 329.505 -71.4758 329.869C-71.5778 333.359 -71.6918 336.856 -71.8188 340.359C-76.3861 339.352 -80.9233 338.214 -85.4248 336.945C-85.2348 334.065 -85.0539 331.19 -84.8809 328.32ZM-85.5688 339.087C-81.0459 340.354 -76.4874 341.49 -71.8989 342.493C-71.9519 343.919 -72.0089 345.345 -72.0669 346.773C-76.6666 345.157 -81.226 343.428 -85.741 341.588C-85.682 340.754 -85.6248 339.92 -85.5688 339.087ZM-36.803 -20.0527C-36.636 -21.1977 -36.459 -22.3257 -36.272 -23.4357L-35.8279 -23.8417C-27.4629 -31.4077 -17.0929 -36.2236 -4.21289 -37.8766C3.51811 -38.3486 11.188 -38.7207 18.801 -39.0137C17.2809 -37.8793 15.765 -36.7392 14.2532 -35.5937C5.99059 -34.5901 -2.26054 -33.4946 -10.4988 -32.3077L-10.542 -32.3017L-10.585 -32.2917C-20.703 -29.9547 -29.371 -25.8107 -36.803 -20.0527ZM18.4072 -36.0947C19.7714 -37.1175 21.1385 -38.1363 22.509 -39.1507L22.8491 -39.1626L23.259 -39.1777C22.089 -38.2047 20.9251 -37.2307 19.7651 -36.2547L18.4072 -36.0947ZM25.5012 -41.3556L25.9092 -41.3687C26.9572 -42.2317 28.0092 -43.0937 29.0642 -43.9537C27.8732 -43.0897 26.6842 -42.2236 25.5012 -41.3556ZM26.0562 -36.9797C27.2952 -37.7847 28.5361 -38.5867 29.7791 -39.3857L33.2041 -39.4817C31.9161 -38.7717 30.6321 -38.0607 29.3521 -37.3477C28.2541 -37.2257 27.1552 -37.1037 26.0562 -36.9797ZM34.7542 -37.9357C35.7624 -38.4909 36.7719 -39.0443 37.7822 -39.5957L40.6462 -39.6597C39.6022 -39.1837 38.56 -38.7067 37.519 -38.2297L34.7542 -37.9357ZM85.0942 -40.0686C83.0652 -40.0676 81.0331 -40.0647 78.9971 -40.0607C75.4691 -39.7527 71.9352 -39.4397 68.3972 -39.1197C30.9602 -3.79268 -1.92091 34.5803 -23.8789 71.6543C-27.2873 78.7686 -30.8404 85.8128 -34.5359 92.7823C-33.4669 103.839 -32.2528 115.314 -30.9458 127.158C-24.6718 115.456 -18.6738 102.785 -13.0088 89.0113L-12.9939 88.9743L-12.9758 88.9383C8.77417 45.7463 44.3202 0.709351 85.0942 -40.0686ZM120.388 -42.1316H121.545L123.074 -43.7967C121.038 -43.6227 119 -43.4496 116.961 -43.2776C118.107 -42.8956 119.249 -42.5136 120.388 -42.1316ZM124.398 -42.1316C128.848 -42.1346 133.28 -42.1447 137.697 -42.1667C138.621 -43.2197 139.547 -44.2687 140.475 -45.3147C135.72 -44.8877 130.955 -44.4727 126.18 -44.0617C125.585 -43.4197 124.991 -42.7766 124.398 -42.1316ZM140.51 -42.1817C144.818 -42.2097 149.112 -42.2497 153.392 -42.3057C154.684 -43.8358 155.982 -45.3607 157.286 -46.8807C152.712 -46.4367 148.128 -46.0087 143.534 -45.5907C142.523 -44.4577 141.515 -43.3207 140.51 -42.1817ZM156.179 -42.3457C160.382 -42.4087 164.572 -42.4907 168.749 -42.5937C170.374 -44.5857 172.009 -46.5697 173.654 -48.5457L172.289 -48.4007C168.305 -47.9777 164.313 -47.5707 160.314 -47.1767C158.929 -45.572 157.551 -43.9617 156.179 -42.3457ZM180.094 -42.9327C181.352 -42.9767 182.609 -43.0234 183.866 -43.0727C185.794 -45.5126 187.736 -47.941 189.692 -50.3577C185.359 -49.8397 181.015 -49.3457 176.662 -48.8707C174.938 -46.8112 173.225 -44.7429 171.523 -42.6657C174.385 -42.7437 177.243 -42.8317 180.093 -42.9327H180.094ZM186.637 -43.1867C190.67 -43.3567 194.692 -43.5547 198.703 -43.7837C200.902 -46.6525 203.119 -49.5066 205.356 -52.3457C201.146 -51.7787 196.924 -51.2377 192.694 -50.7207C190.66 -48.2218 188.641 -45.7103 186.637 -43.1867ZM201.478 -43.9467C205.261 -44.1767 209.034 -44.4337 212.798 -44.7237C215.201 -47.9835 217.628 -51.2255 220.078 -54.4496C216.18 -53.8596 212.273 -53.2947 208.358 -52.7547C206.045 -49.8346 203.751 -46.8985 201.478 -43.9467ZM215.574 -44.9427C219.285 -45.2435 222.993 -45.5782 226.698 -45.9467C229.259 -49.5736 231.848 -53.1804 234.465 -56.7666C230.671 -56.1187 226.873 -55.4994 223.07 -54.9087C220.546 -51.6058 218.048 -48.2836 215.574 -44.9427ZM-87.636 338.5L-87.7769 340.572C-90.7165 339.009 -93.637 337.41 -96.5378 335.776C-93.5748 336.735 -90.606 337.645 -87.636 338.5ZM-86.9678 328C-87.1345 330.786 -87.3096 333.571 -87.4929 336.355C-92.1149 335.012 -96.703 333.555 -101.253 331.985C-101.037 329.802 -100.827 327.622 -100.621 325.444C-96.0738 326.424 -91.5188 327.283 -86.9678 328ZM-86.2378 314.829C-86.4258 318.509 -86.628 322.197 -86.844 325.894C-91.3937 325.17 -95.922 324.317 -100.424 323.338C-100.142 320.294 -99.8699 317.256 -99.6069 314.224C-95.1469 314.561 -90.6868 314.77 -86.2378 314.829ZM-85.5129 299.25C-85.7016 303.744 -85.9078 308.238 -86.1318 312.73C-90.5687 312.67 -95.0024 312.471 -99.4268 312.132C-99.1028 308.323 -98.7928 304.524 -98.4958 300.737C-94.1558 300.384 -89.8239 299.895 -85.5129 299.25ZM-84.825 280.825C-85.003 286.229 -85.2008 291.659 -85.4248 297.113C-89.7086 297.76 -94.0131 298.262 -98.3308 298.618C-97.9668 293.898 -97.6229 289.195 -97.2959 284.513C-93.098 283.427 -88.9386 282.197 -84.825 280.825ZM-84.2029 259.032C-84.3619 265.504 -84.543 272.023 -84.752 278.584C-88.8378 279.967 -92.9702 281.207 -97.1418 282.303C-96.7418 276.489 -96.368 270.707 -96.012 264.961C-93.4728 263.787 -90.9574 262.561 -88.4678 261.285C-87.0371 260.552 -85.6154 259.8 -84.2029 259.032ZM-83.6589 233.275C-83.8008 241.052 -83.9623 248.828 -84.1438 256.603C-85.8903 257.567 -87.6515 258.504 -89.4268 259.414C-91.5547 260.505 -93.7019 261.559 -95.8669 262.574C-95.5839 257.956 -95.3149 253.361 -95.0549 248.794C-94.9119 246.304 -94.773 243.824 -94.636 241.351C-90.9029 238.761 -87.2424 236.068 -83.6589 233.275ZM-83.2539 209.43L-83.2578 209.628L-83.2598 209.81C-83.3718 216.652 -83.4849 223.573 -83.6099 230.564C-87.1594 233.372 -90.7871 236.08 -94.4888 238.684C-94.0828 231.294 -93.6948 223.98 -93.3108 216.754L-93.1008 212.789C-89.7135 209.564 -86.3949 206.267 -83.147 202.901L-83.2419 208.651L-83.252 209.29L-83.2539 209.43ZM-82.4609 167.264C-82.7149 177.864 -82.9109 188.73 -83.0959 199.82C-86.3056 203.193 -89.5871 206.496 -92.938 209.728C-92.367 199.012 -91.7969 188.498 -91.1819 178.22C-88.2257 174.608 -85.3178 170.956 -82.4609 167.264ZM-80.9978 125.737C-81.6128 137.927 -82.0418 150.612 -82.3738 163.713C-85.1874 167.392 -88.0511 171.031 -90.9639 174.631C-90.1579 161.447 -89.268 148.664 -88.2 136.355C-85.803 132.865 -83.4018 129.327 -80.9978 125.737ZM-77.053 77.5614C-78.579 89.9014 -79.6828 103.031 -80.5078 116.829C-80.6032 118.43 -80.6947 120.031 -80.782 121.632C-83.132 125.165 -85.4778 128.647 -87.8198 132.082C-87.5598 129.228 -87.2898 126.401 -87.0078 123.6C-85.6478 110.106 -84.0198 97.2644 -81.9868 85.1814C-80.3518 82.6534 -78.708 80.1144 -77.053 77.5614ZM-73.5718 54.8833C-74.6779 60.8087 -75.631 66.7617 -76.4299 72.7363C-77.9744 75.1162 -79.5176 77.497 -81.0598 79.8784C-79.7698 72.7864 -78.3278 65.9713 -76.7048 59.4563C-75.6661 57.9281 -74.6217 56.4038 -73.5718 54.8833ZM-72.4368 49.1704L-72.5549 49.7393C-73.4175 50.9719 -74.2764 52.2068 -75.1318 53.4443L-74.9309 52.7174C-74.1063 51.5303 -73.2749 50.348 -72.4368 49.1704ZM-71.2969 43.9953V44.0003L-71.3589 44.0843L-71.2969 43.9953ZM-37.2168 -17.0247C-37.3558 -15.9347 -37.4869 -14.8307 -37.6079 -13.7117C-31.4099 -18.2817 -24.479 -21.9397 -16.72 -24.6017L-16.6699 -24.6197L-16.6199 -24.6316C-8.83387 -26.4656 -1.02289 -28.2117 6.80811 -29.8837C8.18022 -30.9496 9.55585 -32.0109 10.9351 -33.0677C3.92506 -32.1927 -3.10478 -31.2527 -10.1548 -30.2337C-20.7018 -27.7907 -29.6378 -23.3237 -37.2168 -17.0247ZM15.071 -33.5767C13.891 -32.6817 12.7152 -31.7846 11.5452 -30.8866L13.7021 -31.3367L14.9851 -32.1967C15.6061 -32.7297 16.2302 -33.2616 16.8552 -33.7926C16.2602 -33.7216 15.665 -33.6497 15.071 -33.5767ZM22.1321 -34.4157C21.1441 -33.7657 20.159 -33.1156 19.176 -32.4646C19.9559 -32.6233 20.736 -32.7813 21.5161 -32.9386C22.5534 -33.5286 23.5917 -34.1166 24.6311 -34.7027C23.7981 -34.6077 22.9651 -34.5127 22.1321 -34.4157ZM30.0061 -35.3057L28.1362 -34.2616L29.5701 -34.5437C30.2364 -34.8559 30.903 -35.1672 31.5701 -35.4777L30.0061 -35.3057ZM45.0361 -39.0037L44.0681 -38.9057L44.6702 -39.1777L44.9502 -39.3057L45.2981 -39.4617L45.729 -39.6567L45.8101 -39.6936L45.0361 -39.0037ZM62.6162 -38.5907C63.4162 -38.6647 64.2152 -38.7387 65.0142 -38.8107C28.2542 -3.87271 -4.01594 33.9804 -25.7109 70.6234L-25.7339 70.6633L-25.7539 70.7033C-28.6959 76.844 -31.7453 82.9326 -34.9009 88.9663C-35.0639 87.2383 -35.2229 85.5213 -35.3789 83.8143C-36.2819 73.8943 -37.0519 64.3413 -37.6499 55.1883L-36.6838 53.4633C-16.0878 23.9243 11.9172 -6.31964 43.5422 -34.8396C44.4884 -35.1017 45.4346 -35.3631 46.3811 -35.6237C51.7891 -36.6337 57.2012 -37.6207 62.6162 -38.5907ZM125.192 -46.0877C120.769 -45.7087 116.335 -45.3347 111.892 -44.9607L110.777 -45.3287C111.377 -45.9447 111.98 -46.5607 112.583 -47.1747L118.895 -48.2317L118.926 -48.2367L128.736 -49.8807C127.55 -48.6204 126.369 -47.3561 125.192 -46.0877ZM142.52 -47.6106C137.797 -47.1826 133.061 -46.7667 128.314 -46.3567C129.596 -47.7284 130.882 -49.0953 132.173 -50.4577C137.263 -51.3137 142.346 -52.1717 147.42 -53.0367C145.778 -51.2357 144.145 -49.427 142.52 -47.6106ZM159.272 -49.1867C154.725 -48.7407 150.166 -48.3097 145.595 -47.8907C147.32 -49.8071 149.053 -51.7148 150.797 -53.6137C155.343 -54.3927 159.883 -55.1767 164.414 -55.9707L165.355 -56.1366C163.314 -53.832 161.286 -51.5154 159.272 -49.1867ZM175.594 -50.8687C171.17 -50.39 166.744 -49.93 162.316 -49.4887C164.426 -51.9136 166.55 -54.3253 168.69 -56.7237C173.377 -57.5517 178.054 -58.3917 182.72 -59.2447C180.325 -56.4695 177.95 -53.6774 175.594 -50.8687ZM191.599 -52.7046C187.275 -52.1803 182.948 -51.679 178.619 -51.2007C181.067 -54.1028 183.537 -56.9868 186.027 -59.8527C190.581 -60.6927 195.123 -61.5477 199.654 -62.4207C196.943 -59.2036 194.258 -55.9648 191.599 -52.7046ZM207.236 -54.7217C203.041 -54.1477 198.835 -53.5997 194.618 -53.0757C197.366 -56.4256 200.142 -59.7527 202.945 -63.0567C207.34 -63.9127 211.723 -64.7847 216.092 -65.6767C213.108 -62.0513 210.156 -58.3995 207.236 -54.7217ZM221.914 -56.8577C218.032 -56.2589 214.146 -55.6866 210.256 -55.1407C213.262 -58.9053 216.302 -62.6425 219.376 -66.3517C223.362 -67.1767 227.336 -68.0187 231.299 -68.8797C228.133 -64.9018 225.005 -60.8943 221.914 -56.8577ZM236.254 -59.2067C232.487 -58.5517 228.711 -57.9267 224.925 -57.3267C228.097 -61.4463 231.308 -65.5351 234.559 -69.5927C238.382 -70.4357 242.193 -71.2966 245.991 -72.1786C242.704 -67.8863 239.458 -63.5622 236.254 -59.2067ZM-80.376 60.7644C-79.75 59.8154 -79.1208 58.8694 -78.4878 57.9254L-78.6538 58.5853C-79.3077 59.5481 -79.9594 60.5126 -80.6089 61.4784L-80.376 60.7644ZM-82.8008 68.5603C-81.8878 67.1764 -80.9705 65.7955 -80.0488 64.4173C-81.5128 70.8253 -82.8178 77.4943 -83.9878 84.4043C-85.5537 86.8261 -87.1185 89.2489 -88.6819 91.6723C-86.9159 83.6373 -84.9698 75.9233 -82.8008 68.5603ZM-89.9109 97.4593C-88.2289 94.8473 -86.5358 92.2223 -84.8328 89.5853C-86.5228 100.329 -87.9129 111.623 -89.0989 123.39C-89.5085 127.466 -89.8911 131.545 -90.2468 135.625C-92.7778 139.308 -95.3068 142.936 -97.8298 146.515C-97.1361 141.089 -96.3928 135.669 -95.5999 130.256C-93.9249 118.856 -92.0569 107.903 -89.9109 97.4593ZM-98.3879 150.939C-95.7979 147.293 -93.205 143.596 -90.606 139.843C-91.616 151.95 -92.464 164.501 -93.24 177.423C-96.294 181.144 -99.3981 184.824 -102.552 188.46C-101.249 175.585 -99.8919 163.054 -98.3879 150.939ZM-102.915 192.071C-99.7106 188.415 -96.5558 184.715 -93.4509 180.973C-94.048 191.263 -94.6162 201.555 -95.1558 211.848C-98.6249 215.133 -102.161 218.346 -105.763 221.485C-104.813 211.511 -103.877 201.697 -102.915 192.071ZM-106.051 224.515C-102.408 221.377 -98.8291 218.165 -95.3169 214.881L-95.4119 216.681V216.683C-95.8229 224.432 -96.24 232.278 -96.678 240.207C-100.481 242.82 -104.35 245.334 -108.283 247.747L-108.195 246.842C-107.472 239.401 -106.757 231.959 -106.051 224.515ZM-98.5688 244.027C-97.9868 243.639 -97.406 243.247 -96.825 242.853C-97.2069 249.762 -97.6098 256.67 -98.0339 263.576C-102.102 265.428 -106.224 267.158 -110.395 268.766C-109.754 262.59 -109.138 256.454 -108.54 250.364C-105.205 248.344 -101.88 246.235 -98.5688 244.027ZM-110.639 271.112C-106.437 269.513 -102.282 267.791 -98.1799 265.95C-98.5289 271.553 -98.8958 277.19 -99.2878 282.855C-103.565 283.929 -107.874 284.873 -112.209 285.685C-111.667 280.805 -111.145 275.946 -110.639 271.112ZM-112.453 287.864C-108.089 287.058 -103.749 286.122 -99.4409 285.057C-99.7609 289.614 -100.097 294.19 -100.452 298.783C-104.892 299.106 -109.337 299.291 -113.776 299.356C-113.321 295.514 -112.88 291.683 -112.453 287.864ZM-114.026 301.459C-109.561 301.397 -105.086 301.219 -100.617 300.899C-100.907 304.577 -101.207 308.266 -101.523 311.964C-106.063 311.579 -110.602 311.063 -115.125 310.436C-114.749 307.436 -114.383 304.445 -114.026 301.459ZM-115.386 312.519C-110.839 313.149 -106.272 313.669 -101.702 314.056C-101.957 316.992 -102.22 319.934 -102.492 322.881C-107.114 321.838 -111.71 320.685 -116.277 319.421C-115.975 317.118 -115.676 314.817 -115.386 312.519ZM-116.556 321.525C-111.956 322.789 -107.329 323.951 -102.69 324.99C-102.887 327.085 -103.088 329.18 -103.295 331.274C-104.173 330.965 -105.05 330.653 -105.927 330.336C-109.593 328.152 -113.23 325.918 -116.837 323.636L-116.556 321.525ZM-38.1619 -7.88066C-38.0799 -8.88066 -37.9929 -9.87271 -37.8999 -10.8527C-31.4839 -15.8447 -24.2519 -19.7887 -16.0859 -22.5977C-9.73193 -24.0928 -3.36493 -25.5325 3.01416 -26.9167C1.83361 -25.987 0.65598 -25.0537 -0.518799 -24.1167C-7.9888 -21.7897 -15.3989 -19.4007 -22.7339 -16.9407L-22.7898 -16.9217L-22.844 -16.8967C-28.2297 -14.394 -33.3596 -11.3745 -38.1619 -7.88066ZM5.03711 -25.8337C5.92711 -26.5327 6.82104 -27.2316 7.71704 -27.9286L9.1001 -28.2227C8.0891 -27.5327 7.08017 -26.8427 6.07617 -26.1517L5.03711 -25.8337ZM14.1501 -28.7077L15.03 -29.4657L15.6992 -29.6047L15.2202 -29.3277L14.8782 -29.1297L14.1501 -28.7077ZM108.555 -46.0586C108.259 -46.1556 107.963 -46.2537 107.666 -46.3497L109.067 -46.5846L108.555 -46.0586ZM103.348 -47.7557L111.562 -49.1357C113.046 -50.6445 114.536 -52.1472 116.032 -53.6437C110.208 -52.2056 104.387 -50.7557 98.5691 -49.2937C100.169 -48.7827 101.761 -48.2697 103.348 -47.7557ZM118.631 -50.3197L118.641 -50.3207L118.652 -50.3227C122.816 -51.0197 126.977 -51.7167 131.132 -52.4147C133.186 -54.577 135.252 -56.7273 137.33 -58.8656C131.549 -57.4567 125.769 -56.0414 119.991 -54.6197C118.354 -52.9963 116.724 -51.3657 115.101 -49.7277L118.601 -50.3136L118.631 -50.3197ZM134.59 -52.9966C139.647 -53.8466 144.696 -54.7027 149.735 -55.5647C152.26 -58.3086 154.805 -61.0339 157.369 -63.7406L156.543 -63.5407L153.972 -62.9157L153.965 -62.9137L153.959 -62.9117L153.952 -62.9107L153.945 -62.9087L153.938 -62.9067C149.692 -61.8747 145.44 -60.8417 141.185 -59.8057C138.973 -57.5492 136.774 -55.2801 134.59 -52.9966ZM164.05 -58.0417C165.237 -58.2487 166.422 -58.4577 167.607 -58.6667C170.526 -61.9326 173.473 -65.1734 176.447 -68.3887C171.357 -67.1447 166.255 -65.9017 161.143 -64.6587C158.452 -61.8422 155.782 -59.005 153.134 -56.1476C156.779 -56.7736 160.417 -57.4047 164.05 -58.0417ZM170.964 -59.2616C175.629 -60.0916 180.282 -60.9317 184.924 -61.7867C188.177 -65.523 191.465 -69.2278 194.789 -72.9007C189.914 -71.6933 185.038 -70.4923 180.16 -69.2977C177.065 -65.9796 174 -62.6341 170.964 -59.2616ZM188.253 -62.4017C192.788 -63.2467 197.311 -64.1047 201.821 -64.9797C205.357 -69.1394 208.936 -73.2617 212.559 -77.3457C207.86 -76.1583 203.159 -74.9799 198.456 -73.8107C195.017 -70.0422 191.616 -66.2382 188.253 -62.4017ZM205.135 -65.6277C209.513 -66.4877 213.878 -67.3646 218.229 -68.2616C221.992 -72.7931 225.806 -77.2824 229.67 -81.7287C225.182 -80.5633 220.69 -79.4097 216.196 -78.2677L215.316 -77.2817C211.884 -73.4311 208.491 -69.5463 205.136 -65.6277H205.135ZM221.537 -68.9487C225.498 -69.7767 229.447 -70.6217 233.383 -71.4867C237.253 -76.3072 241.18 -81.0825 245.161 -85.8117C241.205 -84.7528 237.245 -83.7055 233.282 -82.6697C229.314 -78.1425 225.398 -73.5678 221.537 -68.9487ZM236.667 -72.2137C240.463 -73.0597 244.246 -73.9236 248.016 -74.8086C251.919 -79.8609 255.881 -84.867 259.902 -89.8257C256.179 -88.7945 252.453 -87.7758 248.723 -86.7697C244.645 -81.9669 240.627 -77.1145 236.667 -72.2137ZM-117.165 326.049L-116.58 326.283L-117.148 325.925L-117.165 326.049ZM-119.101 324.689L-119.175 325.236C-121.163 324.426 -123.145 323.599 -125.117 322.756C-127.741 321.325 -130.352 319.87 -132.949 318.389L-132.644 316.675C-131.794 316.953 -130.944 317.227 -130.092 317.499C-126.459 319.942 -122.795 322.339 -119.101 324.689ZM-118.684 321.585L-118.792 322.394C-120.193 321.499 -121.59 320.597 -122.982 319.688C-121.524 320.12 -120.064 320.543 -118.6 320.955L-118.684 321.585ZM-117.468 312.224C-117.748 314.429 -118.032 316.638 -118.322 318.851C-121.954 317.822 -125.57 316.734 -129.168 315.587C-130.149 314.927 -131.128 314.264 -132.102 313.599C-131.883 312.349 -131.666 311.099 -131.45 309.852C-126.824 310.74 -122.157 311.539 -117.468 312.224ZM-116.145 301.479C-116.49 304.359 -116.843 307.247 -117.205 310.139C-121.852 309.457 -126.483 308.67 -131.095 307.78C-130.719 305.587 -130.349 303.397 -129.985 301.21C-125.395 301.406 -120.777 301.504 -116.145 301.479ZM-114.611 288.254C-115.027 291.951 -115.455 295.66 -115.895 299.378C-120.492 299.408 -125.078 299.315 -129.638 299.123C-129.148 296.17 -128.668 293.223 -128.196 290.284C-123.682 289.722 -119.148 289.054 -114.611 288.254ZM-112.84 271.939C-113.334 276.655 -113.844 281.369 -114.368 286.081C-118.868 286.886 -123.368 287.56 -127.851 288.127C-127.227 284.217 -126.617 280.321 -126.019 276.439C-121.588 275.05 -117.195 273.55 -112.84 271.939ZM-110.784 251.711C-111.371 257.677 -111.975 263.642 -112.595 269.604C-116.912 271.221 -121.269 272.728 -125.663 274.122C-124.881 269.009 -124.111 263.893 -123.355 258.775C-119.111 256.518 -114.919 254.162 -110.784 251.711ZM-108.35 226.48C-108.987 233.2 -109.633 239.92 -110.286 246.638L-110.445 248.258L-110.529 249.11C-114.621 251.566 -118.77 253.925 -122.973 256.185C-122.416 252.408 -121.867 248.647 -121.324 244.905C-120.892 241.927 -120.464 238.961 -120.038 236.007C-116.082 232.906 -112.185 229.73 -108.35 226.48ZM-105.296 194.771C-106.219 204.086 -107.121 213.568 -108.037 223.192L-108.038 223.205L-108.064 223.475C-111.849 226.718 -115.695 229.887 -119.602 232.982L-119.129 229.698L-119.126 229.676V229.674C-117.986 221.758 -116.859 213.934 -115.726 206.217C-112.2 202.447 -108.723 198.632 -105.296 194.771ZM-100.946 154.525C-102.379 166.391 -103.682 178.636 -104.94 191.197C-108.306 195.027 -111.721 198.812 -115.186 202.552C-113.358 190.197 -111.505 178.123 -109.541 166.388C-106.682 162.49 -103.817 158.538 -100.946 154.525ZM-93.0178 102.285C-94.7418 111.182 -96.2779 120.417 -97.6799 129.951C-98.6638 136.677 -99.5738 143.413 -100.41 150.158C-103.17 154.041 -105.953 157.908 -108.758 161.758C-107.345 153.46 -105.819 145.182 -104.181 136.925C-102.377 127.878 -100.453 119.097 -98.3638 110.61C-96.5938 107.848 -94.8108 105.073 -93.0178 102.285ZM-86.647 74.4503C-88.57 81.5663 -90.3069 88.9754 -91.8909 96.6504C-93.5149 99.1714 -95.1289 101.68 -96.7349 104.18C-94.3579 95.0713 -91.7698 86.3243 -88.9148 77.9763C-88.1617 76.7991 -87.4059 75.6237 -86.647 74.4503ZM-84.6438 67.3823L-84.699 67.5693L-84.7288 67.6673L-85.7788 69.2654L-85.7048 69.0703C-85.3518 68.5063 -84.9988 67.9443 -84.6438 67.3823ZM-38.3708 -5.10466C-38.4248 -4.32466 -38.4759 -3.53863 -38.5229 -2.74663C-35.4427 -5.05001 -32.2473 -7.19512 -28.949 -9.17363L-28.8938 -9.20671L-28.8359 -9.23271C-21.8155 -12.3544 -14.7575 -15.3913 -7.66382 -18.3427C-6.78382 -19.0627 -5.90092 -19.7827 -5.01392 -20.5027C-10.6947 -18.7052 -16.3601 -16.8597 -22.0098 -14.9667C-27.7994 -12.2719 -33.2843 -8.96576 -38.3708 -5.10466ZM30.3442 -31.1257C33.2322 -31.9517 36.1271 -32.7707 39.0281 -33.5827C8.84008 -6.04269 -17.9148 23.0333 -37.8818 51.5103C-38.4918 41.5193 -38.8878 32.0213 -39.0168 23.0633C-26.1858 8.67731 -11.629 -5.74272 4.13501 -19.8937C7.60701 -21.6337 11.1082 -23.3646 14.6372 -25.0846C19.8596 -27.1327 25.0954 -29.1464 30.3442 -31.1257ZM96.082 -50.8357L95.3972 -50.6626L94.7642 -50.5027C93.0462 -51.0457 91.3202 -51.5867 89.5862 -52.1257C93.6012 -53.4707 97.6231 -54.8057 101.652 -56.1297C99.7865 -54.3744 97.9298 -52.6098 96.082 -50.8357ZM118.925 -56.5217C112.685 -54.9847 106.445 -53.4367 100.211 -51.8737C102.259 -53.8208 104.318 -55.7565 106.387 -57.6807C113.204 -59.9047 120.035 -62.1007 126.869 -64.2707C124.202 -61.7069 121.554 -59.1238 118.925 -56.5217ZM140.105 -61.7057C134.375 -60.3104 128.645 -58.9097 122.917 -57.5037C125.729 -60.2608 128.562 -62.9962 131.416 -65.7096C137.565 -67.6494 143.719 -69.5714 149.879 -71.4756C146.592 -68.2485 143.333 -64.9918 140.105 -61.7057ZM160.049 -66.5557L156.046 -65.5827L153.433 -64.9477L153.392 -64.9377L143.992 -62.6517C147.388 -66.0782 150.817 -69.4723 154.277 -72.8337C159.934 -74.5749 165.594 -76.3045 171.257 -78.0226C167.481 -74.2398 163.745 -70.4173 160.049 -66.5557ZM179.052 -71.1907C173.999 -69.9527 168.932 -68.7177 163.854 -67.4817C167.728 -71.4937 171.624 -75.4416 175.536 -79.3186C180.84 -80.9236 186.127 -82.5137 191.395 -84.0907C187.23 -79.8396 183.115 -75.5393 179.052 -71.1907ZM197.332 -75.6977C192.502 -74.4977 187.656 -73.3017 182.796 -72.1077C187.002 -76.5713 191.263 -80.983 195.577 -85.3417C200.597 -86.8417 205.596 -88.3306 210.57 -89.8086C206.096 -85.1628 201.683 -80.4588 197.332 -75.6977ZM215.057 -80.1476C210.385 -78.9612 205.71 -77.7846 201.032 -76.6177C205.515 -81.4819 210.063 -86.2853 214.675 -91.0267C219.472 -92.4507 224.245 -93.8647 228.988 -95.2687C224.275 -90.2928 219.631 -85.2516 215.058 -80.1467L215.057 -80.1476ZM232.127 -84.5407C227.663 -83.3752 223.196 -82.2219 218.725 -81.0807C223.42 -86.2771 228.188 -91.406 233.03 -96.4657L233.184 -96.5107L233.187 -96.5116L233.208 -96.5187L233.244 -96.5287L233.286 -96.5407L246.521 -100.461C241.646 -95.2243 236.848 -89.917 232.127 -84.5407ZM247.545 -88.6287C243.639 -87.5757 239.714 -86.5317 235.772 -85.4957C240.602 -90.9518 245.514 -96.3348 250.506 -101.643C254.333 -102.779 258.136 -103.909 261.912 -105.033C257.043 -99.6352 252.254 -94.1666 247.545 -88.6287ZM262.201 -92.6467C258.517 -91.6185 254.83 -90.6031 251.139 -89.6006C255.943 -95.2049 260.83 -100.736 265.801 -106.193C269.311 -107.241 272.799 -108.284 276.26 -109.323C271.494 -103.832 266.807 -98.2723 262.201 -92.6467ZM-95.1338 87.8584C-94.5933 86.9864 -94.0513 86.1154 -93.5078 85.2453C-95.9768 93.1193 -98.234 101.305 -100.323 109.77C-102.049 112.462 -103.772 115.154 -105.495 117.847C-102.309 107.447 -98.8828 97.4344 -95.1338 87.8584ZM-107.684 125.18C-105.732 122.12 -103.777 119.061 -101.82 116.004C-103.406 122.816 -104.881 129.654 -106.243 136.514C-108.12 145.928 -109.867 155.619 -111.533 165.551C-114.674 169.829 -117.84 174.088 -121.03 178.329C-118.392 166.436 -115.66 154.846 -112.744 143.612C-111.147 137.444 -109.46 131.299 -107.684 125.18ZM-122.114 183.255C-118.848 178.939 -115.574 174.565 -112.291 170.122C-114.167 181.547 -115.948 193.279 -117.71 205.262C-121.504 209.308 -125.346 213.307 -129.238 217.259C-126.886 205.699 -124.535 194.349 -122.114 183.255ZM-130.003 221.028C-126.035 217.031 -122.114 212.986 -118.243 208.894C-119.229 215.647 -120.213 222.478 -121.206 229.376L-121.207 229.382L-121.21 229.404L-121.997 234.867C-126.187 238.137 -130.433 241.336 -134.731 244.462L-134.434 242.989L-133.679 239.245L-133.013 235.938L-132.983 235.793L-132.979 235.769L-132.976 235.758L-132.966 235.702C-131.973 230.776 -130.986 225.884 -130.003 221.028ZM-135.348 247.515C-130.989 244.372 -126.683 241.158 -122.431 237.872C-122.753 240.109 -123.078 242.352 -123.405 244.602C-124.021 248.852 -124.645 253.124 -125.279 257.416C-129.722 259.762 -134.212 262.02 -138.744 264.189C-137.594 258.596 -136.464 253.037 -135.348 247.515ZM-139.277 266.772C-134.695 264.6 -130.155 262.339 -125.66 259.992C-126.39 264.91 -127.135 269.855 -127.897 274.824C-132.499 276.245 -137.129 277.57 -141.785 278.8C-140.936 274.775 -140.101 270.765 -139.277 266.772ZM-142.272 281.102C-137.573 279.874 -132.899 278.55 -128.253 277.132C-128.833 280.888 -129.422 284.641 -130.022 288.393C-134.713 288.948 -139.415 289.406 -144.125 289.768C-143.5 286.872 -142.882 283.984 -142.272 281.102ZM-144.59 291.912C-139.886 291.552 -135.14 291.107 -130.367 290.547C-130.821 293.367 -131.283 296.194 -131.752 299.027C-136.517 298.794 -141.25 298.457 -145.932 298.045C-145.481 295.997 -145.032 293.954 -144.59 291.912ZM-146.39 300.116C-141.676 300.533 -136.906 300.876 -132.1 301.113C-132.448 303.198 -132.8 305.286 -133.158 307.377C-136.91 306.631 -140.651 305.828 -144.38 304.97C-145.27 304.326 -146.158 303.68 -147.041 303.034C-146.823 302.061 -146.605 301.088 -146.39 300.116ZM-140.005 308.101C-137.852 308.568 -135.687 309.018 -133.515 309.449C-133.677 310.396 -133.842 311.344 -134.007 312.292C-136.015 310.909 -138.015 309.511 -140.005 308.101ZM-140.419 314.045C-138.509 314.713 -136.589 315.368 -134.661 316.01L-134.798 316.788L-134.886 317.28C-136.737 316.214 -138.581 315.135 -140.419 314.045ZM-38.7419 1.44637C-38.7209 0.965365 -38.6978 0.486354 -38.6738 0.00935364C-35.2367 -2.64775 -31.6469 -5.1013 -27.9229 -7.33867C-23.0512 -9.50539 -18.1611 -11.6302 -13.2529 -13.7127L-14.5039 -12.6626C-21.3599 -9.04155 -28.1629 -5.32125 -34.9109 -1.50273L-34.969 -1.46965L-35.022 -1.42973C-36.28 -0.487733 -37.5199 0.470365 -38.7419 1.44637ZM82.2542 -51.8716L82.7312 -52.0337L82.509 -52.1017L82.2542 -51.8716ZM86.1492 -53.1877C92.5209 -55.3317 98.9024 -57.4472 105.293 -59.5337C108.738 -62.7337 112.209 -65.8977 115.7 -69.0247C107.089 -65.6521 98.5059 -62.2077 89.9521 -58.6917C88.0742 -57.0507 86.2041 -55.4008 84.342 -53.7417L86.1492 -53.1877ZM110.078 -61.0907C116.818 -63.2767 123.568 -65.4347 130.319 -67.5667C134.582 -71.6139 138.891 -75.6119 143.246 -79.5597C135.925 -76.8266 128.621 -74.0472 121.334 -71.2217C117.549 -67.8814 113.797 -64.5042 110.078 -61.0907ZM134.914 -69.0137C140.996 -70.9239 147.083 -72.8172 153.176 -74.6936C158.011 -79.3842 162.91 -84.0093 167.87 -88.5677C161.434 -86.2611 155.009 -83.9214 148.597 -81.5486C144.01 -77.4486 139.445 -73.2687 134.914 -69.0137ZM157.62 -76.0607C163.22 -77.7781 168.824 -79.4847 174.43 -81.1807C179.664 -86.361 184.975 -91.4625 190.362 -96.4837C184.563 -94.4792 178.772 -92.4495 172.99 -90.3947L171.826 -89.3377C167.033 -84.9741 162.297 -80.5481 157.62 -76.0607ZM178.753 -82.4877C183.988 -84.0663 189.224 -85.6383 194.463 -87.2037C199.965 -92.7543 205.557 -98.2144 211.238 -103.582C205.915 -101.802 200.599 -100.001 195.29 -98.1807C189.695 -93.0374 184.182 -87.8057 178.753 -82.4877ZM198.689 -88.4657C203.667 -89.9517 208.623 -91.4257 213.553 -92.8877C219.22 -98.7058 224.987 -104.424 230.853 -110.041C225.897 -108.434 220.948 -106.81 216.003 -105.169C210.137 -99.7002 204.365 -94.1317 198.689 -88.4657ZM217.7 -94.1187C222.46 -95.5297 227.196 -96.9316 231.9 -98.3246C237.755 -104.432 243.616 -110.325 249.455 -115.985C244.79 -114.516 240.13 -113.032 235.475 -111.534C229.445 -105.837 223.519 -100.031 217.7 -94.1187ZM235.985 -99.5337C240.475 -100.864 244.937 -102.185 249.367 -103.499C255.085 -109.571 260.917 -115.535 266.86 -121.388C262.553 -120.069 258.25 -118.738 253.95 -117.395C247.849 -111.555 241.86 -105.601 235.985 -99.5337ZM253.395 -104.694C257.169 -105.816 260.919 -106.931 264.642 -108.042C270.134 -114.062 275.735 -119.981 281.442 -125.797C278.072 -124.79 274.667 -123.765 271.23 -122.72C265.168 -116.827 259.223 -110.818 253.395 -104.694ZM268.571 -109.214C272.025 -110.248 275.455 -111.276 278.859 -112.301C284.025 -118.189 289.291 -123.989 294.655 -129.698C291.644 -128.819 288.635 -127.934 285.628 -127.042C279.831 -121.207 274.145 -115.262 268.571 -109.214ZM-149.003 311.69C-147.936 312.222 -146.864 312.75 -145.788 313.277C-146.837 312.642 -147.884 312.002 -148.928 311.359L-149.003 311.69ZM-150.832 310.26L-150.937 310.721C-152.267 310.051 -153.591 309.379 -154.907 308.701C-153.555 309.225 -152.197 309.745 -150.832 310.26ZM-148.373 308.936C-144.391 310.423 -140.387 311.85 -136.364 313.219C-139.366 311.139 -142.334 309.039 -145.264 306.924C-146.105 306.73 -146.945 306.534 -147.784 306.334C-147.979 307.201 -148.175 308.068 -148.373 308.936ZM-149.828 305.845C-149.991 306.571 -150.156 307.297 -150.321 308.023C-152.334 306.769 -154.338 305.502 -156.335 304.221C-154.17 304.778 -152.001 305.319 -149.828 305.845ZM-148.501 299.923L-148.891 301.674C-149.819 300.989 -150.743 300.304 -151.663 299.616C-150.612 299.722 -149.558 299.824 -148.501 299.923ZM-146.776 292.073C-147.195 293.997 -147.616 295.924 -148.043 297.853C-150.339 297.639 -152.633 297.408 -154.926 297.159C-156.803 295.736 -158.671 294.301 -160.531 292.854C-156.005 292.654 -151.413 292.403 -146.776 292.073ZM-144.546 281.693C-145.127 284.433 -145.716 287.179 -146.311 289.932C-151.309 290.294 -156.259 290.562 -161.139 290.773C-160.623 288.949 -160.109 287.127 -159.599 285.309C-156.85 284.687 -154.104 284.046 -151.364 283.386C-149.087 282.838 -146.814 282.275 -144.546 281.693ZM-141.656 267.894C-142.446 271.714 -143.246 275.548 -144.059 279.396C-146.669 280.072 -149.269 280.719 -151.856 281.343C-154.219 281.912 -156.586 282.467 -158.956 283.007C-158.174 280.211 -157.4 277.423 -156.632 274.641C-151.609 272.46 -146.617 270.211 -141.656 267.894ZM-137.857 249.317C-138.931 254.62 -140.017 259.957 -141.124 265.321C-146.021 267.629 -150.951 269.866 -155.912 272.033C-154.754 267.823 -153.608 263.632 -152.472 259.458C-147.558 256.139 -142.686 252.759 -137.857 249.317ZM-132.694 223.728C-133.469 227.563 -134.247 231.419 -135.027 235.295L-135.041 235.363L-136.494 242.573L-136.91 244.633L-137.04 245.281L-137.243 246.28C-141.992 249.691 -146.785 253.04 -151.622 256.326C-150.321 251.534 -149.032 246.766 -147.75 242.026L-147.502 241.109L-146.435 237.163C-141.81 232.731 -137.23 228.252 -132.694 223.728ZM-125.124 187.22C-127.431 197.932 -129.681 208.868 -131.936 219.989C-136.366 224.442 -140.843 228.848 -145.365 233.208C-142.561 222.856 -139.78 212.643 -136.967 202.596C-132.992 197.492 -129.045 192.366 -125.124 187.22ZM-111.634 131.38C-112.716 135.272 -113.764 139.174 -114.778 143.084C-118.066 155.752 -121.121 168.869 -124.068 182.356C-127.837 187.331 -131.632 192.285 -135.454 197.218C-130.9 181.118 -126.243 165.455 -121.264 150.332C-120.383 147.656 -119.487 144.985 -118.577 142.318C-116.266 138.67 -113.952 135.024 -111.634 131.38ZM-100.933 97.3584C-104.039 106.04 -106.916 115.033 -109.618 124.304C-111.602 127.414 -113.572 130.51 -115.531 133.593C-111.212 121.493 -106.623 109.791 -101.644 98.5433L-101.43 98.1853L-101.243 97.8753L-100.933 97.3584ZM-38.8528 4.24031L-38.8669 4.60725L-38.8738 4.82527C-34.0964 1.50574 -29.2758 -1.75079 -24.4128 -4.94365C-27.5593 -3.21959 -30.6938 -1.47363 -33.8159 0.294266C-35.524 1.57242 -37.2026 2.88812 -38.8528 4.24031ZM81.52 -54.5967L81.988 -54.4567L83.958 -56.2127L80.6882 -54.8477L81.52 -54.5967ZM88.8301 -60.5027C85.0528 -58.9488 81.2818 -57.3798 77.5171 -55.7957C75.6386 -56.3539 73.7584 -56.9059 71.8762 -57.4517C82.1576 -62.6186 92.5092 -67.6443 102.928 -72.5276C98.1821 -68.5745 93.4823 -64.5659 88.8301 -60.5027ZM120.225 -73.0457C111.76 -69.7616 103.322 -66.4097 94.9111 -62.9906C100.054 -67.4106 105.253 -71.7643 110.508 -76.0507C119.717 -80.2967 128.973 -84.4383 138.275 -88.4747C132.18 -83.4243 126.162 -78.2808 120.225 -73.0457ZM147.494 -83.3827C140.314 -80.7237 133.124 -78.0127 125.938 -75.2527C132.286 -80.7666 138.724 -86.1756 145.25 -91.4777C152.792 -94.7017 160.321 -97.8377 167.812 -100.88C160.935 -95.1687 154.162 -89.3351 147.494 -83.3816V-83.3827ZM171.89 -92.2347C165.554 -89.9814 159.23 -87.6967 152.917 -85.3807C159.929 -91.5574 167.061 -97.5976 174.307 -103.498C180.727 -106.066 187.113 -108.563 193.452 -110.984C186.139 -104.88 178.95 -98.6293 171.89 -92.2347ZM194.192 -100.026C188.479 -98.0654 182.774 -96.0807 177.078 -94.0717C184.43 -100.639 191.922 -107.048 199.548 -113.295C205.118 -115.39 210.704 -117.446 216.303 -119.461C208.792 -113.145 201.419 -106.665 194.192 -100.026ZM214.905 -107.02C209.658 -105.277 204.418 -103.515 199.184 -101.733C206.655 -108.502 214.281 -115.097 222.056 -121.513C227.105 -123.301 232.106 -125.031 237.05 -126.704C229.516 -120.315 222.133 -113.752 214.905 -107.02ZM234.378 -113.39C229.535 -111.83 224.65 -110.238 219.73 -108.616C227.155 -115.438 234.746 -122.078 242.495 -128.53C247.099 -130.06 251.649 -131.538 256.14 -132.96C248.73 -126.612 241.474 -120.087 234.378 -113.39ZM252.854 -119.254C248.3 -117.83 243.699 -116.375 239.057 -114.891C246.305 -121.64 253.722 -128.206 261.302 -134.581C265.551 -135.901 269.743 -137.169 273.873 -138.386C266.935 -132.386 259.913 -125.995 252.854 -119.254ZM270.131 -124.584C265.935 -123.307 261.691 -122.004 257.404 -120.672C264.36 -127.233 271.483 -133.614 278.766 -139.811C282.566 -140.906 286.309 -141.954 289.99 -142.954C283.223 -136.991 276.602 -130.866 270.131 -124.584ZM284.517 -128.905C281.229 -127.929 277.907 -126.935 274.552 -125.922C281.083 -132.179 287.771 -138.27 294.608 -144.192C297.285 -144.9 299.928 -145.582 302.535 -146.237C296.403 -140.592 290.395 -134.814 284.517 -128.905ZM297.513 -132.719C294.589 -131.87 291.667 -131.016 288.746 -130.156C307.521 -148.766 325.844 -164.466 342.766 -176.444C346.546 -179.126 350.398 -181.705 354.318 -184.178C336.508 -170.87 317.208 -153.396 297.513 -132.719ZM-128.287 153.753C-122.573 139.993 -116.597 126.563 -110.205 113.502C-113.818 122.561 -117.226 131.871 -120.485 141.402C-123.106 145.54 -125.705 149.655 -128.287 153.752V153.753ZM-132.875 165.003C-129.709 159.953 -126.516 154.88 -123.295 149.777C-128.784 166.46 -133.883 183.792 -138.879 201.629C-143.822 207.973 -148.792 214.295 -153.789 220.596C-146.96 201.596 -140.103 183.036 -132.875 165.003ZM-156.003 226.774C-150.818 220.245 -145.603 213.65 -140.363 206.948C-143.017 216.513 -145.653 226.218 -148.309 236.04C-153.789 241.283 -159.303 246.49 -164.849 251.663L-164.056 249.427L-164.018 249.319C-162.83 245.969 -161.647 242.63 -160.465 239.304C-158.975 235.108 -157.489 230.931 -156.003 226.774ZM-166.38 255.978C-160.682 250.674 -155.013 245.339 -149.373 239.973L-149.531 240.56L-149.774 241.459L-149.776 241.466L-149.788 241.511L-149.797 241.541C-151.283 247.039 -152.779 252.572 -154.292 258.137C-159.951 261.961 -165.57 265.67 -171.125 269.325C-169.532 264.857 -167.951 260.408 -166.38 255.978ZM-172.305 272.63C-166.651 268.913 -160.92 265.143 -155.141 261.258C-156.214 265.195 -157.296 269.148 -158.391 273.114C-163.993 275.546 -169.546 277.886 -175.014 280.187C-174.106 277.662 -173.204 275.143 -172.305 272.63ZM-174.012 282.046C-169.116 279.986 -164.142 277.89 -159.109 275.716C-159.829 278.316 -160.554 280.923 -161.285 283.535C-164.174 284.185 -167.042 284.812 -169.885 285.425C-171.266 284.305 -172.642 283.178 -174.012 282.045V282.046ZM-167.783 287.121C-165.843 286.701 -163.893 286.271 -161.93 285.833C-162.384 287.449 -162.84 289.067 -163.3 290.688C-164.8 289.507 -166.295 288.318 -167.783 287.121ZM-172.74 293.296C-169.845 293.21 -166.915 293.112 -163.955 292.996C-164.239 293.996 -164.525 294.996 -164.812 295.998C-166.462 295.79 -168.102 295.578 -169.731 295.361C-170.736 294.676 -171.739 293.988 -172.74 293.296ZM-162.132 294.271L-162.7 296.261C-161.468 296.411 -160.23 296.559 -158.987 296.703C-160.043 295.893 -161.091 295.083 -162.132 294.271ZM-165.839 297.99L-165.399 298.046L-165.456 298.246L-165.839 297.99ZM-163.565 299.272L-163.621 299.469L-161.967 300.561C-157.876 301.667 -153.772 302.721 -149.655 303.723C-151.689 302.225 -153.713 300.714 -155.727 299.189C-158.249 298.913 -160.769 298.62 -163.287 298.309L-163.357 298.55L-163.514 299.096L-163.565 299.272ZM-168.443 300.961C-167.766 301.151 -167.086 301.341 -166.403 301.53L-166.477 301.783C-167.133 301.51 -167.788 301.236 -168.443 300.961ZM-164.377 302.087L-164.523 302.592C-162.929 303.248 -161.323 303.901 -159.706 304.549C-160.751 303.872 -161.795 303.191 -162.836 302.507L-164.377 302.087ZM-41.094 9.2773L-41.3179 9.46333L-41.0928 9.25435V9.27827L-41.094 9.2773ZM-38.9519 7.51436L-38.95 7.44026L-38.3469 7.01936L-38.9519 7.51436ZM-3.70996 -15.5987C-7.37774 -13.3453 -11.0272 -11.0622 -14.658 -8.74968C-17.8726 -6.36149 -21.0653 -3.9441 -24.2358 -1.49773C-29.2525 2.93049 -34.1867 7.45132 -39.0359 12.0623C-39.0669 14.6423 -39.0718 17.2723 -39.0518 19.9523C-28.3298 8.05635 -16.452 -3.85068 -3.70996 -15.5987ZM73.9321 -60.8337C85.6622 -66.6867 97.4817 -72.359 109.386 -77.8487C118.495 -85.2761 127.767 -92.4993 137.198 -99.5127C123.688 -92.9371 110.314 -86.084 97.0862 -78.9577C89.2605 -73.0552 81.5412 -67.0129 73.9321 -60.8337ZM117.119 -81.3866C126.087 -85.4545 135.099 -89.4244 144.153 -93.2957C145.683 -94.5373 147.218 -95.773 148.757 -97.0027C157.334 -103.858 166.066 -110.517 174.946 -116.975C165.749 -112.941 156.611 -108.774 147.535 -104.475C144.738 -102.459 141.955 -100.424 139.186 -98.3707C131.731 -92.8402 124.374 -87.178 117.119 -81.3866ZM151.26 -96.3097C158.61 -99.4037 165.94 -102.413 173.229 -105.33C183.735 -113.877 194.254 -121.933 204.664 -129.406C197.765 -126.66 190.899 -123.83 184.068 -120.918C172.896 -113.034 161.956 -104.828 151.26 -96.3097ZM179.84 -107.957C186.036 -110.399 192.251 -112.794 198.484 -115.141C208.83 -123.599 219.136 -131.5 229.279 -138.747C223.773 -136.761 218.289 -134.714 212.829 -132.606C201.942 -125.026 190.897 -116.775 179.84 -107.957ZM204.685 -117.457C210.172 -119.489 215.615 -121.462 221.005 -123.371C230.9 -131.518 240.717 -139.08 250.34 -145.962C245.84 -144.505 241.27 -142.967 236.637 -141.354C226.15 -134.089 215.451 -126.088 204.685 -117.457ZM226.85 -125.424C231.77 -127.138 236.641 -128.797 241.456 -130.399C250.692 -138.068 259.824 -145.158 268.754 -151.589C264.817 -150.461 260.893 -149.288 256.983 -148.071C247.133 -141.237 237.045 -133.654 226.85 -125.424ZM246.982 -132.222C251.403 -133.666 255.834 -135.08 260.274 -136.462C268.689 -143.516 276.99 -150.035 285.1 -155.954C281.637 -155.099 278.184 -154.203 274.743 -153.264C265.69 -146.932 256.4 -139.889 246.982 -132.222ZM265.505 -138.072C269.577 -139.313 273.659 -140.525 277.749 -141.706C290.779 -152.754 303.48 -162.389 315.539 -170.349C325.243 -176.755 334.545 -182.085 343.28 -186.195C342.926 -186.215 342.572 -186.233 342.217 -186.247C330.871 -182.012 318.322 -175.493 304.977 -167.007C301.618 -164.868 298.297 -162.668 295.017 -160.41C295.931 -160.607 296.841 -160.8 297.745 -160.988L298.173 -158.93C295.653 -158.407 293.089 -157.843 290.483 -157.24C282.346 -151.461 273.992 -145.049 265.505 -138.072ZM282.698 -143.117C286.325 -144.139 289.959 -145.133 293.6 -146.1C305.297 -156.192 316.69 -165.051 327.542 -172.475C336.572 -178.653 345.242 -183.845 353.412 -187.93C353.178 -187.949 352.944 -187.967 352.708 -187.982C341.739 -183.682 329.608 -177.117 316.696 -168.594C305.822 -161.416 294.411 -152.859 282.698 -143.117ZM305.104 -149.041L305.196 -148.665C317.755 -160.047 329.973 -169.964 341.552 -178.16C344.01 -179.901 346.497 -181.602 349.012 -183.26C342.534 -179.735 335.752 -175.544 328.728 -170.74C318.963 -164.06 308.748 -156.203 298.26 -147.318C300.569 -147.913 302.85 -148.488 305.104 -149.041ZM-179.996 293.939C-178.134 294.205 -176.254 294.47 -174.358 294.733C-175.001 294.287 -175.643 293.842 -176.28 293.397C-177.47 293.429 -178.655 293.461 -179.832 293.491L-179.995 293.938L-179.996 293.939ZM-182.091 293.549L-182.121 293.632L-182.375 293.596L-182.439 293.559L-182.091 293.549ZM-180.859 290.169L-181.315 291.422L-182.62 291.456L-182.965 291.465H-183.006L-183.084 291.467L-183.523 291.479L-184.145 291.495L-184.601 291.507L-185.869 291.539C-186.096 291.405 -186.322 291.271 -186.549 291.137C-184.863 290.773 -183.163 290.409 -181.449 290.044L-181.129 289.976L-180.859 290.168V290.169ZM-178.336 289.382L-178.132 289.338L-178.102 289.331C-175.569 288.793 -173.008 288.249 -170.425 287.692C-169.062 288.794 -167.694 289.889 -166.322 290.978C-169.467 291.091 -172.579 291.186 -175.652 291.272C-176.552 290.641 -177.448 290.012 -178.336 289.382ZM-177.492 287.052C-177.012 285.727 -176.534 284.404 -176.057 283.082C-174.888 284.05 -173.709 285.021 -172.519 285.992C-174.186 286.349 -175.844 286.702 -177.492 287.052ZM-178.618 283.985C-179.048 285.178 -179.481 286.373 -179.915 287.568L-180.662 287.728C-181.507 287.122 -182.348 286.518 -183.182 285.914C-181.67 285.273 -180.148 284.631 -178.618 283.985ZM-175.225 274.549C-175.82 276.212 -176.417 277.877 -177.017 279.544C-177.865 278.833 -178.712 278.119 -179.557 277.402C-178.119 276.453 -176.674 275.502 -175.225 274.549ZM-169.713 259.087C-171.147 263.124 -172.589 267.177 -174.043 271.244C-176.452 272.829 -178.848 274.405 -181.23 275.978C-182.369 275.004 -183.505 274.025 -184.636 273.041C-180.086 268.755 -175.486 264.469 -170.852 260.148L-170.849 260.146L-170.817 260.116L-170.804 260.104L-170.799 260.099L-170.797 260.098L-169.713 259.087ZM-160.053 231.869C-160.85 234.107 -161.648 236.352 -162.446 238.601C-163.641 241.964 -164.837 245.339 -166.038 248.725L-168.184 254.776C-169.49 255.996 -170.794 257.211 -172.096 258.424L-172.1 258.428L-172.11 258.437C-176.829 262.829 -181.536 267.233 -186.231 271.649C-186.801 271.149 -187.366 270.652 -187.928 270.155L-184.884 263.531L-184.455 262.599C-178.251 254.741 -172.028 246.897 -165.785 239.07L-165.784 239.069L-165.673 238.929L-165.545 238.769L-165.39 238.575L-165.38 238.561C-163.607 236.336 -161.832 234.105 -160.053 231.869ZM-139.002 174.797C-145.458 191.386 -151.661 208.388 -157.862 225.732C-161.029 229.719 -164.184 233.682 -167.329 237.63L-167.33 237.631C-171.817 243.267 -176.283 248.875 -180.724 254.481C-172.995 237.677 -165.35 221.127 -157.58 204.791C-151.421 194.772 -145.229 184.774 -139.002 174.797ZM-123.122 136.335C-126.041 142.962 -128.875 149.626 -131.623 156.325C-132.678 158.895 -133.722 161.469 -134.756 164.047C-139.471 171.568 -144.168 179.1 -148.846 186.643C-140.571 169.669 -132.077 152.915 -123.122 136.335ZM63.2202 -59.9147C64.7812 -59.4787 66.336 -59.0407 67.884 -58.5997C73.5482 -63.2713 79.2756 -67.8661 85.0642 -72.3827C77.7335 -68.3136 70.4516 -64.1579 63.2202 -59.9147ZM95.9482 -80.7317C83.9719 -74.2803 72.1202 -67.5997 60.4001 -60.6936C58.7896 -61.1363 57.1777 -61.5737 55.5642 -62.0057C57.2988 -63.3084 59.0385 -64.6045 60.7832 -65.8937C79.4671 -78.2244 98.5784 -89.8946 118.082 -100.883C128.272 -106.627 138.571 -112.177 148.972 -117.529C141.607 -112.846 134.319 -108.041 127.114 -103.116C116.553 -95.8974 106.162 -88.4341 95.9482 -80.7317ZM146.462 -106.293C139.069 -102.79 131.717 -99.2038 124.405 -95.5347C119.044 -92.8443 113.705 -90.1101 108.388 -87.3327C114.955 -92.1139 121.593 -96.7971 128.299 -101.381C142.279 -110.932 156.324 -119.883 170.195 -128.078C180.713 -133.131 191.348 -137.938 202.091 -142.495C183.894 -131.96 165.146 -119.753 146.462 -106.293ZM183.039 -122.765C174.346 -119.055 165.706 -115.223 157.121 -111.271C177.787 -125.674 198.391 -138.446 218.095 -149.018C223.529 -151.148 228.996 -153.191 234.494 -155.148C217.898 -146.03 200.564 -135.105 183.039 -122.765ZM211.837 -134.475C205.335 -131.962 198.862 -129.372 192.421 -126.706C210.951 -139.33 229.158 -150.276 246.376 -159.072L247.062 -159.421C250.432 -160.514 253.815 -161.563 257.212 -162.569L257.104 -162.511C242.604 -154.733 227.376 -145.283 211.837 -134.475ZM235.675 -143.245C230.499 -141.439 225.344 -139.576 220.209 -137.657C233.197 -146.392 245.911 -154.121 258.099 -160.659C261.171 -162.307 264.209 -163.879 267.208 -165.371C269.667 -166.021 272.091 -166.632 274.48 -167.202C272.573 -166.18 270.676 -165.139 268.79 -164.079C258.11 -158.079 247.013 -151.089 235.675 -143.245ZM256.05 -149.982C251.749 -148.64 247.462 -147.252 243.191 -145.818C252.283 -151.899 261.191 -157.399 269.819 -162.246C274.119 -164.661 278.346 -166.912 282.489 -168.99C284.485 -169.404 286.454 -169.786 288.392 -170.137C285.731 -168.679 283.092 -167.182 280.476 -165.647C272.55 -160.997 264.383 -155.755 256.05 -149.982ZM273.838 -155.196C270.221 -154.206 266.541 -153.154 262.804 -152.041C269.173 -156.309 275.43 -160.248 281.54 -163.833C296.065 -172.355 309.735 -178.855 322.077 -182.973H322.147C312.711 -178.934 302.653 -173.628 292.163 -167.213C286.187 -163.56 280.067 -159.545 273.838 -155.196ZM289.605 -159.194C286.359 -158.438 283.121 -157.642 279.894 -156.807C284.283 -159.779 288.739 -162.651 293.259 -165.42C307.129 -173.9 320.179 -180.396 331.973 -184.569C332.186 -184.566 332.4 -184.563 332.612 -184.558C323.557 -180.488 313.912 -175.179 303.85 -168.781C299.023 -165.704 294.273 -162.508 289.605 -159.194ZM-206.901 291.602C-201.339 284.257 -195.717 276.958 -190.036 269.705L-193.856 278.01L-194.294 277.679L-195.565 279.353L-194.885 279.868C-198.928 283.74 -202.934 287.652 -206.901 291.602ZM-193.039 281.26L-194.787 285.05C-193.597 284.24 -192.406 283.433 -191.212 282.628C-191.822 282.173 -192.431 281.717 -193.039 281.26ZM-188.845 272.15L-190.45 275.638C-189.557 274.791 -188.663 273.944 -187.767 273.098L-188.845 272.15ZM-198.01 286.648L-197.878 286.729L-198.176 287.375L-198.421 287.544L-198.854 287.34L-199.346 287.108L-198.538 286.321L-198.01 286.648ZM192.14 -140.488C200.425 -144.14 208.784 -147.621 217.211 -150.93C222.662 -153.857 228.171 -156.672 233.736 -159.376C241.576 -163.179 249.234 -166.591 256.652 -169.571C245.933 -165.864 234.634 -161.27 222.93 -155.898C212.92 -151.304 202.62 -146.144 192.14 -140.488ZM234.276 -157.301C238.251 -158.71 242.245 -160.066 246.256 -161.369C254.559 -165.586 262.645 -169.309 270.436 -172.481C259.164 -168.6 247.16 -163.551 234.654 -157.485L234.276 -157.301ZM259.381 -165.391C261.77 -166.078 264.131 -166.73 266.461 -167.348C272.395 -170.296 278.191 -172.941 283.817 -175.26C276.037 -172.601 267.864 -169.293 259.381 -165.391ZM276.663 -169.871C278.369 -170.261 280.078 -170.635 281.791 -170.992C286.948 -173.572 291.986 -175.893 296.885 -177.936C290.43 -175.75 283.671 -173.048 276.663 -169.871ZM290.818 -172.694L291.009 -171.552C297.454 -174.992 303.709 -177.999 309.727 -180.537C303.393 -178.414 296.734 -175.729 289.805 -172.521C290.144 -172.58 290.481 -172.637 290.818 -172.694ZM117.05 -102.714C134.503 -112.547 152.017 -121.688 169.205 -129.934C187.285 -140.614 205.078 -150.018 222.053 -157.808C228.727 -160.879 235.481 -163.772 242.308 -166.484C204.615 -153.427 160.788 -131.454 117.41 -104.39C109.742 -99.6052 102.149 -94.702 94.634 -89.6817C102.047 -94.1265 109.52 -98.4709 117.05 -102.714ZM-202.922 290.616L-202.839 290.627L-202.799 290.599L-202.879 290.575L-202.922 290.616ZM-201.181 288.903L-200.627 289.075L-200.416 288.928L-200.684 288.802L-200.95 288.676L-201.181 288.903ZM-191.643 279.681C-190.888 280.247 -190.128 280.815 -189.362 281.384C-187.272 279.984 -185.169 278.584 -183.053 277.184C-184.103 276.284 -185.143 275.385 -186.173 274.49C-188.001 276.216 -189.824 277.946 -191.643 279.681ZM-195.468 288.928L-195.778 288.782L-196.214 288.579L-195.879 288.349L-195.579 288.143L-194.788 288.627L-195.039 288.738L-195.469 288.928H-195.468ZM-192.437 287.598L-193.677 286.843C-192.26 285.878 -190.84 284.917 -189.417 283.96C-188.754 284.45 -188.087 284.94 -187.416 285.433C-189.091 286.15 -190.765 286.872 -192.436 287.599L-192.437 287.598ZM-185.167 284.473C-185.967 283.89 -186.765 283.305 -187.562 282.717C-185.516 281.347 -183.456 279.979 -181.383 278.609C-180.264 279.561 -179.141 280.508 -178.015 281.45C-180.4 282.454 -182.784 283.461 -185.166 284.473H-185.167ZM-192.931 290.108L-192.529 290.294L-192.175 290.215L-192.595 289.961L-192.931 290.108ZM-190.232 288.933L-189.19 289.559C-187.29 289.145 -185.374 288.733 -183.44 288.319C-184.108 287.839 -184.774 287.358 -185.44 286.874C-187.039 287.556 -188.637 288.242 -190.232 288.933ZM347.295 -188.015L346.713 -187.759L346.722 -187.829L347.042 -187.933L347.165 -187.973L347.295 -188.015ZM-13.0088 294.38C-13.7508 285.698 -14.5369 277.08 -15.3569 268.537C-11.0898 264.856 -7.06563 260.903 -3.30981 256.701C15.5442 235.644 30.763 205.439 40.062 162.664C56.512 98.1513 97.8331 28.9313 146.714 -30.9727C150.097 -29.8207 153.454 -28.6796 156.787 -27.5536C107.036 36.6054 65.3521 111.146 50.7791 180.459L50.7761 180.473L50.7742 180.487C42.5852 225.463 27.5581 256.149 8.47412 276.537C1.78312 283.685 -5.41579 289.577 -13.0088 294.38ZM-168.437 298.777C-170.925 298.077 -173.385 297.367 -175.812 296.656C-174.055 296.901 -172.282 297.144 -170.496 297.383C-169.813 297.847 -169.126 298.313 -168.437 298.777ZM-12.8098 296.734C-12.1608 304.424 -11.5478 312.164 -10.9788 319.945C0.90224 315.068 11.9632 307.858 21.8252 297.775C41.4352 277.722 56.4021 246.203 63.5371 198.772L63.5391 198.762L63.541 198.752C76.14 124.772 118.213 44.8863 168.892 -23.5077C165.582 -24.5997 162.25 -25.7137 158.896 -26.8427C109.082 37.2723 67.3741 111.762 52.8391 180.877C44.6011 226.116 29.444 257.21 10.009 277.973C2.91703 285.549 -4.73381 291.739 -12.8098 296.734ZM-9.47876 342.289C-9.88876 335.549 -10.3378 328.834 -10.8188 322.149C1.54415 317.172 13.0691 309.734 23.3281 299.244C43.3441 278.777 58.438 246.793 65.614 199.095C78.178 125.339 120.264 45.5233 170.995 -22.8147C174.312 -21.7267 177.608 -20.6597 180.885 -19.6187C129.454 52.9133 87.1701 137.985 76.6191 216.483L76.6182 216.489V216.496C70.5352 266.385 55.6272 298.736 35.4902 318.455C22.4482 331.227 7.15624 338.752 -9.47876 342.289ZM-9.34985 344.41C7.73715 340.83 23.5092 333.13 36.9602 319.957C57.5602 299.786 72.5881 266.912 78.7031 216.757C89.2231 138.501 131.513 53.5143 182.99 -18.9527C186.174 -17.9487 189.365 -16.9654 192.562 -16.0027C141.429 59.9453 100.049 148.82 91.7041 230.652V230.658C86.6751 283.008 71.8241 316.191 51.1621 335.576C34.4981 351.211 13.9442 357.971 -8.56982 358.478C-8.80982 353.778 -9.07085 349.088 -9.34985 344.41ZM-8.05591 369.249C-8.18391 366.355 -8.31987 363.464 -8.46387 360.578C14.4271 360.051 35.4891 353.163 52.6001 337.109C73.7821 317.237 88.7422 283.473 93.7952 230.864C102.115 149.285 143.498 60.5063 194.672 -15.3727C197.902 -14.4127 201.115 -13.4847 204.315 -12.5927C154.033 66.3383 114.125 158.198 108 242.673C104.025 297.484 89.2292 331.5 68.0422 350.553C47.6122 368.926 21.0451 373.559 -8.05591 369.249Z" fill="#8EE0B7"/>
<path d="M242 688.266C242.013 653.708 255.752 620.571 280.195 596.142C304.638 571.713 337.783 557.993 372.341 558C406.899 558.007 440.039 571.739 464.472 596.177C488.906 620.616 502.632 653.758 502.632 688.316C502.632 722.874 488.906 756.016 464.472 780.454C440.039 804.893 406.899 818.625 372.341 818.632C337.783 818.639 304.638 804.919 280.195 780.49C255.752 756.061 242.013 722.924 242 688.366V688.266Z" stroke="#21BF73" stroke-width="0.99618" stroke-linecap="round" stroke-linejoin="round"/>
<path d="M262.387 688.267C262.4 659.116 273.991 631.164 294.611 610.558C315.231 589.952 343.191 578.38 372.342 578.387C401.493 578.393 429.447 589.978 450.058 610.593C470.668 631.208 482.247 659.166 482.247 688.317C482.247 717.468 470.668 745.425 450.058 766.04C429.447 786.655 401.493 798.24 372.342 798.247C343.191 798.253 315.231 786.681 294.611 766.075C273.991 745.47 262.4 717.518 262.387 688.367V688.267Z" stroke="#21BF73" stroke-width="0.99547" stroke-linecap="round" stroke-linejoin="round"/>
<path d="M282.773 688.265C282.787 664.522 292.23 641.755 309.026 624.973C325.822 608.191 348.597 598.767 372.34 598.773C396.084 598.78 418.853 608.217 435.64 625.008C452.427 641.8 461.857 664.572 461.857 688.315C461.857 712.059 452.427 734.831 435.64 751.622C418.853 768.414 396.084 777.851 372.34 777.857C348.597 777.864 325.822 768.44 309.026 751.658C292.23 734.875 282.787 712.109 282.773 688.365V688.265Z" stroke="#21BF73" stroke-width="0.99445" stroke-linecap="round" stroke-linejoin="round"/>
<path d="M299.766 688.265C299.779 669.027 307.432 650.582 321.042 636.985C334.653 623.389 353.106 615.755 372.344 615.762C391.581 615.768 410.029 623.415 423.63 637.021C437.231 650.626 444.872 669.077 444.872 688.315C444.872 707.553 437.231 726.003 423.63 739.609C410.029 753.214 391.581 760.861 372.344 760.868C353.106 760.874 334.653 753.24 321.042 739.644C307.432 726.048 299.779 707.603 299.766 688.365V688.265Z" stroke="#21BF73" stroke-width="0.99316" stroke-linecap="round" stroke-linejoin="round"/>
<path d="M316.75 688.264C316.763 673.532 322.627 659.408 333.051 648.998C343.475 638.588 357.607 632.743 372.339 632.75C387.071 632.757 401.198 638.614 411.613 649.033C422.027 659.453 427.878 673.582 427.878 688.314C427.878 703.046 422.027 717.175 411.613 727.595C401.198 738.014 387.071 743.871 372.339 743.878C357.607 743.885 343.475 738.04 333.051 727.63C322.627 717.22 316.763 703.096 316.75 688.364V688.264Z" stroke="#21BF73" stroke-width="0.99108" stroke-linecap="round" stroke-linejoin="round"/>
<path d="M333.738 688.267C333.752 678.041 337.825 668.238 345.063 661.014C352.301 653.79 362.112 649.736 372.338 649.742C382.565 649.749 392.37 653.816 399.599 661.049C406.828 668.283 410.888 678.091 410.888 688.317C410.888 698.544 406.828 708.352 399.599 715.585C392.37 722.819 382.565 726.886 372.338 726.892C362.112 726.899 352.301 722.844 345.063 715.62C337.825 708.396 333.752 698.594 333.738 688.367V688.267Z" stroke="#21BF73" stroke-width="0.9872" stroke-linecap="round" stroke-linejoin="round"/>
<path d="M350.73 688.267C350.743 682.547 353.027 677.065 357.079 673.027C361.131 668.989 366.62 666.724 372.341 666.73C378.062 666.737 383.546 669.014 387.589 673.062C391.632 677.109 393.903 682.596 393.903 688.316C393.903 694.037 391.632 699.524 387.589 703.571C383.546 707.619 378.062 709.896 372.341 709.902C366.62 709.909 361.131 707.644 357.079 703.606C353.027 699.568 350.743 694.086 350.73 688.365V688.267Z" stroke="#21BF73" stroke-width="0.97736" stroke-linecap="round" stroke-linejoin="round"/>
</g>
<defs>
<clipPath id="clip0_1996_69">
<rect width="412" height="750" fill="white"/>
</clipPath>
</defs>
</svg>
