<svg width="56" height="161" viewBox="0 0 56 161" fill="none" xmlns="http://www.w3.org/2000/svg">
<path d="M30.2096 112.772C29.0096 123.472 30.0096 128.372 30.8096 135.772C31.4096 141.172 31.4096 143.972 31.0096 145.372C30.7096 146.372 30.6096 147.072 30.6096 147.772C30.6096 147.872 30.6096 148.072 30.6096 148.172C30.6096 148.172 30.6096 148.172 30.6096 148.272C30.6096 148.472 30.6096 148.572 30.7096 148.772C30.3096 154.372 30.7096 155.772 31.1096 156.972C31.1096 159.372 34.1096 158.772 34.3096 158.172C34.9096 158.572 35.7096 158.772 36.0096 158.172C36.4096 158.472 37.2096 158.772 37.6096 158.172C38.2096 158.772 38.8096 158.372 39.0096 158.172C39.3096 157.972 39.3096 158.472 39.9096 158.172C39.9096 158.172 40.0096 158.072 40.1096 157.972C40.1096 157.972 40.1096 157.972 40.1096 157.872C40.1096 157.872 40.1096 157.772 40.1096 157.672C40.1096 157.672 40.1096 157.572 40.1096 157.472C40.1096 157.472 40.1096 157.372 40.1096 157.272C40.1096 157.272 40.1096 157.172 40.1096 157.072C39.9096 155.972 39.0096 154.572 38.3096 153.572C37.2096 152.072 35.9096 149.672 36.1096 149.172C36.3096 148.672 36.6096 147.972 36.0096 146.872C35.4096 145.772 37.3096 140.272 38.7096 134.572C42.4096 119.572 40.9096 117.072 40.1096 109.372C40.1096 108.672 40.0096 108.072 40.1096 107.372C40.4096 103.372 43.3096 99.4722 44.1096 95.5722C45.5096 89.0722 47.2095 84.7722 47.0095 75.5722C46.8095 67.1722 43.4096 58.1722 42.9096 54.2722C42.4096 48.2722 42.9096 44.7722 42.6096 40.0722C43.0096 42.6722 44.0096 47.3722 44.4096 49.6722C45.0096 52.6722 44.7096 54.0722 45.3096 57.8722C45.6096 60.0722 46.0096 62.3722 46.6096 64.4722C47.8096 68.5722 49.4096 71.9722 48.9096 73.1722C47.7096 75.4722 47.9096 79.0722 47.7096 80.1722C47.5096 81.2722 46.3095 82.5722 47.5095 82.4722C49.3095 82.3722 49.4096 79.7722 49.4096 79.7722C49.4096 79.7722 49.9096 77.8722 50.6096 78.3722C51.0096 78.6722 51.3095 80.5722 51.5095 81.6722C51.0095 82.3722 50.6096 82.6722 50.6096 82.6722C48.7096 83.7722 49.1096 84.6722 49.7096 84.8722C49.7096 84.8722 49.8096 84.8722 49.9096 84.8722C48.4096 85.8722 48.7096 86.6722 49.3096 86.8722C49.5096 86.8722 49.9096 86.7722 50.3096 86.3722C49.6096 87.7722 49.7096 88.5722 50.3096 88.5722C50.9096 88.5722 50.3096 88.5722 50.4096 88.5722C50.4096 88.5722 50.4095 88.5722 50.5095 88.5722C50.5095 88.5722 50.6096 88.5722 50.7096 88.3722C51.5096 87.4722 52.8096 85.1722 52.8096 85.1722C52.8096 85.1722 53.0096 84.8722 53.9096 83.6722C54.7096 82.6722 55.2096 81.6722 55.6096 79.6722C56.0096 77.6722 55.6095 77.0722 54.5095 74.4722C53.4095 71.8722 54.6096 70.7722 54.7096 68.0722C55.7096 58.5722 52.3096 50.9722 52.1096 49.6722C51.8096 48.3722 51.7096 43.1722 51.7096 40.7722C51.7096 35.5722 50.1096 31.3722 50.1096 31.3722C48.6096 26.7722 41.0096 26.0722 38.9096 25.9722C39.0096 24.0722 39.2096 21.3722 39.4096 19.6722C39.7096 16.8722 41.4096 8.67218 37.6096 3.67218C33.7096 -1.22782 26.2096 -0.72782 24.2096 2.27218C24.0096 2.27218 23.9096 2.27219 23.7096 2.37219C23.7096 2.37219 23.6096 2.37219 23.5096 2.37219C23.5096 2.37219 23.3096 2.37218 23.3096 2.47218C23.3096 2.47218 23.1096 2.57218 23.1096 2.67218C23.1096 2.67218 23.0096 2.67218 22.9096 2.77218C22.9096 2.77218 22.7096 2.87218 22.6096 2.97218C22.6096 2.97218 22.5096 2.97218 22.4096 3.07218C22.4096 3.07218 22.2096 3.27219 22.1096 3.37219C22.1096 3.37219 22.1096 3.37218 22.0096 3.47218C22.0096 3.57218 21.8096 3.67218 21.8096 3.77218C21.8096 3.77218 21.8096 3.77218 21.7096 3.97218C21.7096 4.07218 21.5096 4.17219 21.5096 4.37219C21.5096 4.37219 21.5096 4.47218 21.5096 4.57218C21.5096 4.67218 21.4096 4.77219 21.3096 4.87219V5.07218C21.3096 5.07218 21.3096 5.07218 21.3096 5.17218C20.5096 6.87218 20.1096 9.27219 20.3096 11.8722C20.6096 16.2722 21.1096 21.5722 20.9096 25.9722C18.3096 26.2722 10.1096 26.6722 8.30957 32.0722C8.30957 32.0722 6.80957 36.2722 6.80957 41.4722C6.80957 46.6722 5.80957 49.9722 5.80957 49.9722C5.80957 49.9722 1.40956 59.3722 2.40956 68.8722C2.40956 71.5722 2.40956 72.6722 1.20956 75.2722C0.109561 77.8722 -0.190445 78.4722 0.109555 80.4722C0.509555 82.4722 0.909567 83.4722 1.80957 84.4722C2.60957 85.6722 2.90956 85.9722 2.90956 85.9722C2.90956 85.9722 4.80956 89.4722 5.50956 89.4722C6.00956 89.4722 6.10957 88.8722 5.80957 87.9722C6.00957 88.0722 5.40956 88.1722 5.50956 88.0722C6.00956 87.8722 7.20956 87.0722 5.70956 86.0722C5.70956 86.0722 5.80956 86.0722 5.90956 86.0722C6.50956 85.8722 6.90956 84.9722 5.00956 83.8722C5.00956 83.8722 4.70956 83.5722 4.20956 82.9722C4.20956 82.1722 4.60955 79.5722 5.10955 79.1722C5.70955 78.7722 6.30957 80.5722 6.30957 80.5722C6.30957 80.5722 6.30956 83.1722 8.20956 83.2722C9.40956 83.3722 8.20956 82.0722 8.00956 80.9722C7.80956 79.8722 8.00957 76.2722 6.80957 73.9722C6.30957 72.6722 9.80956 67.9722 10.9096 64.9722C12.0096 61.8722 13.5096 57.1722 13.5096 50.3722C13.5096 49.3722 15.1096 42.2722 15.5096 39.7722C15.3096 40.9722 15.3096 42.1722 15.2096 43.3722C15.1096 45.3722 14.8096 52.9722 14.7096 54.7722C14.2096 60.4722 10.2096 66.7722 9.50956 74.7722C8.90956 81.5722 9.50955 86.3722 11.1096 93.1722C12.2096 97.8722 15.0096 102.772 15.8096 107.572C16.2096 109.972 14.5096 114.372 14.3096 119.172C14.0096 129.672 18.1096 140.472 18.2096 142.472C18.4096 144.472 18.7096 146.072 18.2096 147.272C17.7096 148.472 17.8096 148.972 17.8096 148.972C17.8096 148.972 17.4096 150.872 16.6096 152.272C15.8096 153.672 14.8096 155.972 14.5096 156.772C14.3096 157.172 14.2096 157.472 14.1096 157.772C14.1096 158.172 14.1096 158.572 14.1096 158.872C14.1096 159.072 14.3096 159.272 14.5096 159.372C14.8096 159.472 14.9096 159.372 15.1096 159.372C15.1096 159.372 15.2096 159.372 15.3096 159.372C15.5096 159.472 15.9096 159.772 16.4096 159.672C16.5096 159.672 16.7096 159.572 16.8096 159.472C17.0096 159.772 17.2096 159.772 17.5096 159.772C17.5096 159.772 17.5096 159.772 17.6096 159.772C17.8096 159.772 18.1096 159.672 18.4096 159.472C18.6096 159.872 19.0096 159.972 19.3096 159.872C19.8096 159.872 20.1096 159.472 20.1096 159.472C20.1096 159.572 20.2096 159.672 20.4096 159.772C20.6096 159.972 21.0096 160.172 21.5096 160.072C21.5096 160.072 21.6096 160.072 21.7096 160.072C22.4096 160.072 23.1096 159.572 23.2096 158.472C23.2096 158.372 23.2096 158.272 23.2096 158.172C23.5096 157.272 23.6096 156.372 23.7096 155.372C23.7096 154.372 23.7096 153.372 23.6096 152.472C23.6096 151.872 23.6096 151.172 23.5096 150.572C23.5096 149.972 23.2096 149.272 23.4096 148.772C23.5096 148.372 23.8096 148.072 23.7096 147.672C23.6096 147.172 22.9096 146.672 23.0096 144.872C23.0096 142.272 25.0096 134.072 25.8096 126.772C26.6096 119.472 25.2096 111.672 25.5096 109.672C25.5096 109.472 25.5096 109.372 25.5096 109.172C25.8096 107.172 26.1096 105.272 26.4096 103.272C26.6096 102.472 26.6096 101.672 26.7096 100.772C27.1096 98.6722 28.1096 85.4722 28.3096 79.1722C28.3096 79.1722 27.7096 95.6722 29.8096 106.672C30.2096 108.972 30.6096 109.172 30.1096 113.572L30.2096 112.772Z" fill="white"/>
</svg>
