<svg width="44" height="161" viewBox="0 0 44 161" fill="none" xmlns="http://www.w3.org/2000/svg">
<path d="M32.8125 40.7327C32.4125 44.1328 30.5125 48.3327 30.2125 51.3327C29.8125 54.8327 30.6125 57.0327 31.5125 59.9327C31.8125 60.8327 32.3125 62.1328 32.9125 64.0328C34.1125 68.2328 36.4125 76.2327 34.7125 88.7327V88.9327C34.7125 89.4327 34.5125 90.0328 34.5125 90.5328C31.6125 107.133 30.8125 109.533 31.1125 111.333C31.4125 113.133 33.6125 121.833 29.9125 136.833C28.5125 142.433 28.3125 146.933 28.9125 148.033C29.5125 149.133 29.2125 149.833 29.0125 150.333C28.8125 150.833 30.1125 153.233 31.2125 154.733C31.9125 155.733 32.8125 157.133 33.0125 158.233C33.0125 158.233 33.0125 158.333 33.0125 158.433V158.633C33.0125 158.633 33.0125 158.733 33.0125 158.833C33.0125 158.833 33.0125 158.933 33.0125 159.033V159.133C33.0125 159.133 33.0125 159.233 32.8125 159.333C32.2125 159.733 32.1125 159.333 31.9125 159.333C31.6125 159.533 31.1125 159.933 30.5125 159.333C30.1125 159.933 29.3125 159.633 28.9125 159.333C28.5125 160.033 27.7125 159.833 27.2125 159.333C27.0125 159.933 24.1125 160.533 24.0125 158.133C23.7125 156.933 23.2125 155.533 23.6125 149.933C23.6125 149.733 23.6125 149.633 23.5125 149.433C23.5125 149.433 23.5125 149.433 23.5125 149.333C23.5125 149.233 23.5125 149.033 23.5125 148.933C23.5125 148.233 23.5125 147.533 23.9125 146.533C24.3125 145.133 24.2125 142.333 23.7125 136.933C23.2125 131.533 22.6125 121.033 23.1125 113.933C23.4125 110.033 23.1125 105.333 23.1125 101.533C23.1125 97.6328 22.3125 77.4327 22.3125 77.4327C22.3125 77.4327 22.3125 77.4327 22.1125 77.4327C22.1125 77.4327 22.0125 77.4327 21.9125 77.4327C21.9125 77.4327 21.9125 77.4328 21.9125 77.5328C21.9125 77.5328 21.9125 77.5327 21.9125 77.6327C21.9125 77.6327 21.9125 77.6327 21.9125 77.7327C21.9125 77.7327 21.9125 77.8327 21.9125 77.9327C21.7125 78.9327 20.0125 101.833 18.8125 109.533C18.5125 111.533 19.4125 118.833 18.6125 126.133C17.8125 133.433 16.2125 142.133 16.2125 144.733C16.2125 146.633 16.8125 147.033 16.9125 147.533C17.0125 148.033 16.5125 148.533 16.6125 149.133C16.6125 149.233 16.6125 149.733 16.6125 150.433C16.6125 150.133 16.6125 149.933 16.7125 149.633C16.7125 149.433 16.9125 149.233 16.9125 148.933C16.9125 149.333 16.9125 149.633 16.7125 150.033C17.1125 155.333 16.7125 156.933 16.3125 158.133C16.3125 158.233 16.3125 158.333 16.3125 158.433C16.2125 159.533 15.5125 159.933 14.8125 160.033C14.8125 160.033 14.8125 160.033 14.6125 160.033C14.1125 160.133 13.7125 160.033 13.5125 159.733C13.3125 159.733 13.2125 159.533 13.2125 159.433C13.2125 159.433 12.9125 159.733 12.4125 159.833C12.0125 159.833 11.7125 159.833 11.5125 159.433C11.2125 159.633 10.9125 159.733 10.7125 159.733C10.7125 159.733 10.7125 159.733 10.6125 159.733C10.4125 159.733 10.1125 159.733 9.9125 159.433C9.8125 159.533 9.6125 159.633 9.5125 159.633C9.0125 159.833 8.6125 159.533 8.4125 159.333C8.4125 159.333 8.3125 159.333 8.2125 159.333C8.1125 159.333 7.9125 159.533 7.6125 159.333C7.4125 159.333 7.3125 159.133 7.2125 158.833C7.1125 158.533 7.1125 158.133 7.2125 157.733C7.2125 157.433 7.4125 157.133 7.6125 156.733C8.0125 155.933 8.9125 153.633 9.7125 152.233C10.5125 150.833 10.9125 148.933 10.9125 148.933C10.9125 148.933 10.7125 148.433 11.3125 147.233C11.8125 146.033 11.5125 144.433 11.3125 142.433C11.1125 140.433 9.5125 124.133 9.6125 119.333C9.7125 114.533 11.4125 109.533 11.0125 107.133C9.9125 100.433 9.7125 99.0327 8.7125 90.3327C6.5125 77.6327 7.2125 70.6327 11.7125 59.8327C13.6125 55.2327 13.9125 52.7327 13.0125 48.2327C12.0125 43.5328 11.2125 39.1327 11.2125 39.1327C10.9125 41.6327 9.5125 49.3327 9.5125 50.3327C9.5125 57.2327 8.3125 61.8327 7.3125 64.9327C6.4125 68.0327 5.4125 72.7327 5.8125 73.9327C6.8125 76.2327 6.6125 79.8327 6.8125 80.9327C7.0125 82.0327 8.0125 83.3327 6.9125 83.2327C5.3125 83.1327 5.3125 80.5328 5.3125 80.5328C5.3125 80.5328 4.9125 78.6327 4.3125 79.1327C3.8125 79.5327 3.6125 82.1327 3.5125 82.9327C3.9125 83.5327 4.1125 83.8327 4.1125 83.8327C5.7125 84.9327 5.4125 85.8328 4.9125 86.0328C4.9125 86.0328 4.9125 86.0328 4.7125 86.0328C6.0125 87.0328 5.7125 87.8328 5.2125 88.0328C5.1125 88.0328 4.9125 88.0327 4.8125 87.9327C5.1125 88.8327 5.0125 89.4327 4.6125 89.4327C4.0125 89.4327 2.4125 85.9327 2.4125 85.9327C2.4125 85.9327 2.2125 85.6327 1.5125 84.4327C0.812498 83.4327 0.4125 82.4327 0.1125 80.4327C-0.1875 78.4327 0.112498 77.8327 1.0125 75.2327C1.9125 72.6328 2.3125 71.5327 2.2125 68.8327C1.3125 59.3327 3.9125 49.9327 3.9125 49.9327C3.9125 49.9327 4.7125 43.9327 4.7125 41.4327C4.7125 36.2327 6.0125 32.0328 6.0125 32.0328C7.5125 26.7328 11.2125 26.2327 13.8125 25.9327C14.0125 21.5327 13.5125 16.2327 13.2125 11.8327C13.0125 9.23275 13.4125 6.93274 14.2125 5.13274C14.2125 5.13274 14.2125 5.13275 14.2125 5.03275C14.2125 5.03275 14.2125 4.93275 14.2125 4.83275C14.2125 4.73275 14.3125 4.63275 14.4125 4.53275C14.4125 4.53275 14.4125 4.43275 14.4125 4.33275C14.4125 4.23275 14.6125 4.03275 14.6125 3.93275C14.6125 3.93275 14.6125 3.93275 14.7125 3.73275C14.7125 3.63275 14.9125 3.53275 14.9125 3.43275C14.9125 3.43275 14.9125 3.43275 15.0125 3.33275C15.0125 3.33275 15.2125 3.13275 15.3125 3.03275C15.3125 3.03275 15.4125 3.03275 15.5125 2.93275C15.5125 2.93275 15.7125 2.73275 15.8125 2.73275C15.8125 2.73275 15.9125 2.73274 16.0125 2.63274C16.0125 2.63274 16.2125 2.53275 16.2125 2.43275C16.2125 2.43275 16.4125 2.43275 16.4125 2.33275C16.4125 2.33275 16.5125 2.33275 16.6125 2.33275C16.8125 2.33275 16.9125 2.23275 17.1125 2.23275C19.1125 -0.66725 26.7125 -1.26726 30.5125 3.63274C34.4125 8.53274 32.6125 16.7327 32.3125 19.6327C32.1125 21.3327 32.0125 24.0327 31.8125 25.9327C34.0125 26.0327 37.2125 26.7327 38.5125 31.3327C38.5125 31.3327 39.7125 35.5328 39.7125 40.7327C39.7125 45.9327 39.9125 49.8327 39.9125 49.8327C39.9125 49.8327 42.5125 59.2327 41.6125 68.7327C41.6125 71.4327 41.9125 72.5327 42.8125 75.1327C43.7125 77.7327 44.0125 78.3327 43.7125 80.3327C43.4125 82.3327 43.0125 83.3327 42.3125 84.3327C41.6125 85.5327 41.4125 85.8327 41.4125 85.8327C41.4125 85.8327 40.3125 88.1328 39.6125 89.0328C39.6125 89.0328 39.6125 89.1327 39.5125 89.2327C39.5125 89.2327 39.5125 89.2327 39.4125 89.2327C38.9125 89.2327 38.9125 88.3328 39.4125 87.0328C39.1125 87.3328 38.7125 87.5328 38.5125 87.5328C38.0125 87.3328 37.7125 86.5328 39.0125 85.5328C39.0125 85.5328 38.9125 85.5328 38.8125 85.5328C38.3125 85.3328 38.0125 84.4327 39.6125 83.3327C39.6125 83.3327 39.9125 83.0327 40.3125 82.3327C40.2125 81.2327 40.0125 79.4328 39.6125 79.0328C39.1125 78.6328 38.6125 80.4327 38.6125 80.4327C38.6125 80.4327 38.6125 83.0327 37.0125 83.1327C35.9125 83.2327 37.0125 81.9327 37.1125 80.8327C37.3125 79.7327 37.1125 76.1327 38.1125 73.8327C38.5125 72.5327 37.3125 67.9327 36.6125 64.8327C34.7125 56.2327 34.6125 50.2327 34.5125 49.1327C34.2125 45.1327 33.2125 39.2327 33.2125 39.2327L32.8125 40.7327Z" fill="white"/>
</svg>
