<svg width="47" height="159" viewBox="0 0 47 159" fill="none" xmlns="http://www.w3.org/2000/svg">
<path d="M4.33241 49.5C4.13241 50.3 2.43241 57.1 2.23241 62.5C2.23241 64.5 2.23241 66.4 2.23241 68.4C2.23241 69.6 2.03241 70.6 1.73241 71.6C1.53241 72.4 1.23241 73.2 0.832412 74.1C0.0324122 76.2 -0.167585 76.9 0.132415 78.6C0.432415 80.6 0.832415 81.6 1.63242 82.6C2.33242 83.8 2.53241 84.1 2.53241 84.1C2.53241 84.1 4.23241 87.6 4.83241 87.6C5.03241 87.6 5.03241 87.4 4.83241 87.1C5.13241 87.1 5.03241 86.8 4.83241 86.2C4.93241 86.2 5.13241 86.2 5.23241 86.2C5.73241 86 6.13241 85.2 4.83241 84.3C4.83241 84.3 4.93241 84.3 5.03241 84.3C5.53241 84.1 5.93241 83.2 4.23241 82.1C4.23241 82.1 3.93241 81.8 3.53241 81.2C3.53241 80.4 3.83241 77.8 4.33241 77.4C4.93241 77 5.33241 78.8 5.33241 78.8C5.33241 78.8 5.33241 81.4 7.03241 81.5C8.13241 81.6 7.03241 80.3 6.93241 79.2C6.73241 78.1 6.93241 74.5 5.93241 72.2C5.43241 70.9 7.33241 66.2 8.23241 63.2C9.23241 60.1 10.5324 55.4 10.5324 48.6C10.5324 47.6 12.0324 40.1 12.3324 37.6C12.3324 38 12.3324 39.3 12.6324 41C12.8324 42.5 13.0324 44.7 13.3324 47C13.6324 49.1 13.6324 50.9 13.6324 52.2C13.5324 54.2 12.9324 56.1 11.9324 58.6C10.1324 63.2 8.63242 67.5 8.13242 72C7.53242 77.5 7.83242 82.5 9.13242 89.1C9.13242 89.6 9.33241 90.1 9.33241 90.6C10.3324 97.1 11.3324 99.8 12.3324 105.6C12.7324 107.9 11.1324 112.5 10.9324 117.1C10.9324 117.4 10.9324 117.6 10.9324 117.9C10.8324 124.5 13.2324 138.7 13.3324 140.7C13.5324 142.7 13.8324 144.3 13.3324 145.5C12.8324 146.7 12.9324 147.2 12.9324 147.2C12.9324 147.2 12.5324 149.1 11.7324 150.5C10.9324 151.9 9.93242 154.2 9.63242 155C9.43242 155.4 9.33241 155.7 9.23241 156C9.23241 156.4 9.23241 156.8 9.23241 157.1C9.23241 157.3 9.43242 157.4 9.63242 157.5C9.83242 157.6 9.93242 157.5 10.1324 157.5C10.1324 157.5 10.2324 157.5 10.3324 157.5C10.5324 157.5 10.6324 157.7 10.9324 157.7C10.9324 157.7 11.1324 157.7 11.2324 157.7C11.3324 157.7 11.4324 157.7 11.5324 157.6C11.7324 157.8 11.9324 157.9 12.1324 157.9C12.3324 157.9 12.5324 157.9 12.8324 157.7C13.0324 157.9 13.2324 157.9 13.4324 157.9C13.4324 157.9 13.5324 157.9 13.6324 157.9C13.9324 157.9 14.2324 157.7 14.3324 157.7C14.3324 157.7 14.3324 157.8 14.5324 157.9C14.5324 157.9 14.5324 157.9 14.6324 157.9C14.8324 158 15.1324 158.1 15.5324 157.9C15.5324 157.9 15.5324 157.9 15.6324 157.9C15.7324 157.9 15.8324 157.9 15.9324 157.9C16.4324 157.9 16.8324 157.6 17.0324 157C17.2324 157 17.3324 156.7 17.3324 156.7C17.3324 156.7 17.3324 156.7 17.4324 156.7C17.5324 156.6 17.7324 156.4 17.9324 156.2C18.2324 155.8 18.5324 155.2 18.6324 154.2C18.6324 154.2 18.6324 154 18.6324 153.9C18.7324 152.9 18.7324 151.6 18.6324 150C18.6324 149.6 18.7324 149.3 18.7324 148.9C18.7324 148.9 18.6324 148.8 18.5324 148.7C18.5324 148.7 18.4324 148.7 18.4324 148.6C18.4324 148 18.3324 147.4 18.3324 147.1C18.3324 146.6 18.7324 146.2 18.6324 145.7C18.5324 145.2 17.8324 144.7 17.9324 142.9C17.9324 140.3 19.6324 131.8 20.4324 124.5C21.2324 117.2 20.1324 109.8 20.4324 107.8C20.4324 107.7 20.4324 107.5 20.4324 107.4C20.7324 105.7 20.9324 103.6 21.2324 101.3C21.3324 100.5 21.4324 99.6 21.5324 98.8C22.4324 91.7 23.1324 79.1 23.4324 76.6C23.4324 76.6 23.4324 76.6 23.4324 76.5C23.4324 76.5 23.4324 76.5 23.5324 76.5H23.6324C23.6324 76.9 24.1324 94.5 24.4324 100.4C24.4324 101.7 24.6324 103 24.6324 104.3C24.8324 106.7 24.9324 108.4 24.7324 111.4C24.7324 111.9 24.7324 112.3 24.7324 112.7C24.1324 120.5 24.7324 128.9 25.4324 134.9C25.4324 135.1 25.4324 135.3 25.4324 135.6C25.9324 140.5 26.0324 143.3 25.6324 144.7C25.6324 144.8 25.6324 144.9 25.6324 145C25.3324 145.8 25.2324 146.5 25.3324 147.1C25.3324 147.1 25.3324 147.3 25.3324 147.4C25.3324 147.5 25.3324 147.7 25.3324 147.8C25.3324 147.8 25.3324 147.9 25.3324 148C25.3324 148.2 25.3324 148.3 25.3324 148.5C25.0324 153.7 25.3324 155.2 25.7324 156.4V156.6C25.9324 158.8 28.5324 158.3 28.8324 157.7C29.3324 158.1 30.1324 158.3 30.5324 157.7C30.9324 158 31.7324 158.3 32.1324 157.7C32.7324 158.3 33.3324 157.9 33.5324 157.7C33.7324 157.5 33.8324 158 34.4324 157.7C34.4324 157.7 34.5324 157.6 34.6324 157.5C34.6324 157.5 34.6324 157.5 34.6324 157.4C34.6324 157.4 34.6324 157.3 34.6324 157.2C34.6324 157.2 34.6324 157.1 34.6324 157C34.6324 157 34.6324 156.9 34.6324 156.8C34.6324 156.8 34.6324 156.7 34.6324 156.6C34.4324 155.5 33.5324 154.1 32.8324 153.1C31.7324 151.6 30.4324 149.2 30.6324 148.7C30.8324 148.2 31.1324 147.5 30.5324 146.4C29.9324 145.3 30.7324 140.5 32.0324 134.8C35.7324 119.8 33.8324 113.2 33.3324 109.4C33.3324 108.9 33.3324 108.3 33.3324 107.6C33.5324 105.1 34.9324 101.7 36.1324 95.4C36.5324 93.3 37.0324 91.1 37.4324 88.7C37.4324 88.2 37.6324 87.7 37.7324 87.2V87C38.3324 82.9 38.5324 79 38.4324 75.1C38.2324 69.7 37.0324 65.4 36.2324 62.3C35.7324 60.5 35.2324 59.2 34.9324 58.2C34.5324 56.7 34.1324 55.3 33.9324 54.1C33.7324 52.6 33.6324 51.2 33.7324 49.5C33.9324 46.6 35.0324 43.2 35.3324 40C35.3324 39.8 35.4324 39.7 35.5324 39.6C35.6324 40.5 36.4324 44.9 36.9324 48.1C36.9324 48.6 37.0324 49.1 37.1324 49.5C37.2324 50.6 37.2324 52.7 37.7324 56.2C38.0324 58.2 38.3324 60.4 38.8324 62.7C39.0324 63.5 39.2324 64.3 39.4324 65.2C40.0324 67.6 40.8324 70.1 40.9324 71.8C40.9324 72.7 40.9324 73.6 40.7324 74.2C40.2324 75.7 40.1324 77.5 40.0324 78.8C40.0324 79.8 39.6324 80.8 39.7324 81.2C39.7324 81.3 39.7324 81.5 39.7324 81.6C39.8324 82.2 39.6324 82.6 40.2324 82.3C40.8324 82 41.0324 81.4 41.2324 81C41.4324 80.5 41.5324 79.6 41.6324 79.5C41.6324 79.5 41.7324 79.4 41.8324 79.3C42.0324 79 42.3324 78.5 42.6324 79C42.8324 79.3 43.0324 80.1 43.1324 80.9C43.0324 81.5 42.9324 81.9 42.9324 82.2C42.4324 82.8 42.1324 83.1 42.0324 83.2C41.3324 83.8 41.2324 84.2 41.3324 84.6V84.7C41.3324 85 41.3324 85.2 41.3324 85.3C40.6324 86 40.6324 86.5 40.8324 86.8C40.8324 87 41.0324 87 41.2324 87.1C41.3324 87.1 41.5324 87.1 41.7324 86.9C41.7324 86.9 41.7324 86.9 41.8324 86.9C41.4324 87.9 41.4324 88.6 41.7324 88.8C41.7324 88.8 41.7324 88.8 41.8324 88.8C41.8324 88.8 41.8324 88.8 41.9324 88.8C41.9324 88.8 41.9324 88.8 42.0324 88.8C42.0324 88.8 42.0324 88.8 42.1324 88.6C42.8324 87.7 43.9324 85.6 43.9324 85.4C43.9324 85.4 44.1324 85.1 44.8324 83.9C45.5324 82.9 46.0324 81.9 46.3324 79.9C46.6324 77.9 46.3324 77.3 45.3324 74.7C44.3324 72.1 44.5324 71 44.5324 68.3C45.3324 60 43.1324 52.3 42.6324 50.2C42.5324 49.8 42.4324 49.5 42.4324 49.3C42.4324 48.6 42.2324 44.1 42.2324 41.5C42.2324 41 42.2324 40.5 42.2324 40C42.2324 36.3 41.4324 33.3 41.2324 32.2C41.0324 31.3 40.8324 30.7 40.6324 30.6C39.0324 26.7 35.4324 26 33.1324 25.8C33.1324 25.8 32.6324 25.8 32.5324 25.6C32.6324 23.9 33.0324 21.2 33.1324 19.7C33.1324 19.5 33.1324 19.4 33.1324 19.2C33.4324 16.2 35.0324 8.3 31.3324 3.5C29.6324 1.3 26.9324 0.1 24.1324 0C22.9324 0 21.9324 0.3 20.8324 0.5C19.7324 0.8 18.6324 1.30001 17.8324 2.10001C17.3324 2.50001 17.1324 3 16.7324 3.5C16.3324 3.9 15.9324 4.2 15.5324 4.8C14.2324 6.9 14.0324 9.4 14.0324 11.8C13.9324 18.8 15.2324 25.8 14.9324 26C14.6324 26.2 8.13241 25.8 5.73241 28.6C1.73241 33.2 3.73241 44.5 2.33241 51.3L4.33241 49.5Z" fill="white"/>
</svg>
