<svg width="51" height="159" viewBox="0 0 51 159" fill="none" xmlns="http://www.w3.org/2000/svg">
<path d="M3.13783 56.5098C2.83783 58.2098 2.23783 61.8098 2.33783 65.9098C2.33783 67.8098 2.33783 69.3098 2.13783 70.9098C2.03783 71.9098 1.83783 72.7098 1.43783 73.6098C1.13783 74.4098 0.837829 75.1098 0.637829 75.8098C0.0378293 77.5098 -0.162171 78.1098 0.137829 79.7098C0.537829 81.7098 0.937835 82.7098 1.73784 83.7098C2.53784 84.9098 2.73784 85.2098 2.73784 85.2098C2.73784 85.2098 4.53784 88.7098 5.23784 88.7098C5.53784 88.7098 5.63783 88.3098 5.43783 87.7098C5.73783 87.7098 5.33783 87.7098 5.33783 87.3098C5.43783 87.3098 5.53784 87.3098 5.73784 87.3098C6.23784 87.0098 6.73783 86.3098 5.43783 85.4098C5.43783 85.4098 5.53783 85.4098 5.63783 85.4098C6.23783 85.2098 6.53784 84.3098 4.73784 83.2098C4.73784 83.2098 4.43782 82.9098 4.03782 82.3098C4.03782 81.5098 4.43783 78.9098 4.93783 78.5098C5.53783 78.1098 6.03782 79.9098 6.03782 79.9098C6.03782 79.9098 6.03783 82.5098 7.83783 82.6098C9.03783 82.7098 7.83784 81.4098 7.73784 80.3098C7.53784 79.2098 7.73783 75.6098 6.63783 73.3098C6.13783 72.0098 8.83783 67.3098 9.83783 64.3098C10.8378 61.2098 12.3378 56.5098 12.2378 49.7098C12.2378 48.7098 13.7378 41.4098 14.1378 38.9098C14.0378 39.7098 14.1378 41.0098 14.1378 42.4098C14.1378 43.7098 14.2378 46.1098 14.3378 48.5098C14.3378 50.7098 14.3378 52.6098 14.3378 53.7098C14.1378 55.7098 13.5378 57.7098 12.7378 60.1098C11.1378 64.4098 9.53782 68.8098 9.03782 73.6098C8.43782 79.5098 8.83783 84.3098 10.1378 90.6098C10.1378 91.1098 10.3378 91.6098 10.4378 92.0098C11.5378 97.6098 13.4378 101.41 14.2378 106.71C14.6378 109.01 13.0378 113.61 12.8378 118.31C12.8378 118.61 12.8378 118.91 12.8378 119.11C12.8378 127.51 15.8378 139.71 16.0378 141.71C16.2378 143.71 16.5378 145.31 16.0378 146.51C15.5378 147.71 15.6378 148.21 15.6378 148.21C15.6378 148.21 15.2378 150.11 14.4378 151.51C13.6378 152.91 12.6378 155.21 12.3378 156.01C12.1378 156.41 12.0378 156.71 11.9378 157.01C11.9378 157.41 11.9378 157.81 11.9378 158.11C11.9378 158.31 12.1378 158.41 12.2378 158.51C12.3378 158.51 12.4378 158.51 12.5378 158.51C12.5378 158.51 12.6378 158.51 12.7378 158.51C12.9378 158.51 13.0378 158.51 13.2378 158.51C13.2378 158.51 13.4378 158.51 13.5378 158.51H13.7378C13.8378 158.61 14.0378 158.71 14.2378 158.71C14.4378 158.71 14.6378 158.71 14.8378 158.61C15.0378 158.61 15.1378 158.61 15.3378 158.61C15.3378 158.61 15.3378 158.61 15.4378 158.61C15.6378 158.61 15.8378 158.61 15.9378 158.61C15.9378 158.61 16.0378 158.61 16.1378 158.61C16.3378 158.61 16.5378 158.61 16.8378 158.61C16.8378 158.61 16.8378 158.61 16.9378 158.61C16.9378 158.61 17.1378 158.61 17.2378 158.51C17.5378 158.71 17.9378 158.61 18.2378 158.31C18.5378 158.31 18.7378 158.01 18.8378 158.01C18.8378 158.01 18.9378 158.11 19.0378 158.11C19.2378 158.11 19.5378 158.11 19.8378 158.01C19.8378 158.01 19.8378 158.01 19.9378 158.01C20.4378 157.81 20.9378 157.31 21.0378 156.21C21.0378 156.21 21.0378 156.01 21.0378 155.91C21.2378 154.91 21.3378 153.81 21.3378 152.61C21.3378 152.21 21.3378 151.91 21.3378 151.51C21.3378 151.21 21.3378 150.81 21.1378 150.51C21.1378 150.21 21.1378 149.81 21.0378 149.51C21.0378 148.91 20.8378 148.31 20.9378 147.91C20.9378 147.51 21.3378 147.11 21.2378 146.61C21.1378 146.11 20.4378 145.61 20.5378 143.81C20.5378 141.21 22.3378 132.91 23.2378 125.61C24.0378 118.31 22.8378 110.71 23.1378 108.71C23.1378 108.51 23.1378 108.41 23.1378 108.21C23.4378 106.31 23.6378 104.41 24.0378 102.21C24.1378 101.41 24.2378 100.61 24.3378 99.7098C25.0378 95.1098 25.6378 82.2098 26.1378 77.8098C26.1378 78.6098 26.1378 93.5098 27.0378 101.61C27.1378 102.91 27.3378 104.21 27.4378 105.51C27.7378 107.81 28.0378 108.81 27.6378 112.51C27.6378 112.91 27.6378 113.41 27.5378 113.81C26.7378 122.61 27.5378 129.21 28.2378 135.71C28.2378 136.01 28.2378 136.21 28.2378 136.51C28.7378 141.41 28.7378 144.01 28.3378 145.41C28.3378 145.51 28.3378 145.61 28.3378 145.71C28.1378 146.51 28.0378 147.21 28.0378 147.81C28.0378 147.91 28.0378 148.01 28.0378 148.11C28.0378 148.21 28.0378 148.41 28.0378 148.51C28.0378 148.51 28.0378 148.61 28.0378 148.71C28.0378 148.91 28.0378 149.01 28.0378 149.21C27.7378 154.31 28.1378 155.71 28.4378 156.91C28.4378 156.91 28.4378 157.11 28.4378 157.21C28.6378 159.31 31.3378 158.81 31.5378 158.21C32.0378 158.61 32.8378 158.71 33.2378 158.11C33.6378 158.41 34.4378 158.71 34.8378 158.11C35.4378 158.71 36.0378 158.31 36.2378 158.11C36.5378 157.91 36.5378 158.41 37.1378 158.11C37.1378 158.11 37.2378 158.01 37.3378 157.91C37.3378 157.91 37.3378 157.91 37.3378 157.81C37.3378 157.81 37.3378 157.71 37.3378 157.61C37.3378 157.61 37.3378 157.51 37.3378 157.41C37.3378 157.41 37.3378 157.31 37.3378 157.21C37.3378 157.21 37.3378 157.11 37.3378 157.01C37.1378 155.91 36.2378 154.51 35.5378 153.51C34.4378 152.01 33.1378 149.61 33.3378 149.11C33.5378 148.61 33.8378 147.91 33.2378 146.81C32.6378 145.71 33.9378 140.51 35.3378 134.91C39.0378 119.91 37.3378 115.41 36.6378 109.61C36.6378 109.01 36.6378 108.41 36.6378 107.71C36.9378 104.51 39.0378 100.81 40.0378 95.7098C40.4378 93.5098 41.0378 91.3098 41.4378 89.0098C41.4378 88.5098 41.6378 88.0098 41.7378 87.5098C41.7378 87.5098 41.7378 87.4098 41.7378 87.3098C42.3378 83.6098 42.7378 79.9098 42.5378 75.5098C42.3378 70.6098 41.3378 66.2098 40.3378 62.7098C39.9378 61.1098 39.4378 59.7098 39.1378 58.6098C38.7378 57.0098 38.3378 55.6098 38.1378 54.4098C37.9378 52.8098 37.8378 51.3098 37.9378 49.8098C37.9378 46.6098 38.6378 43.5098 38.7378 40.2098C38.7378 40.2098 38.8378 40.4098 38.9378 40.5098C39.2378 42.3098 40.0378 46.4098 40.4378 49.0098C40.4378 49.5098 40.5378 50.0098 40.6378 50.4098C40.8378 52.0098 40.8378 53.8098 41.2378 57.1098C41.5378 59.2098 41.8378 61.4098 42.4378 63.6098C42.6378 64.4098 42.9378 65.2098 43.1378 66.0098C43.9378 68.7098 44.8378 71.1098 44.6378 72.4098C44.4378 73.2098 44.3378 74.1098 44.1378 74.9098C43.7378 76.6098 43.7378 78.4098 43.5378 79.4098C43.4378 80.4098 42.8378 81.3098 43.1378 81.7098C43.1378 81.7098 43.2378 81.9098 43.3378 81.9098C43.8378 82.1098 43.9378 82.1098 44.4378 81.6098C44.8378 81.1098 45.0378 80.4098 45.1378 80.2098C45.1378 80.0098 45.4378 79.0098 45.7378 78.8098C45.7378 78.8098 45.9378 78.6098 46.0378 78.7098C46.2378 78.7098 46.4378 78.7098 46.7378 79.1098C46.9378 79.6098 47.0378 80.4098 47.1378 81.1098C46.8378 81.7098 46.6378 82.1098 46.6378 82.3098C46.1378 82.7098 45.8378 83.0098 45.6378 83.2098C45.0378 83.8098 45.1378 84.3098 45.3378 84.6098C45.3378 84.6098 45.3378 84.6098 45.4378 84.6098C45.2378 84.8098 45.1378 85.0098 45.1378 85.2098C45.1378 85.2098 45.1378 85.2098 45.1378 85.3098C44.5378 86.0098 44.7378 86.4098 44.9378 86.7098C45.0378 86.7098 45.2378 86.8098 45.3378 86.7098C45.5378 86.7098 45.6378 86.6098 45.8378 86.4098C45.8378 86.5098 45.8378 86.7098 45.8378 86.8098C45.4378 87.8098 45.5378 88.4098 45.8378 88.5098C45.8378 88.5098 45.8378 88.5098 45.9378 88.5098C45.9378 88.5098 45.9378 88.5098 46.0378 88.5098C46.0378 88.5098 46.0378 88.5098 46.1378 88.4098C46.1378 88.4098 46.1378 88.3098 46.2378 88.2098C47.0378 87.3098 48.0378 85.2098 48.1378 85.1098C48.1378 85.1098 48.3378 84.8098 49.1378 83.6098C49.9378 82.6098 50.3378 81.6098 50.7378 79.6098C51.1378 77.6098 50.7378 77.0098 49.7378 74.4098C48.7378 71.8098 49.4378 70.7098 49.4378 68.0098C50.3378 59.1098 47.5378 51.4098 47.1378 49.8098C47.1378 49.5098 47.0378 49.2098 47.0378 49.0098C46.9378 47.7098 46.8378 43.4098 46.8378 41.0098C46.8378 40.5098 46.8378 40.0098 46.8378 39.5098C46.6378 35.4098 45.7378 32.2098 45.5378 31.6098C45.3378 30.8098 45.0378 30.3098 44.7378 29.9098C42.8378 26.6098 38.8378 25.9098 36.4378 25.7098C36.1378 25.5098 35.8378 25.4098 35.6378 25.3098C35.7378 23.6098 35.8378 21.5098 36.0378 19.9098C36.0378 19.7098 36.0378 19.5098 36.0378 19.3098C36.3378 16.4098 38.0378 8.30979 34.2378 3.50979C30.8378 -0.79021 24.5378 -0.690208 22.1378 1.40979C22.0378 1.40979 21.8378 1.40979 21.7378 1.50979C21.7378 1.50979 21.6378 1.50979 21.5378 1.50979H21.3378C21.3378 1.50979 21.1378 1.50979 21.1378 1.60979C21.1378 1.60979 21.0378 1.6098 20.9378 1.7098C20.9378 1.7098 20.7378 1.80979 20.7378 1.90979C20.7378 1.90979 20.6378 1.90979 20.6378 2.00979C20.6378 2.00979 20.4378 2.1098 20.3378 2.2098C20.3378 2.2098 20.3378 2.20979 20.2378 2.30979C20.2378 2.30979 20.0378 2.50979 19.9378 2.60979C19.9378 2.60979 19.9378 2.6098 19.8378 2.7098C19.8378 2.7098 19.6378 2.90979 19.6378 3.00979C19.6378 3.00979 19.6378 3.00979 19.6378 3.10979C19.6378 3.10979 19.5378 3.30979 19.4378 3.30979C19.4378 3.30979 19.4378 3.40979 19.3378 3.50979C19.3378 3.50979 19.3378 3.50979 19.3378 3.60979C19.1378 4.00979 18.8378 4.40979 18.7378 4.90979C18.7378 5.10979 18.5378 5.20979 18.4378 5.40979C18.4378 5.40979 18.4378 5.6098 18.3378 5.7098C18.3378 5.8098 18.3378 5.90979 18.2378 6.00979C18.2378 6.10979 18.2378 6.20979 18.1378 6.40979C18.1378 6.40979 18.1378 6.6098 18.1378 6.7098C18.1378 6.8098 18.1378 7.00979 18.0378 7.10979C18.0378 7.10979 18.0378 7.30979 18.0378 7.40979C18.0378 7.60979 18.0378 7.70979 18.0378 7.90979C18.0378 7.90979 18.0378 8.10979 18.0378 8.20979C18.0378 8.4098 18.0378 8.60979 18.0378 8.80979C18.0378 8.80979 18.0378 9.00979 18.0378 9.10979C18.0378 10.9098 18.2378 12.9098 18.3378 14.9098C18.3378 15.7098 18.3378 16.5098 18.3378 17.3098C18.6378 22.5098 18.3378 25.7098 18.3378 25.7098C18.3378 25.7098 11.9378 25.5098 9.03782 27.7098C4.63782 31.1098 4.93784 40.2098 4.73784 46.8098C4.63784 51.4098 2.93783 53.6098 2.43783 56.9098L3.13783 56.5098Z" fill="white"/>
</svg>
