<svg xmlns="http://www.w3.org/2000/svg" width="124.021" height="47.01" viewBox="153 327.99 124.021 47.01"><g data-name="Group 965"><path d="M153 371.259a3.64 3.64 0 1 1 0 .1z" fill="#21bf73" fill-rule="evenodd" data-name="Ellipse 280"/><path d="M180.344 368.565a20.58 20.58 0 0 0-5.38-11.013 20.82 20.82 0 0 0-2.368-2.152 14.778 14.778 0 0 0-7.735-27.374h-7.164a4.697 4.697 0 0 0-4.697 4.698v19.945a4.88 4.88 0 0 0 4.879 4.883h1.108a14.566 14.566 0 0 1 .947-.032 14.19 14.19 0 0 1 14.115 15.597 1.718 1.718 0 0 0 1.713 1.883h3.035a1.72 1.72 0 0 0 1.715-1.572 20.808 20.808 0 0 0-.169-4.866Zm-20.912-20.025v-11.5a2.581 2.581 0 0 1 2.58-2.581h2.123a8.08 8.08 0 0 1 1.451 0 8.347 8.347 0 0 1 7.618 8.235 8.433 8.433 0 0 1-8.437 8.426h-2.755a2.58 2.58 0 0 1-2.58-2.58Z" fill="#21bf73" fill-rule="evenodd" data-name="Path 331"/><g data-name="Group 964" transform="translate(153 328.026)" clip-path="url(&quot;#a&quot;)"><path d="M92.163 150.231c0 2.44-2.471 4.522-5.948 5.34a20.58 20.58 0 0 0-12.385-6.249c.702-2.721 4.513-4.802 9.108-4.802 5.095 0 9.225 2.557 9.225 5.711Z" fill-rule="evenodd" fill="url(&quot;#b&quot;)" transform="translate(-64.457 -126.196)" data-name="Path 332"/></g><path d="M201.685 353.888h4.862v20.485h-4.779l-.254-2.991c-1.162 2.411-4.364 3.574-6.648 3.615-6.066.042-10.554-3.697-10.554-10.887 0-7.065 4.697-10.761 10.68-10.721a7.52 7.52 0 0 1 6.523 3.325l.17-2.826Zm-12.3 10.223a5.869 5.869 0 0 0 6.066 6.233c7.98 0 7.98-12.425 0-12.425a5.834 5.834 0 0 0-6.066 6.192Z" fill="#2d394f" fill-rule="evenodd" data-name="Path 334"/><path d="M215.482 345.329v11.34c1.21-2.12 4.573-3.284 6.726-3.284 5.984 0 10.43 3.656 10.43 10.72 0 6.726-4.53 10.721-10.554 10.721a7.441 7.441 0 0 1-6.602-3.278l-.332 2.825h-4.74V345.33h5.072Zm.332 18.789a5.88 5.88 0 1 0 11.76 0 5.65 5.65 0 0 0-5.818-5.983 5.836 5.836 0 0 0-5.942 5.976Z" fill="#2d394f" fill-rule="evenodd" data-name="Path 335"/><path d="M241.45 345.329v11.34c1.21-2.12 4.573-3.284 6.725-3.284 5.984 0 10.43 3.656 10.43 10.72 0 6.726-4.528 10.721-10.553 10.721a7.44 7.44 0 0 1-6.6-3.283l-.333 2.825h-4.738v-29.04h5.069Zm.332 18.789a5.88 5.88 0 1 0 11.76 0 5.65 5.65 0 0 0-5.817-5.983 5.84 5.84 0 0 0-5.943 5.976Z" fill="#2d394f" fill-rule="evenodd" data-name="Path 336"/><path d="M267.879 348.112a2.992 2.992 0 1 1-5.985 0 2.992 2.992 0 1 1 5.985 0Zm-5.527 5.693v20.57h5.07v-20.57h-5.07Z" fill="#2d394f" fill-rule="evenodd" data-name="Path 337"/><path d="M277.02 345.329v29.046h-5.027v-29.046h5.028Z" fill="#2d394f" fill-rule="evenodd" data-name="Path 338"/><path d="M187.596 328.063v10.466h6.518v2.209h-8.909v-12.675h2.39Z" fill="#21bf73" fill-rule="evenodd" data-name="Path 339"/><path d="M197.516 337.06a2.38 2.38 0 0 0 2.666 1.905 3.683 3.683 0 0 0 2.39-.833l1.412 1.397a5.479 5.479 0 0 1-3.84 1.45 4.5 4.5 0 0 1-4.907-4.763 4.467 4.467 0 0 1 4.745-4.672c2.989 0 4.853 1.847 4.509 5.523l-6.975-.007Zm4.853-1.822a2.045 2.045 0 0 0-2.317-1.74 2.405 2.405 0 0 0-2.498 1.74h4.815Z" fill="#21bf73" fill-rule="evenodd" data-name="Path 340"/><path d="M213.27 331.812h2.119v8.927h-2.088l-.102-1.31a3.397 3.397 0 0 1-2.897 1.575 4.32 4.32 0 0 1-4.6-4.744 4.346 4.346 0 0 1 4.653-4.672 3.278 3.278 0 0 1 2.844 1.449l.071-1.225Zm-5.36 4.453a2.556 2.556 0 0 0 2.643 2.718c3.477 0 3.477-5.415 0-5.415a2.541 2.541 0 0 0-2.643 2.697Z" fill="#21bf73" fill-rule="evenodd" data-name="Path 341"/><path d="m219.3 331.812.162 1.031a2.634 2.634 0 0 1 2.518-1.27 3.422 3.422 0 0 1 2.3.85l-.996 1.927a2.205 2.205 0 0 0-1.593-.579 2.06 2.06 0 0 0-2.227 2.264v4.708h-2.21v-8.931h2.045Z" fill="#21bf73" fill-rule="evenodd" data-name="Path 342"/><path d="M231.685 340.738v-4.672a2.13 2.13 0 0 0-2.152-2.39 2.353 2.353 0 0 0-2.287 2.5v4.562h-2.188v-8.945h1.973l.147 1.21a4.02 4.02 0 0 1 2.932-1.345c2.101 0 3.785 1.575 3.785 4.383v4.689l-2.21.008Z" fill="#21bf73" fill-rule="evenodd" data-name="Path 343"/><path d="m247.658 331.793 1.951 6.717 2.045-6.717h2.445l-3.11 8.981h-2.571l-.923-2.644-.798-2.988-.796 2.988-.924 2.644h-2.57l-3.134-8.981h2.465l2.046 6.717 1.937-6.717h1.937Z" fill="#21bf73" fill-rule="evenodd" data-name="Path 344"/><path d="M258.377 329.293a1.303 1.303 0 1 1-2.607 0 1.303 1.303 0 0 1 2.607 0Zm-2.413 2.48v8.965h2.21v-8.965h-2.21Z" fill="#21bf73" fill-rule="evenodd" data-name="Path 345"/><path d="M263.284 329.293v2.54h2.463v1.905h-2.48v3.85a1.11 1.11 0 0 0 1.16 1.27c.37-.01.735-.103 1.067-.27l.619 1.884c-.58.241-1.201.37-1.83.38a2.884 2.884 0 0 1-3.204-3.26v-3.862h-1.67v-1.904h1.666v-2.299l2.21-.234Z" fill="#21bf73" fill-rule="evenodd" data-name="Path 346"/><path d="M269.603 328.063v4.962a3.304 3.304 0 0 1 2.793-1.345c2.54 0 3.657 1.72 3.657 4.346v4.708h-2.208v-4.681c0-1.63-.852-2.318-2.032-2.318a2.287 2.287 0 0 0-2.208 2.446v4.557h-2.209v-12.675h2.207Z" fill="#21bf73" fill-rule="evenodd" data-name="Path 347"/></g><defs><linearGradient x1=".348" y1=".833" x2=".919" y2="-.38" id="b"><stop stop-color="rgba(51,51,51,0.81 )" offset="0"/><stop stop-color="rgba(71,91,62,0.6 )" offset=".13"/><stop stop-color="rgba(130,209,94,0 )" offset=".57"/></linearGradient><clipPath id="a"><path d="M27.344 40.719a20.58 20.58 0 0 0-5.38-11.013 20.82 20.82 0 0 0-2.368-2.152A14.778 14.778 0 0 0 11.861.18H4.697A4.697 4.697 0 0 0 0 4.877v19.946a4.88 4.88 0 0 0 4.879 4.883h1.108a14.566 14.566 0 0 1 .947-.032A14.19 14.19 0 0 1 21.05 45.27a1.718 1.718 0 0 0 1.713 1.883h3.035a1.72 1.72 0 0 0 1.715-1.573 20.808 20.808 0 0 0-.169-4.866ZM6.432 20.693v-11.5a2.581 2.581 0 0 1 2.58-2.58h2.123a8.08 8.08 0 0 1 1.451 0 8.347 8.347 0 0 1 7.618 8.234 8.433 8.433 0 0 1-8.437 8.426H9.012a2.58 2.58 0 0 1-2.58-2.58Z" data-name="Path 333" transform="translate(0 -.18)"/></clipPath></defs></svg>