<svg width="109" height="332" viewBox="0 0 109 332" fill="none" xmlns="http://www.w3.org/2000/svg">
<path d="M108.284 167.008C108.284 167.008 105.384 132.908 104.384 128.108C103.384 123.308 101.384 115.608 101.384 115.608C101.384 115.608 97.1838 76.7081 94.5838 67.3081C91.9838 57.9081 80.6838 57.0081 80.6838 57.0081L65.3838 49.9081L64.6838 42.7081L64.3838 39.6081C65.2838 38.4081 66.0838 37.2081 66.2838 36.3081C66.4838 35.4081 66.6838 33.9081 66.8838 32.2081C66.8838 32.2081 67.6838 32.6081 68.3838 32.1081C69.0838 31.6081 70.6838 29.5081 70.6838 26.8081C70.6838 24.1081 70.0838 23.3081 69.1838 23.5081C68.9838 23.5081 68.8838 23.6081 68.6838 23.7081C68.8838 22.2081 69.2838 18.0081 69.6838 15.1081C70.2838 11.5081 67.8838 7.5081 64.7838 5.7081C63.6838 5.1081 62.5838 4.6081 61.4838 4.3081C60.7838 3.8081 59.9838 3.4081 59.2838 2.9081C57.8838 2.0081 56.3838 1.1081 54.7838 0.608105C53.1838 0.00810474 51.3838 -0.191897 49.7838 0.208103C48.2838 0.608103 47.0838 1.5081 46.0838 2.7081C45.4838 3.5081 44.9838 4.5081 44.6838 5.4081C44.5838 5.4081 44.4838 5.5081 44.2838 5.6081C41.1838 7.4081 38.7838 11.4081 39.3838 15.0081C39.8838 17.9081 40.2838 22.1081 40.3838 23.6081C40.1838 23.5081 40.0838 23.4081 39.8838 23.4081C38.9838 23.2081 38.2838 24.0081 38.3838 26.7081C38.3838 29.4081 40.0838 31.5081 40.6838 32.0081C41.3838 32.5081 42.1838 32.1081 42.1838 32.1081C42.3838 33.8081 42.5838 35.3081 42.7838 36.2081C43.0838 37.3081 44.0838 38.8081 45.3838 40.2081L44.3838 49.8081L29.0838 56.9081C29.0838 56.9081 17.7838 57.8081 15.1838 67.2081C12.5838 76.6081 8.38382 115.508 8.38382 115.508C8.38382 115.508 6.38382 123.108 5.38382 128.008C4.38382 132.808 1.48383 166.908 1.48383 166.908C1.48383 166.908 -0.416171 183.008 0.083829 184.508C0.383829 185.208 0.783829 185.908 1.08383 186.308V187.008C1.08383 187.308 1.38383 187.508 1.68383 187.508C1.68383 188.108 1.68382 189.108 1.88382 189.508C1.88382 189.908 2.78383 190.808 3.28383 191.308C3.38383 191.808 3.58382 192.308 3.88382 192.608C3.88382 192.708 4.08383 192.808 4.28383 192.808C4.48383 192.808 4.48383 192.808 4.58383 192.808C4.98383 193.108 5.38382 193.408 5.88382 193.708C6.78382 194.108 8.48383 194.808 9.58383 195.208C9.78383 195.508 9.88383 195.708 9.98383 195.808C9.98383 195.908 10.2838 196.008 10.3838 196.008C10.4838 196.008 10.5838 196.008 10.6838 196.008C10.6838 196.008 10.6838 196.008 10.6838 195.908L13.5838 198.108C13.5838 198.108 15.5838 197.608 14.4838 195.508C13.3838 193.508 11.4838 190.708 11.4838 190.708L10.6838 181.108C10.6838 181.108 11.9838 181.108 11.9838 182.508C11.9838 183.908 12.3838 188.508 12.9838 189.208C13.5838 190.008 15.4838 191.108 16.2838 190.808C17.1838 190.508 15.2838 184.608 15.9838 182.308C16.6838 180.008 15.9838 177.608 15.6838 176.808C15.3838 175.908 11.0838 166.408 11.0838 166.408C11.0838 166.408 19.0838 131.308 19.6838 129.308C20.2838 127.208 20.0838 122.108 20.0838 122.108L26.4838 97.9081C27.2838 105.308 28.1838 112.908 28.6838 115.908C28.6838 116.108 28.8838 116.308 29.0838 116.308C28.6838 119.708 26.3838 140.208 25.6838 145.208C25.3838 147.308 25.0838 152.208 24.9838 158.708C24.7838 169.308 24.9838 183.708 26.6838 195.608C29.3838 214.708 29.7838 239.908 29.7838 239.908C29.7838 239.908 26.0838 258.008 26.5838 264.608C27.0838 271.208 27.5838 310.708 27.7838 312.808C27.7838 312.808 23.5838 320.008 17.8838 323.508C17.8838 323.508 12.8838 325.708 15.5838 328.608C15.5838 328.608 15.6838 328.808 15.8838 329.008C15.8838 329.308 15.9838 329.608 16.0838 329.908C16.0838 330.108 16.3838 330.208 16.5838 330.208C16.7838 330.208 16.6838 330.208 16.7838 330.208C16.8838 330.208 16.9838 330.108 17.0838 330.008C17.6838 330.308 18.3838 330.608 19.2838 330.708C19.2838 330.708 19.2838 330.708 19.3838 330.708C19.3838 330.708 19.5838 330.908 19.6838 330.908C19.6838 330.908 19.8838 330.908 19.9838 330.908C20.1838 330.908 20.2838 330.908 20.3838 330.708C20.7838 330.708 21.1838 330.708 21.5838 330.708C21.5838 330.708 21.5838 330.808 21.6838 330.908C21.6838 331.008 21.8838 331.108 22.0838 331.108C22.2838 331.108 22.2838 331.108 22.3838 331.008C22.3838 331.008 22.4838 330.908 22.4838 330.808C23.3838 330.808 24.2838 330.908 25.1838 331.008C25.2838 331.208 25.4838 331.308 25.5838 331.408C25.5838 331.408 25.7838 331.508 25.8838 331.508C25.9838 331.508 26.1838 331.508 26.2838 331.308C26.2838 331.308 26.3838 331.108 26.3838 331.008C26.9838 331.008 27.4838 331.008 27.8838 331.008C28.4838 331.008 28.9838 330.908 29.4838 330.608L34.7838 327.408C34.7838 327.408 39.7838 326.008 40.5838 324.708C41.4838 323.408 39.0838 311.708 39.0838 311.708C39.0838 311.708 39.7838 309.608 39.0838 305.508L49.0838 237.308C49.0838 237.308 49.8838 231.108 49.9838 228.008C49.9838 224.908 52.7838 173.008 52.7838 173.008C52.7838 173.008 54.3838 173.708 55.9838 173.008C55.9838 173.008 58.7838 224.908 58.7838 228.008C58.7838 231.108 59.6838 237.308 59.6838 237.308L69.6838 305.508C68.8838 309.608 69.6838 311.708 69.6838 311.708C69.6838 311.708 67.2838 323.408 68.1838 324.708C69.0838 326.008 73.9838 327.408 73.9838 327.408L79.2838 330.608C79.7838 330.908 80.2838 331.008 80.8838 331.008C81.4838 331.008 82.2838 331.008 83.1838 330.908C83.1838 330.908 83.2838 330.908 83.3838 330.908C83.4838 330.908 83.5838 330.908 83.6838 330.908C84.2838 330.908 84.8838 330.908 85.4838 330.808C85.4838 330.808 85.6838 330.908 85.7838 330.908C85.9838 330.908 86.0838 330.908 86.1838 330.708C86.8838 330.708 87.4838 330.708 88.0838 330.608C88.0838 330.608 88.0838 330.608 88.1838 330.608H88.3838C88.7838 330.608 89.0838 330.608 89.3838 330.608C90.4838 330.608 91.2838 330.108 91.8838 329.708C91.8838 329.708 91.9838 329.708 92.0838 329.608C92.6838 329.108 92.9838 328.608 92.9838 328.608C95.6838 325.708 90.6838 323.508 90.6838 323.508C84.9838 320.008 80.7838 312.808 80.7838 312.808C80.8838 310.708 81.4838 271.208 81.9838 264.608C82.4838 258.008 78.7838 239.908 78.7838 239.908C78.7838 239.908 79.1838 214.708 81.8838 195.608C83.5838 183.708 83.7838 169.208 83.5838 158.608C83.4838 152.208 83.1838 147.308 82.8838 145.208C82.2838 140.208 79.8838 119.808 79.4838 116.308C79.5838 116.308 79.6838 116.108 79.6838 116.008C80.1838 113.008 81.0838 105.008 81.8838 97.4081L88.3838 122.108C88.3838 122.108 88.0838 127.208 88.7838 129.308C89.3838 131.408 97.3838 166.408 97.3838 166.408C97.3838 166.408 93.0838 175.908 92.7838 176.808C92.4838 177.708 91.7838 180.008 92.4838 182.308C93.1838 184.608 91.3838 190.508 92.1838 190.808C93.0838 191.108 94.9838 190.008 95.4838 189.208C96.0838 188.408 96.4838 183.808 96.4838 182.508C96.4838 181.208 97.7838 181.108 97.7838 181.108L96.9838 190.708C96.9838 190.708 95.1838 193.508 93.9838 195.508C92.8838 197.508 94.8838 198.108 94.8838 198.108L97.5838 196.008C97.5838 196.008 97.7838 196.008 97.8838 196.008C98.0838 196.008 98.1838 196.008 98.2838 195.808C98.2838 195.708 98.5838 195.408 98.7838 195.208C99.7838 194.808 101.584 194.108 102.584 193.608C103.084 193.408 103.384 193.108 103.784 192.808C103.784 192.808 103.984 192.808 104.084 192.808C104.284 192.808 104.384 192.808 104.484 192.608C104.684 192.308 104.884 191.908 104.984 191.408C105.384 191.008 106.584 189.908 106.684 189.408C106.684 189.008 106.784 188.108 106.884 187.508C107.084 187.508 107.184 187.308 107.184 187.108V186.508C107.584 186.108 108.084 185.308 108.384 184.408C108.884 183.008 106.984 166.808 106.984 166.808L108.284 167.008Z" fill="white"/>
</svg>
