<svg width="122" height="336" viewBox="0 0 122 336" fill="none" xmlns="http://www.w3.org/2000/svg">
<path d="M121.406 163.767C121.406 163.767 121.006 147.767 121.406 139.067C121.806 130.367 117.206 117.667 117.206 117.667C117.206 117.667 114.706 96.2667 115.206 83.0667C115.706 69.8667 110.206 63.4667 101.206 60.1667C92.2062 56.9667 73.9062 48.7667 73.9062 48.7667L73.2062 43.7667L72.7062 40.0667C73.8062 37.7667 74.4062 35.2667 74.6062 32.9667C74.9062 32.9667 75.4063 32.9667 75.8063 32.6667C76.5063 32.1667 78.3062 29.9667 78.4062 27.1667C78.5062 24.3667 77.7062 23.5667 76.7062 23.7667C77.2062 20.2667 77.6062 16.6667 77.6062 13.1667C77.6062 11.6667 77.6062 10.1667 76.9062 8.76666C76.3062 7.56666 75.2063 6.56666 74.0063 6.26666C73.2063 3.96667 71.5062 2.06667 69.4062 1.06667C66.9062 -0.133332 64.0063 -0.133334 61.3063 0.166666C57.5063 0.566666 53.8062 1.56667 50.0062 2.06667C48.8062 2.16667 47.5062 2.26667 46.5062 3.06667C45.5062 3.76667 44.9063 5.06666 44.8063 6.26666C44.8063 7.16666 44.9063 8.16667 45.2063 9.06667C44.5063 9.36667 43.9062 9.96667 43.6062 10.5667C43.2062 11.3667 43.1062 12.2667 43.0062 13.1667C42.7062 16.7667 43.0062 20.3667 43.5062 23.9667C42.9062 24.2667 42.5062 25.2667 42.6062 27.2667C42.6062 30.0667 44.4063 32.2667 45.2063 32.7667C45.6063 33.0667 46.0062 33.0667 46.4062 33.0667C46.7062 35.7667 47.4062 38.8667 49.0062 41.4667L48.0062 48.8667C48.0062 48.8667 29.7063 57.0667 20.7063 60.2667C11.7063 63.4667 6.30625 69.9667 6.70625 83.1667C7.20625 96.3667 4.70625 117.667 4.70625 117.667C4.70625 117.667 0.10624 130.367 0.50624 139.067C0.90624 147.767 0.50624 163.767 0.50624 163.767C0.50624 163.767 -0.393748 181.167 0.206252 182.667C0.606252 183.767 1.80623 185.667 2.40623 186.467C2.40623 186.767 2.40624 186.967 2.50624 187.267C2.90624 188.967 3.80625 191.267 5.70625 192.767C5.70625 192.767 5.90624 192.867 6.00624 192.867C6.10624 192.867 6.20626 192.867 6.30626 192.767C7.90626 194.367 9.60624 195.867 10.0062 196.267C10.6062 196.967 11.5063 196.767 11.8063 196.167C11.8063 196.167 12.0062 196.267 12.1062 196.267C12.2062 196.267 12.4062 196.267 12.5062 196.167C12.5062 196.067 12.6062 195.967 12.6062 195.767C13.3062 195.667 14.4063 195.167 14.3063 193.667C14.2063 191.367 10.3063 184.867 10.3063 184.867L11.6062 176.767C11.7062 176.767 11.8062 176.767 11.9062 176.567C12.4062 177.767 14.0062 181.067 15.6062 183.067C15.4062 183.267 15.4062 183.467 15.6062 183.767C16.0062 184.467 16.6063 184.967 17.2063 185.267C17.6063 193.867 18.5062 204.167 20.0062 209.267C23.0062 219.067 26.5062 236.867 26.5062 236.867C26.5062 236.867 24.5062 245.167 24.5062 251.067C24.5062 256.967 28.5063 293.967 28.7063 298.167C28.9063 302.367 29.9062 312.967 29.5062 314.867C29.0062 316.767 18.5063 326.667 17.7063 327.567C17.0063 328.367 14.1062 328.967 14.4062 331.167C14.4062 331.767 15.3062 332.267 16.4062 332.767C16.4062 332.767 16.4062 332.967 16.5062 332.967C16.5062 333.067 16.7062 333.167 16.9062 333.167H17.0062C17.1062 333.167 17.3062 333.167 17.4062 333.067C18.1062 333.267 18.9063 333.567 19.7063 333.667C19.7063 333.667 19.7062 333.767 19.9062 333.867C19.9062 333.867 20.1063 333.967 20.3063 333.967C20.5063 333.967 20.5062 333.967 20.6062 333.867C21.5062 334.067 22.4063 334.267 23.3063 334.367C23.3063 334.467 23.4062 334.567 23.5062 334.767C23.5062 334.867 23.7062 334.967 23.9062 334.967C24.1062 334.967 24.1063 334.967 24.2063 334.867C24.2063 334.867 24.3062 334.667 24.4062 334.567C25.1062 334.667 25.7063 334.767 26.3063 334.767C26.3063 334.767 26.4062 334.967 26.5062 335.067C26.5062 335.067 26.7063 335.067 26.8063 335.067C27.0063 335.067 27.1063 335.067 27.2063 334.867C27.5063 334.867 27.8062 334.867 28.1062 334.867C30.7062 334.867 32.5062 331.367 38.4062 330.067C44.3062 328.867 49.1062 328.567 49.6062 325.867C50.1062 323.167 46.8063 316.467 46.8063 316.467C46.8063 316.467 47.5063 312.867 46.8063 310.867C46.8063 310.867 54.0062 246.567 54.2062 243.867C54.2062 243.867 56.1062 239.367 56.1062 237.167C56.1062 234.967 60.0062 195.967 61.1062 184.767C61.1062 183.967 60.9062 183.367 60.9062 182.867H61.3063C61.3063 183.367 61.2062 183.967 61.1062 184.767C62.2062 195.867 66.1062 235.167 66.1062 237.067C66.1062 238.967 68.0063 243.767 68.0063 243.767C68.1063 246.467 75.3063 310.767 75.3063 310.767C74.5063 312.767 75.3063 316.367 75.3063 316.367C75.3063 316.367 72.0063 323.067 72.5063 325.767C73.0063 328.467 75.8062 328.767 81.7062 329.967C87.6062 331.167 91.5063 334.767 94.0063 334.767C96.5063 334.767 94.7062 334.767 95.2062 334.767C95.2062 334.867 95.2062 334.967 95.2062 335.167C95.2062 335.267 95.4062 335.367 95.6062 335.367C95.8062 335.367 95.8062 335.367 95.9062 335.367C96.1062 335.167 96.3062 334.967 96.4062 334.767C96.9062 334.767 97.5062 334.667 98.1062 334.567C98.1062 334.767 98.1062 335.067 98.2062 335.167C98.3062 335.167 98.4063 335.267 98.5063 335.267C98.6063 335.267 98.8062 335.267 98.9062 335.067C99.1062 334.867 99.2063 334.567 99.3063 334.367C100.106 334.267 100.906 334.067 101.606 333.867C101.606 333.967 101.606 334.067 101.806 334.167C101.806 334.167 102.006 334.267 102.106 334.267C102.206 334.267 102.406 334.267 102.506 334.067C102.706 333.867 102.806 333.667 102.906 333.467C103.606 333.267 104.206 333.067 104.806 332.867C104.806 333.067 105.006 333.267 105.306 333.267H105.406C105.506 333.267 105.706 333.167 105.806 332.967C106.006 332.767 106.006 332.467 106.106 332.167C106.906 331.767 107.406 331.367 107.506 330.867C107.806 328.667 104.906 328.067 104.206 327.267C103.506 326.467 92.9062 316.567 92.4062 314.567C91.9062 312.667 92.9062 302.067 93.2062 297.867C93.5062 293.667 97.4062 256.667 97.4062 250.767C97.4062 244.867 95.3063 236.467 95.3063 236.467C95.3063 236.467 98.9062 218.667 101.906 208.867C103.506 203.567 104.306 192.967 104.706 184.167C104.706 184.167 104.706 184.167 104.806 184.067C105.406 183.767 106.006 183.267 106.406 182.667C106.406 182.567 106.406 182.467 106.406 182.367C108.306 179.767 110.006 175.767 110.006 175.767L111.506 184.567C111.506 184.567 107.606 191.067 107.406 193.367C107.306 195.667 109.806 195.467 109.806 195.467C110.006 196.267 111.006 196.667 111.706 195.867C112.206 195.367 114.306 193.467 116.006 191.667C118.006 190.067 118.806 187.767 119.206 186.167C119.806 185.267 121.006 183.367 121.406 182.267C121.906 180.767 121.106 163.367 121.106 163.367L121.406 163.767ZM17.6062 162.767C17.2062 165.367 16.9063 167.767 16.7063 169.967C16.2063 168.667 15.4063 167.467 14.3063 166.567C14.3063 166.567 14.1062 166.467 14.0062 166.467C12.7062 164.367 11.4062 162.567 11.4062 162.567C11.4062 162.567 17.0063 145.567 19.2063 135.667C19.2063 135.667 19.2063 135.667 19.3063 135.667C20.1063 140.167 20.5062 142.667 20.5062 142.667C20.5062 142.667 19.0062 153.467 17.6062 162.867V162.767ZM108.206 165.767C108.006 165.667 107.806 165.667 107.606 165.767C106.406 166.767 105.606 168.167 105.006 169.567C104.806 167.567 104.506 165.167 104.106 162.767C102.606 153.367 101.206 142.567 101.206 142.567C101.206 142.567 101.706 140.067 102.406 135.467C102.406 135.567 102.406 135.767 102.606 135.767C104.806 145.667 110.406 162.467 110.406 162.467C110.406 162.467 109.406 163.967 108.206 165.767Z" fill="white"/>
</svg>
