<svg width="108" height="332" viewBox="0 0 108 332" fill="none" xmlns="http://www.w3.org/2000/svg">
<path d="M107.8 166.966C107.8 165.766 105 139.266 105.1 135.766C105.2 132.266 101.8 120.466 101.8 120.466C101.8 120.466 98.4 75.766 97.4 69.466C96.4 63.166 90.9 58.266 86 56.766C81.1 55.266 65.4 48.466 65.4 48.466L64.1 41.866L63.8 40.066C64.6 39.066 65.2 38.066 65.4 37.166C65.6 36.266 65.8 34.766 66 33.066C66 33.066 66.8 33.466 67.5 32.966C68.2 32.466 69.8 30.366 69.8 27.666C69.8 25.866 69.6 24.966 69.1 24.566C69.3 20.466 69.5 16.366 69.3 12.266C69.3 11.066 69.2 9.76596 68.5 8.76596C68.1 8.16596 67.5 7.66596 66.9 7.56596C66.4 5.06596 64.4 3.16596 62 2.16596C59.6 1.16596 57 1.06596 54.4 1.06596C51.8 1.06596 49.2 1.06596 46.8 0.365959C46.1 0.165959 45.4 -0.134044 44.6 0.0659561C43.7 0.265956 43.1 0.965962 42.7 1.66596C41.9 2.96596 41.4 4.36596 41.1 5.86596C39.9 6.56596 39 7.66596 38.5 8.96596C37.9 10.366 37.7 11.966 37.7 13.566C37.5 17.166 37.7 20.866 38.1 24.466C37.7 24.866 37.4 25.866 37.5 27.466C37.5 30.166 39.2 32.266 39.8 32.766C40.5 33.266 41.3 32.866 41.3 32.866C41.5 34.566 41.7 36.066 41.9 36.966C42.1 37.866 42.8 38.966 43.8 40.166L42.3 48.266C42.3 48.266 26.6 55.066 21.8 56.566C16.9 58.066 11.5 62.866 10.4 69.266C9.30001 75.666 6 120.266 6 120.266C6 120.266 2.5 132.066 2.7 135.566C2.8 139.066 0 165.566 0 166.766C0 167.966 0.600006 170.666 0.600006 170.666C0.600006 170.666 0.300003 182.666 0.300003 184.966C0.300003 186.566 1.7 188.666 2.5 189.766L2.7 190.666C2.7 190.866 3 191.066 3.2 191.066C3.4 192.366 4.1 195.666 4.5 196.566C5 197.666 10.5 201.466 11 201.766C11.3 201.966 11.7 201.566 12 201.166C12 201.166 12.2 201.166 12.3 201.166C12.4 201.166 12.6 201.166 12.7 200.966L14.3 202.466C14.3 202.466 16.5 202.166 15.3 199.066C14.1 195.966 11.1 192.366 11.1 192.366L10.2 184.266C10.2 184.266 12.9 187.866 13.9 190.466C14.9 193.066 15.9 194.466 16.4 194.466C16.9 194.466 18.2 193.766 18 191.166C17.8 188.466 15.4 183.166 15.4 183.166C15.4 183.166 15.4 178.266 14.5 175.166C13.6 172.066 9.8 166.766 9.8 166.766C9.8 166.766 17.9 142.266 19.7 136.766C21.5 131.266 21.1 120.566 21.1 120.566L25.5 101.466L28.6 120.266C28.6 120.466 28.8 120.666 29 120.666C28.6 123.666 26.3 140.366 25.2 151.966C24.8 155.866 24.5 159.266 24.5 161.366C24.5 161.366 24.5 161.566 24.5 161.666C24.5 170.166 19.9 218.866 22.2 236.166C22.2 236.166 21.1 247.466 21.3 251.166C21.5 254.966 22.2 309.566 22.2 309.566C22.2 309.566 13.9 319.066 12.8 320.166C11.8 321.266 4.5 325.266 4.5 326.666C4.5 327.666 4.9 328.166 5.5 328.666C5.6 329.066 5.80001 329.366 6.10001 329.666C6.10001 329.766 6.3 329.866 6.5 329.866C6.7 329.866 6.7 329.866 6.8 329.766C6.8 329.766 6.8 329.766 6.8 329.666C7.1 329.666 7.50001 329.866 7.90001 329.966C8.10001 330.166 8.3 330.266 8.5 330.266C8.6 330.266 8.80001 330.266 8.90001 330.066C9.30001 330.066 9.7 330.166 10.2 330.266C10.4 330.466 10.7 330.666 10.9 330.666C11.1 330.666 11.2 330.566 11.3 330.366C12.1 330.366 12.9 330.466 13.7 330.566C13.9 330.766 14.1 330.966 14.4 331.066C14.4 331.066 14.5 331.066 14.6 331.066C14.8 331.066 15 330.966 15.1 330.766C15.9 330.766 16.7 330.766 17.3 330.766C20.4 330.866 23.1 328.866 23.1 328.866C23.1 328.866 27.3 326.666 28.5 325.166C28.5 325.166 35.5 323.566 35.7 321.866C35.9 320.166 34.1 311.966 34.1 311.966C34.1 311.966 34.1 308.466 33.7 306.866C33.7 306.866 41.1 270.566 42.4 261.666C43.8 252.766 43.2 241.366 43.2 241.366L53.2 182.766H54.8L64.8 241.366C64.8 241.366 64.2 252.766 65.6 261.666C67 270.566 74.3 306.866 74.3 306.866C74 308.466 73.9 311.966 73.9 311.966C73.9 311.966 72 320.166 72.3 321.866C72.5 323.566 79.5 325.166 79.5 325.166C80.7 326.666 84.9 328.866 84.9 328.866C84.9 328.866 87.6 330.866 90.7 330.766C91.1 330.766 91.5 330.766 92 330.766C92 330.966 92.3 331.066 92.5 331.066C92.7 331.066 92.6 331.066 92.7 331.066C92.9 331.066 93.1 330.866 93.3 330.666C94.1 330.666 94.9 330.666 95.8 330.466C95.8 330.566 96 330.666 96.2 330.666C96.4 330.666 96.6 330.566 96.8 330.366C97.3 330.366 97.8 330.266 98.3 330.166H98.5C98.7 330.166 98.8 330.166 99 329.966C99.6 329.966 100.1 329.766 100.5 329.666H100.7C100.8 329.666 101 329.666 101.1 329.466C101.4 329.366 101.7 329.266 101.8 329.166C102.8 328.266 103.5 327.866 103.5 326.566C103.5 325.166 96.3 321.266 95.2 320.066C94.2 318.966 85.8 309.466 85.8 309.466C85.8 309.466 86.5 254.866 86.7 251.066C86.9 247.266 85.8 236.066 85.8 236.066C88.1 218.766 83.6 170.066 83.5 161.566C83.5 161.566 83.5 161.366 83.5 161.266C83.5 159.166 83.2 155.766 82.8 151.866C81.6 140.166 79.4 123.566 79 120.566C79.2 120.566 79.4 120.366 79.4 120.166L82.1 99.866L86.8 120.566C86.8 120.566 86.4 131.266 88.2 136.766C90 142.266 98.1 166.766 98.1 166.766C98.1 166.766 94.3 172.066 93.4 175.166C92.5 178.266 92.5 183.166 92.5 183.166C92.5 183.166 90.1 188.466 89.9 191.166C89.7 193.866 91 194.466 91.5 194.466C92 194.466 92.9 192.966 94 190.466C95 187.866 97.7 184.266 97.7 184.266L96.8 192.366C96.8 192.366 93.8 195.966 92.6 199.066C91.4 202.166 93.6 202.466 93.6 202.466L95.5 200.566C95.5 200.566 96.2 201.966 96.7 201.666C97.2 201.266 102.7 197.566 103.2 196.466C103.7 195.366 104.6 190.466 104.6 190.466C104.6 190.466 107.6 187.066 107.5 184.766C107.5 182.466 107.2 170.466 107.2 170.466C107.2 170.466 107.8 167.766 107.8 166.566V166.966Z" fill="white"/>
</svg>
