<svg width="113" height="328" viewBox="0 0 113 328" fill="none" xmlns="http://www.w3.org/2000/svg">
<path d="M111.5 154.1V171.5C111.5 172.6 110.1 175.1 109.5 176.3V177C109.5 177.1 109.1 179.7 108.7 180.9C108.7 181.1 108.4 181.2 108.2 181.2C108 181.2 108.2 181.2 108.1 181.2C107.2 182.1 100.8 187.1 100.8 187.1C100.8 187.1 98.4 185.4 100.2 183.1C102 180.8 104.1 176.6 104.1 176.6L102.4 165.6C102.4 165.6 98.8 171.8 97.3 173.2C95.7 174.6 93.3 173.5 93.3 173.5C93.3 173.5 96.5 165.7 97.3 164.2C98 162.6 98.6 155.7 100.8 154.9C100.8 154.9 90.2 118.9 89.9 116.6C89.6 114.3 89.7 111.8 89.7 111.8L86 103C86 103 85.9 103.1 85.8 103.1L85.4 113.6C85.4 113.6 88.9 121.7 90.5 130.9C91 133.6 91.4 138.9 91.7 145.6C91.8 148.2 92 150.9 92.1 153.8C92.3 160.1 92.4 166.9 92.4 173.4C92.4 182.6 92 191.1 91.1 196.3C88.6 211 84.2 234.7 84.2 234.7C84.2 234.7 87.4 254.7 87.1 266C86.8 277.4 82.9 309.8 82.9 309.8C82.9 309.8 88.3 317 91.4 318.9C94.4 320.8 96.7 322.1 96.7 323C96.7 323.9 96.3 325 94.8 325.6C94.8 325.8 94.6 326 94.5 326.2C94.5 326.4 94.2 326.5 94.1 326.5C94 326.5 93.9 326.5 93.9 326.5C93.7 326.5 93.6 326.2 93.6 326C93 326.1 92.2 326.2 91.3 326.3C91.3 326.3 91.3 326.4 91.2 326.5C91.2 326.6 91 326.7 90.8 326.7C90.6 326.7 90.6 326.7 90.5 326.6C90.5 326.6 90.5 326.6 90.4 326.5C89.9 326.5 89.4 326.5 88.9 326.6C88.9 326.7 88.8 326.8 88.7 326.9C88.7 327.1 88.4 327.1 88.3 327.1C88.2 327.1 88.1 327.1 88.1 327.1C87.9 327.1 87.9 326.9 87.9 326.7C87 326.7 86.2 326.9 85.5 326.9C85.4 327 85.2 327.2 85 327.3H84.8C84.6 327.3 84.5 327.3 84.4 327.1C82.3 327.3 77.9 325.6 75.4 323.1C75.4 323.1 70.6 323.1 69.1 321.6C67.5 320.1 70.2 311.2 70.2 311.2C70.2 311.2 66.9 291.6 66.3 287.2C65.7 282.9 63.1 244.8 63.3 239.1L56.2 176.8H55.2L48.1 239.1C48.3 244.8 45.7 282.8 45.1 287.2C44.5 291.5 41.2 311.2 41.2 311.2C41.2 311.2 43.9 320.1 42.3 321.6C40.8 323.1 36 323.1 36 323.1C33.4 325.7 28.9 327.3 26.9 327.1C26.9 327.3 26.6 327.3 26.5 327.3C26.4 327.3 26.3 327.3 26.3 327.3C26.2 327.3 26.1 327.1 25.9 327C25.2 327 24.4 326.9 23.4 326.8C23.4 326.9 23.3 327 23.2 327.1H23C22.8 327.1 22.6 327.1 22.6 326.9C22.6 326.9 22.6 326.7 22.5 326.7C22 326.7 21.4 326.6 20.9 326.5C20.9 326.5 20.7 326.6 20.6 326.6C20.5 326.6 20.3 326.6 20.2 326.4C19.3 326.3 18.5 326.2 17.9 326.1C17.9 326.3 17.9 326.5 17.6 326.6H17.4C17.2 326.6 17.1 326.6 17 326.3C16.9 326.1 16.8 325.9 16.7 325.7C15.3 325.1 14.9 324.1 14.9 323.1C14.9 322.1 17.2 320.9 20.2 319C23.2 317.1 28.7 309.9 28.7 309.9C28.7 309.9 24.8 277.5 24.5 266.1C24.2 254.7 27.4 234.8 27.4 234.8C27.4 234.8 22.9 211.1 20.5 196.4C19.6 191.2 19.3 182.7 19.2 173.5C19.2 167 19.3 160.2 19.5 153.9C19.5 151 19.7 148.3 19.8 145.7C20.2 139.1 20.6 133.7 21 131C22.5 121.8 26.1 113.7 26.1 113.7L25.7 103.2C25.7 103.2 25.6 103.2 25.5 103.2L21.8 111.9C21.8 111.9 21.8 114.4 21.5 116.7C21.2 119 10.7 155 10.7 155C12.9 155.8 13.5 162.7 14.2 164.3C14.9 165.8 18.2 173.6 18.2 173.6C18.2 173.6 15.8 174.7 14.2 173.3C12.6 171.9 9.10001 165.7 9.10001 165.7L7.39999 176.7C7.39999 176.7 9.49999 181 11.3 183.2C13.1 185.4 10.7 187.2 10.7 187.2C10.7 187.2 4.19999 182.2 3.39999 181.3C3.39999 181.3 3.39999 181.2 3.29999 181.1C3.29999 181.1 3.20001 181.1 3.10001 181.1C2.90001 181.1 2.70001 181 2.60001 180.8C2.20001 179.6 1.89999 177.1 1.89999 177V176C1.09999 174.7 0 172.6 0 171.6V154.2C0 153.9 2.9 125.1 3.5 119.3C4.1 113.5 6.10001 109.7 6.10001 109.7C6.10001 109.7 8.19998 93 11.2 76.9C14.2 60.8 18.5 56.4 23 54.1C27.4 51.7 45.7 45.9 45.7 45.9L46.4 39.2C42.9 35.1 43 29.6 43 29.5C43 29.5 42.1 29.9 41.4 29.4C40.7 28.9 39 26.8 39 24.1C39 21.4 39.6 20.6 40.6 20.8C40.6 20.8 38.6 0 55.9 0C73.2 0 70.9 20.8 70.9 20.8C71.9 20.6 72.5 21.4 72.5 24.1C72.5 26.8 70.8 28.9 70.1 29.4C69.4 29.9 68.5 29.5 68.5 29.5C68.5 29.5 68.5 34.7 66.1 38.7V39.1L66.9 45.9C66.9 45.9 85.1 51.7 89.6 54.1C94 56.4 98.3 60.8 101.4 76.9C104.4 93 106.5 109.7 106.5 109.7C106.5 109.7 108.5 113.5 109.1 119.3C109.7 125.1 112.6 153.9 112.6 154.2L111.5 154.1Z" fill="white"/>
</svg>
